<mxfile host="Electron" modified="2024-02-19T15:27:01.342Z" agent="Mozilla/5.0 (Windows NT 10.0; Win64; x64) AppleWebKit/537.36 (KHTML, like Gecko) draw.io/23.0.2 Chrome/120.0.6099.109 Electron/28.1.0 Safari/537.36" etag="rkMtvq50-jBpdwYK-EFK" version="23.0.2" type="device">
  <diagram name="Страница — 1" id="znQt2w4wF4MzzMPlgfeN">
    <mxGraphModel dx="1613" dy="786" grid="1" gridSize="10" guides="1" tooltips="1" connect="1" arrows="1" fold="1" page="1" pageScale="1" pageWidth="1169" pageHeight="827" math="0" shadow="0">
      <root>
        <mxCell id="0" />
        <mxCell id="1" parent="0" />
        <mxCell id="OsneUNbNOB6jyhvysy-9-2" value="" style="shape=image;verticalLabelPosition=bottom;labelBackgroundColor=default;verticalAlign=top;aspect=fixed;imageAspect=0;image=data:image/jpeg,/9j/4AAQSkZJRgABAQEAeAB4AAD/4QAiRXhpZgAATU0AKgAAAAgAAQESAAMAAAABAAEAAAAAAAD/2wBDAAIBAQIBAQICAgICAgICAwUDAwMDAwYEBAMFBwYHBwcGBwcICQsJCAgKCAcHCg0KCgsMDAwMBwkODw0MDgsMDAz/2wBDAQICAgMDAwYDAwYMCAcIDAwMDAwMDAwMDAwMDAwMDAwMDAwMDAwMDAwMDAwMDAwMDAwMDAwMDAwMDAwMDAwMDAz/wAARCAOhBSIDASIAAhEBAxEB/8QAHwAAAQUBAQEBAQEAAAAAAAAAAAECAwQFBgcICQoL/8QAtRAAAgEDAwIEAwUFBAQAAAF9AQIDAAQRBRIhMUEGE1FhByJxFDKBkaEII0KxwRVS0fAkM2JyggkKFhcYGRolJicoKSo0NTY3ODk6Q0RFRkdISUpTVFVWV1hZWmNkZWZnaGlqc3R1dnd4eXqDhIWGh4iJipKTlJWWl5iZmqKjpKWmp6ipqrKztLW2t7i5usLDxMXGx8jJytLT1NXW19jZ2uHi4+Tl5ufo6erx8vP09fb3+Pn6/8QAHwEAAwEBAQEBAQEBAQAAAAAAAAECAwQFBgcICQoL/8QAtREAAgECBAQDBAcFBAQAAQJ3AAECAxEEBSExBhJBUQdhcRMiMoEIFEKRobHBCSMzUvAVYnLRChYkNOEl8RcYGRomJygpKjU2Nzg5OkNERUZHSElKU1RVVldYWVpjZGVmZ2hpanN0dXZ3eHl6goOEhYaHiImKkpOUlZaXmJmaoqOkpaanqKmqsrO0tba3uLm6wsPExcbHyMnK0tPU1dbX2Nna4uPk5ebn6Onq8vP09fb3+Pn6/9oADAMBAAIRAxEAPwD6x/4If/DC6+In/BBj4Mro8cDeJEt9dj057m5migVz4h1H7/lsCenXrXosf7Hf7Sj5+f4d8f8AURv/AP45UP8AwbcDP/BFj4EfXXM/+FBqVfoRCu1296APz9k/Y7/aTT+P4d/+DG//APjlH/DH37SWfvfDv/wY3/8A8cr9ALttgGTt9STwKhNwkaDLDB4BJ4J9qV3cD4FP7Hv7SQH3/h3/AODG/wD/AI5Tf+GPv2k8cv8ADv8A8GN//wDHK/QBGDD9aPvH6UruwadD4BP7Hn7Se3O/4d9cf8hG/wD/AI5QP2Pf2ktv3vh3/wCDG/8A/jlfoAxBUDnrk0FsD09DRzPcD8/x+x3+0p18z4d/T+0b/wD+OUD9jr9pP+/8O/8AwY3/AP8AHK/QBTgfXmgH5etVr1A+AP8Ahjv9pP8AvfDv/wAGV/8A/HKP+GO/2lCPv/Dv/wAGN/8A/F1+gIkyPbNG9f8A9dJ36Aj8/T+x1+0mM/P8O/8AwY3/AP8AHKUfsdftJY+/8O//AAY3/wD8cr9AXYA0w880otpAfn//AMMe/tJg/f8Ah3/4Mb//AOOU5f2OP2lGH+s+Hf8A4Mb/AP8Ajlff6nC/Wpl+7VJ9gPz7/wCGNv2lP+enw7/8GN//APHKP+GNv2lP+enw7/8ABjf/APxyv0Eop3YH59/8MbftKf8APT4d/wDgxv8A/wCOUf8ADG37Sn/PT4d/+DG//wDjlfoJRRdgfn3/AMMbftKf89Ph3/4Mb/8A+OV5x44+Gv7Q3hD9oPwn4ElXwGbzxLZXN7FIuo3/AJarCQCDmTOTu4xX6l18xfHfn/gpZ8H/APsAapn/AL6jpXfQDxJf2R/2kO83w5X2OpX/AP8AHKIf2Qf2kpFP734dtx21G/8A/jldR8b/ANqn4f8Awl+JmsWfjbxFrmn3b3TfZ0tIJ5V8sHHJRSB+NetfsUfF/wAOfFS21jUPDOp3+paOxjET3iPG+7uArgEflVSVkB4Cf2Pf2ksf6z4d/wDgxv8A/wCOUJ+x5+0k4+/8PP8AwY3/AP8AHK+/CdxPXgU+EYU57dPpWfM9haaHwEP2O/2kv73w7/8ABjf/APxyhf2OP2lMff8Ah3/4Mb//AOOV99q+WPP4VIkvvVcz2Hy2PgD/AIY2/aU/56fDv/wY3/8A8co/4Y2/aU/56fDv/wAGN/8A/HK/QISqx+tOp3YH59/8MbftKf8APT4d/wDgxv8A/wCOUf8ADG37Sn/PT4d/+DG//wDjlfoJRRdgfn3/AMMbftKf89Ph3/4Mb/8A+OUf8MbftKf89Ph3/wCDG/8A/jlfoJRRdi5Ufn3/AMMbftKf89Ph3/4Mb/8A+OUf8MbftKf89Ph3/wCDG/8A/jlfoJRRdhyo/Pv/AIY2/aU/56fDv/wY3/8A8co/4Y2/aU/56fDv/wAGN/8A/HK/QSii7Gfn3/wxt+0p/wA9Ph3/AODG/wD/AI5R/wAMbftKf89Ph3/4Mb//AOOV+glFF2B+ff8Awxx+0oOr/Dv/AMGN/wD/ABymf8McftKZ/wBZ8O//AAY3/wD8cr9BCd5xTtgpcz6BpY/Pk/se/tJI3+s+Hf8A4Mb/AP8Ai6E/Y9/aSf8Ai+HnXH/ISv8A/wCOV+gvlqT0pdg9B+VF30YuVH58f8Me/tJY+/8ADzr/ANBG/wD/AI5QP2P/ANpQtjd8O/8AwY3/AP8AHK/QjFNKUczvuPlXU/Pn/hj79pIn7/w7GP8AqJX/AP8AHKX/AIY9/aTPO/4d/T+0b/8A+OV+g+KMUXe9xcqPz5T9jz9pJv4vh5/4Mb//AOOUf8Me/tJbc7vh3/4Mr/8A+OV+g2MUYp8zGfn0v7HP7Sef9Z8O/wDwY3//AMcpP+GO/wBpPP3/AId/+DG//wDjlfoNQBijmYuVH58/8Mc/tKY/1nw7/wDBlf8A/wAXR/wx9+0lu+/8O/8AwY3/AP8AHK/QbFGKOZhyo/Plf2O/2lG/j+Hf/gxv/wD45Tv+GNv2lP8Anp8O/wDwY3//AMcr9BMUUczGfn3/AMMbftKf89Ph3/4Mb/8A+OUf8MbftKf89Ph3/wCDG/8A/jlfoJRRzMD8+/8Ahjb9pT/np8O//Bjf/wDxyj/hjb9pT/np8O//AAY3/wD8cr9BKKOZgfn3/wAMbftKf89Ph3/4Mb//AOOUxv2Pv2ki2PM+Hfv/AMTG/wD/AI5X6Dk4quW/nzS5muorX0PgE/sfftJJ/H8O/wDwY3//AMcpB+x9+0mefM+Hf0/tK/8A/jlffNxex20gDyImefmIGfzp0M6zqSjKwJ6g5FT7RvQVlHTqfAbfse/tJj+P4ec/9RG//wDjlCfsd/tKH+P4d/8Agxv/AP45X6AI4B+v6U0SfN9TxVczVmg30Z8Aj9j39pT/AJ6fDv8A8GN//wDHKP8Ahj79pNQf3nw7P/cRv/8A45X6CRbZU3fhTvIX0/WjmlbcfKj8+V/Y+/aTwf3nw8/8GN//APHKD+x9+0l3f4ef+DG//wDjlfoMIVA/+vSfZ1J6frRzT7hyo/Pr/hkD9pJ/4vh5/wCDG/8A/jlO/wCGP/2klX7/AMO//Bjf/wDxyv0E8lfT9aPJX0/Wq9pIOVH58/8ADIP7SR/5afDz/wAGN/8A/HKP+GPv2kiPv/Dz/wAGN/8A/HK/QYQKD0/WgQqD0pc0hcqPz5/4Y8/aUz/rPh5/4ML/AP8AjlO/4Y8/aTY7fM+Hf/gxv/8A45X6CeWvpTTCqFSvrzzS5pdx8qPz7uf2PP2lLe3kk8z4efIpb/kJX/Yf79eR/s4fCz9pz9ovwVda9pc/w9t7WPUbqwCXF/f7gYZWjJ4k6ZUke1fq9qP/AB4Tf9c2/ka+Y/8Agk7Hv/Zrvz6eJtW/9LZqrmYcqPAf+GKf2rv+f34Z/wDgfqH/AMco/wCGKf2rv+f34Z/+B+of/HK/SCijnl3DlR+b3/DE/wC1d/z+fDP/AMD9Q/8Ajlee/DL4XftO/FP4p+PPCtm/w7t7vwFdw2l1K+oX+ydpYhKCuJOgDAc96/WMjIr5d/Y2P/GZ/wC0n7a7p+f/AACjo55Byo+ex+xj+1aR/wAfvwz4/wCn+/8A/jlOP7GX7VoH/H58M/b/AE+/5/8AIlfok+pQxyFfNi3Z6bxmpUbcAfzo9o7XuLRaH5zP+xh+1cR/x+/DT/wP1D/45Tl/Yu/atwP9M+Gf/gfqH/xyv0Ue9hV9rTRK2cYLYP5VMr8fhip9pLe4WX/APzl/4Yr/AGrQv/H78M//AAP1D/45R/wxd+1b/wA/nwz/APA/UP8A45X6OAjvTwyjrVe0l3DlWmh+cB/Yt/au/wCfz4Z/+B+of/HKP+GLf2ren2z4Z/8AgfqH/wAcr9H5CD/SkUYNT7SS6hyo/OM/sV/tXD/l9+Gf/gfqH/xygfsWftXf8/nwz/8AA+//APjlfo8Tikz8nXvT9pLa41FH5wn9iv8AauH/AC+fDPn/AKf9Q/8AjlIf2LP2rf8An8+GfPf7ff8A/wAcr9HvMBP+eKM7Tml7WW1xcqPziX9iz9q1z/x+/DP/AMD9Q/8AjlO/4Yo/auH/AC+fDP8A8D9Q/wDjlfo3CwZ/1qaq9pLuPlR+b/8AwxT+1d/z+/DP/wAD9Q/+OUf8MU/tXf8AP78M/wDwP1D/AOOV+kFFHPLuHKj83/8Ahin9q7/n9+Gf/gfqH/xyj/hin9q7/n9+Gf8A4H6h/wDHK/SCijnl3DlR+b//AAxT+1d/z+/DP/wP1D/45R/wxT+1d/z+/DP/AMD9Q/8AjlfpBRRzy7hyo/N//hin9q7/AJ/fhn/4H6h/8co/4Yp/au/5/fhn/wCB+of/AByv0goo55dw5Ufm/wD8MU/tXf8AP78M/wDwP1D/AOOUf8MU/tXf8/vwz/8AA/UP/jlfpBRRzy7hyo/N7/hif9q7/n8+Gf8A4H6h/wDHKP8Ahif9q7/n8+Gf/gfqH/xyv0hoo55C5T82bz9jL9qy2tpJGvPhptiQucX9/wBAM/8APT2rz39mH4c/tN/tQfDSTxNpbfD2ztY9RutNMc9/fli8EpjY8SdyMiv1c1pMaTeH/pi//oJr5b/4I9nH7Idz/wBjVrP/AKVvSdRrqPlR4V/wxf8AtXD/AJfPhp/4H3//AMcpf+GMP2rSuPtvwz/8D7//AOOV9uX/AMftHsfj1bfD147v+3LvTW1VHCDyRErhCC2c5yRxjpVj4bfG/Sfih4k8SaXp6zrceFr77BdeaoVWk2Bsqc8jB9qSnJq6Yra2t/TPhlP2Lv2rSuftnw056f6fqH/xyn/8MWftW/8AP58M/wDwP1D/AOOV+iX9owx7Q0sa59WA5p5v4xt/fR5bkfMOR7etL20l1DlV7H50/wDDFv7Vp/5ffhn/AOB9/wD/AByj/hi/9qz/AJ/vhpj1F/f8/wDkSv0UGow+YV82MtnoGB/TNOW+gk3bZIzs64I4+vpT9pLe4W11Pzp/4Yx/at/5/vhr+N/f/wDxylH7Fv7VpbH2z4Z5/wCv/UP/AI5X6JjUoWztljbHXDA4qxC++QYoVR3snqCS2Pzn/wCGKP2rv+f74Z/+B+of/HKP+GKv2rx/y/fDP/wPv/8A45X6QUU+Zj5Ufm//AMMU/tYf8/3wz/8AA+//APjlH/DFH7V//P8AfDP/AMD9Q/8AjlfpBRT5mHKj83f+GKf2rv8An8+Gf/gfqH/xyj/hin9q7/n8+Gf/AIH6h/8AHK/SKilzMZ+b3/DFX7V3/P78NP8AwP1D/wCOUv8AwxT+1f8A8/vwz/8AA/UP/jlfpBRRzMD83/8Ahin9q/8A5/fhn/4H6h/8cpP+GKv2rv8An8+Gf/gfqH/xyv0hoo5mB+bv/DFP7V3/AD+fDP8A8D9Q/wDjlO/4Yo/au/5/vhn/AOB+of8Axyv0goo5mB+b3/DFX7V3/P58M/8AwP1D/wCOUf8ADFX7V3/P58M//A/UP/jlfpDRRzMD822/Yt/auD83nw1/8D9Q/wDjlI37F/7Vy/8AL98NPp9vv+f/ACJX6QyH5z9K8d/aZ/aztf2c77SLT/hFPFXi3UNYLGG10O3jlkVVGSzB3QAfjUe2tLlfyDzPj/8A4Yv/AGrh/wAvvw05/wCn+/8A/jlO/wCGMf2rgv8Ax+/DP8dQv/8A45X2x+zt+0Ppf7SPwttfFmnWOpaPbTyyQPa6lGsVxA8bFWVgCQCCD0JrvDqcBH+ui5GQS45FVKTWjF0uj86z+xj+1Ycf6b8M+f8Ap/1D/wCOUD9jD9qzfj7Z8NfX/j/v+P8AyJX6Krfwhtvmx7iMgBhk/hUiOCaXtJBo3Zn5YfAX4c/tHfFD4nfEDwuzeA2vvA95BbXEj6hfLG5ljMi7cSZ4A5zXqx/Y2/aU/wCenw7/APBjf/8AxyvWP2Gzn9sv9pL/ALDGm/8ApKa+rKrmb1DlR+ff/DG37Sn/AD0+Hf8A4Mb/AP8AjlH/AAxt+0p/z0+Hf/gxv/8A45X6CUUXYz8+/wDhjb9pT/np8O//AAY3/wD8co/4Y2/aU/56fDv/AMGN/wD/AByv0EoouwPz7/4Y2/aU/wCenw7/APBjf/8Axyj/AIY2/aU/56fDv/wY3/8A8cr9BKKLsD8+/wDhjb9pT/np8O//AAY3/wD8co/4Y2/aU/56fDv/AMGN/wD/AByv0EoouwPz7P7HH7SmPvfDv/wY3/8A8cpF/Y2/aUB5k+HZ/wC4jf8A/wAcr9BaKLsD8+2/Y4/aU/v/AA7/APBjf/8Axyj/AIY2/aU/56fDv/wY3/8A8cr9BKKV7gfn3/wxt+0p/wA9Ph3/AODG/wD/AI5R/wAMbftKf89Ph3/4Mb//AOOV+glFAH59/wDDG37Sn/PT4d/+DG//APjlH/DG37Sn/PT4d/8Agxv/AP45X6CUUAfn3/wxt+0p/wA9Ph3/AODG/wD/AI5R/wAMbftKf89Ph3/4Mb//AOOV+glFAH59/wDDG37Sn/PT4d/+DG//APjlH/DG37Sn/PT4d/8Agxv/AP45X6CUUAfn3/wxt+0p/wA9Ph3/AODG/wD/AI5R/wAMbftKf89Ph3/4Mb//AOOV+glFAH59P+xv+0pj/WfDv/wY3/8A8cql8GvD/iwav4s0vxo1nZ+IvAXizQIEl0m/umgnjmvLViDvc5yrkEHIIJFfohIcCviuSVR+0F8b1zyfGHhb/wBKLOnHcD7WooopAfnr/wAG2v8Ayha+A/11v/1INSr9Cq/PX/g21/5QtfAf663/AOpBqVfoVQB5f+2Jq9zoP7M3je8s55bW6tdIuHiljYq8bBCQQRyCPWvin4xftD+MvH2mfCPw34V1i4t9P8Pf2Xf+K9QSUmSaSUDy7YsOSSAWIPY190ftM/D+++K/wI8VeHNNkji1DWdMmtLd5DhVkdCFz7ZIr5v+BP8AwT21n4W/sm6D4Vury0vPGB1a31TXL8k7bl4zyFPoFAAHbmsazly3j5FuS5Uuup02t/8ABQLUNI17WZNP8C6trHhDQpJbSfXLeZGU3Ea5ZCn3guRjd0BrB8Ef8FOtUDLdeNvh5eeEdJutEl1yyuTfxXRuokAONqkkEgjAPrTbn9mD4s+EdO8VeCPDP/CNx+C/El5c3p1G4lLXSCbJaIR9MbifmzwO1TfEn9gTW/iT4V8M6XLqFnbjR/CsujSyj5iLgqoVgO6hlzUylK14nJzSWhAv/BVZdI8AeLNQ17wPqOja5oWir4hsdKkuUZ9TsmICurA4UkkAg8gnmr3hP/gpNqkGv6ppfjbwDdeEtQ06bT0Eb6hFcK8d3JsV9ynAAIJINeUePP8Agnp8XvizpGrX2sN4btddufD0PhG3SK5LRi0EivJcMcffJUEJ05rtv2r/ANgXxV8YfEPirUNNttF1aHVbfSo4rG9uWgjufsspeRXZeVBBwCDmuqPJyJvc6I+9Sf8AN0/A96/aL/aUu/hB4CtdW8N+HZvGlzcylBFa3KRwxKBlneUnaoA9TyeK8/8ADP8AwUm0XxJ4I1LUxot5DfWTWkUVkzjzLmS4OEVT0PzAjPTivMfCn7F3xV8B/CPXtH0/RfCLab4mvi114Qn1GWSxtrcx7SIrgneCW+YjnPTiub0b9mLWvCv7Xvwd8Ppqmn3EOk6e9z4msIgHC+Uwe2OewRvlBPJFZ9Wm/QzldKP4nsniT/gpKul/Ei40y18KyXWh296NJOqG/iTN8RxD5ZO7BbC7sYBNUPCv/BSLxGI/G954q+GF74b0nwQRBcXZ1KK4864fAiiVVOSXLAZ6CuMuf+CaV9pv7Rs+q2fg/wAE6ho994hGuPrd9cztfW+W3lFhDhCd3RscelemeP8A9i7WPHHgD4raSby2t5vGGo22paY6nIieDaVDjsCy4PsaI/CmL3lU8jF1r/gpF4n8OaZY2eofCfWrHxZqt2IbLT57uOO2njKGTf8AaSfLHyjkE5B4r0b9n/8AbD/4XR+znq3jq40GbR59Gmu7e5083CTESW7sjAOp2kEqcEHFeV+Lv2X/AIt/tPy6DpPxMh8LWPhGxu0lvLGwmeSaVY0IAEoIOHbBIGMAYrtP2cf2PLv4EfsueKfANtHZwrqV7qMtjEjM0ccU8rtGpJJPCsAeSazrSfsp8u/Q3lyq3yMv9nn/AIKG6v8AGzxiNEvvAc2i3N/p76jpBTUobpb1VfBDFCfLPQjdivqPSJ5rvS7eW4hNvPJErSREg+UxAJXI4ODxmvhj9j/9g7xx8A/idYa4PC/hPwyukWE9vO2nanLcNrruQU80OSI8EE/Ljk19zaVLNJplu11HHHcGNTKqNuVWwMgHvg55rWOsE+ttTni5c7vsXKKKKZsFFFFABXzD8d22f8FKvg+f+oBqnb/ajr6er5j+Op/42V/B/jpoGqf+hR0peYFXxz+yr4q1rxxrGo2v9ky29/ctNH56BmUHtyOK+eP2h/DfjT4dfEW1sbHXLXTZvDkS+JbqC0uRbrdLCwAhfBGQckkdwK/SOQYj4XrzxXzHqf8AwTx8LfGv4q+N/FHxM8P6dr13q7i20om4lX7NaqmFBCsACSSSDntSqSk7IVkjO+J3/BRLUPBWp6bb6B4N/wCEot5NCi129uhqcNssEJ+8VDkFyME4GTUdn/wUM8aXnxR03RY/hNef2PqdkdTTU31WBVW0ABaQoTkEZ6dTXiF1/wAEyPiFZ3VrFc+E/BfjK307T5dK0577VZrZtOh85mhZQpG4qhUYORxX0r4V/ZP1y31jw8+q30NxDY+GJdEu3B+YyOMZXHUAcZ9hXLGVTlvbW/4ETbT5V2OS0n/gqhaLcS3WseDtT0fQ9StLu58O3zyo39tfZtxkQKOUO1HIB6gZ710X7Pf/AAUBvPjT4kTS7zwRqXh+61fRm1vw+tzOh/teIEBgMfcILLwexzXg/wATP2IPiFp3w6h/4Si50aPw/wDCvTNTk0S5tHLXGovOkkamVMYUKkpGBnJAPeu6/Yx+B/xK8QzeC/HHii30OGHwr4SOm6FBbTktftL5bGSbj5OEUYGeprqjK0kn2Jpyk3Z9j7M0O8mv9Lt5ri3+y3EqK0kRYN5TEZIyODg8ZrQVqzdCkuJdOt2uo1iuigMqI25VbHIB7jOea0FPzenNW7dDbXqSUUUUgCiiigAooooAKKKKACiiigBifep9NBG78adSVugBRiiimAgTmjYKWigBAmBRt5paKAE28UbfrS0UAJto2/WlooAQLgUuKKKAE20tFFABRRRQAUUUUAFVmbn8as1WPzA+3NTLcTPlv9t74T2fx6+OPw98KalqWv2OmzxXlzONL1OWxdysZ27mjIJAPY1wf7O/x41b9mX9liztNL0nWvHV+NZu7C1S81EBkjjdzmSeY4ACrgZPJwK2/iTrXxj8Xftua5deD/CPh/UtE8IaalhA+qXz2vnSzKHZ0IBBAB2nFeHeHf2S/ip8cvD0ej614Z8PyS+CfFN8NQ0q51CWOxv0mRys6SLtLFGcEDocVm4zc01t19RVI2jrue0an/wVH8TXeg+B9T8P/Cq81yz8a3g0uFxqsEfk3gDlojk8gbG+YcHA9a63x7/wUI1L4c/FjSdF1bwLdWui31/b6TNqb30QaG7l4CLFneyhuNwGD1rmfg/+wT4q8B/CH4VaBdXOkm58DeKJNZuzAxEbwFZgAgOTkb14J7VwfxA/4Jn+PPGH7ROoeJZF8P3kP/CXxeILXV7i6kN4LVZM/ZPLzsUKvAIGTitnZST6dSoWdNN721PvvwpqNxq2gw3F1a/YppGfMO8NtAdgpyPVQD7ZrRrN8Im8Ph63+3wwwXSl1ZIn3qAHIXn1K4J9ya0qAW2oUUUUAFFFFABRRRQAU2X7v406kbt9aAItR/48Jv8Arm38jXzL/wAEmf8Ak2rUP+xl1b/0tmr6a1H/AI8Jv+ubfyNfMv8AwSaOP2atQ/7GXVv/AEtmoA+oKKKKAAjIr5b/AGPPl/bL/aW/7Den/wDpFHX1IelfLf7Ho/4zM/aUHrrmnj/yRjoGtz448WXnw/1XXPjHrmufEzxJYfEzRvENwmhabba/cqxZSvkolsG2MCxxjGCCa+l5/wDgpBrHwlXwzYeKPBN8LGYWWm6jq8lzHGy3sygALCTvZcsuWUYyT6GvUP2a/wBkW1+GWueNNR8QaToWoXmva/PqtrObZJJEjfbtBYgkEYPQ180/HL/gl/48+KXx+1rWvs/h28sbvxVZ67aatc3kv2y2tYTGTaLEDsC/IxBxnJxRo0ovezKlZybXyOf8N+LrHxp8Z4/iV4z0nx8dBfxC2nDXYNdlt7C1kSUpFG1orAFMgAsRgk8179r3/BTm28K+JZpLjwjqH/CEtcy6dZa95yNHd3US5Mez7wBOAGPBOax/FP7GvxC8T6PN8NWi0GH4a3Otrq8+omctfFfNExhEYwB84A3Z6DpVG2/YF8aatr2l+CtUGjN8MNH1mbWI7lZS15chxkQFOgAYk7s859qxle6UdranM5NRv11Pbx+2FYs+ghNIvZm13w9Pr8SxEMwWMA+XgdScgCvKNP8A+Cp0un2XiqHxD4DvdK1nQ7KHUbOxivYrlr2KWQxxlmUkRksCCG6dTWRrf/BLrVPBviPVZvB/jbxNcWV74avNItINXvxMumySH92kICArGBwcknGOa8+8Bf8ABMn4leEI9ems7PwjoMviPw/baFcx29zJcBAk5aWfc5JLOrEgcYJ46Vrpa4qfPyvm3Ppr9kv9srUv2hfHXinw3rvhNvCureGIred0GoxXqTJMCVIaMkA/Kcg81xulf8FLrqX4tSaTe+CZrXwuNZl0VNYGoxSO0sZIJMAO8LlTyRiug/ZI/YVsf2UvjF4y1TQrW1sdB8Q2FjBFEkzySNNCjCR3LEkEkg8HHtXhtr/wTb8YD4y6heL4Y8K2Md/r82pt4oi1OVtQEEjE7BBnYCVO3IGcUqmkko9Vqb7R030PTdI/4Km2Nzq2pTXXhe4t/D7W95Po2pC8ik/tQ2ysWHlg7o87TjI5pnw4/wCCrFjruiQ6x4q8H6p4R0LVdHfWdGu7qRWGoRIAWG0co2TgA8kc14bf/wDBNvVvgT4T8SXC+FPB1vpPh7StUli1tbiefUL4PFIV/dl9kbAnkgHPpWl8FP2LfiF+1Z+zr4LtfGlxo+naDpXhQWukyWchae8kljBV5VI+UAYGB160fYd9w6+R794Q/b81S8trVvE/w91rw02pXdtDZPJKskNxFMcLIHHAIxkqeRmsjVv+CoVtqV54g0/wr4Svtf1LR9aXR7aN7hLaG9JUs0glYhVUAcEnmuS+KH7K3x8+Ovwns/Duqah4Z8MrpNxZpaNZOZ5DHG2JJt5xhinRccHmr+qf8E39S1LxJdaL/wAS/wD4QXVtTs7m/QSlLiWGCIgpkYPzseSCDisafM22++noZ1JSUlbsfQP7JH7Qtz+0f8PLrWL7RG8P31jfy2FxZm5S4CvGBkh1JBHPY16wDkV4z+xr+zjF+zD4H1jw/awW9rp0+sXF7ZQwOzrFE+3AJYk5+U9Sa9mAwK6ZWvoKi24e8FFFFI1CiiigAooooAKKKKACiiigAooooApa5NjSbwD/AJ4v/wCgmvlv/gj5z+yHden/AAlWsn/ybevqDX13aXee8Tj/AMdNfPn/AASw0CDw/wDsq+Vb7tsuv6nOdxydzXDE/qaT1A0P2kf2fPGmu/F3Q/iB8OdS0Ox8RaZaS6dcQ6tEz29zbuQcZXkEMARXxTB8Z/FnwM+ME9z4i1K2TW7/AOIE9ncQ6aXW3u5nsMRoAeSN2Dg9xX6nyrl+D+nSuK1H9m7wLq2trq114Z0q41CK/wD7TSd4yzLdbdvmjJxu28ZpU4qGi2KjNWt/Wh+d198CNQ+Jf7OVzrXi7xZ4wfxJp/jeSxaWy1me1VIpbnmLajAEAHAz0ArH/b08SN4C8aalp/hm58YSSfDS2023ivpPEj28VkZXU4aIuGuSwJySDiv01/4Uz4VfS5rBtFsvst1ef2hLFtO2S4znzDz1zzXN+Pf2Ofhn8T/GkniDXvB2k6prEsKwPcyh9zoCCAwBAOMDBIyMUU2oyTffUino25HxWP2fofhx+0R8QfEOj6z421HUND8Kwa7YWUuvXMlubqYSFz5bOVwewIwMV598IPGHjzw5oWvS3X27Q9K8WeGJr3UZrzxal9cTXJZdssCBy0IJZhgYA4GK/T+z+Ffh+01y51CPS7RL27tVsppQp3SwJnah55AB/WuCsv2CfhDplzqElv4F0dG1aRZbvJkbzSG3DgucAMc4GB7Uae05+nYyrRc42Wh8TeKfCl5+yXZ3/wDwiOreKtSkv/Dul6m1vqGtyzGSeR0LBXlYhAckHoK+zv2SP2otQ+O9xrWk694Zfwzr3h4x+dbC8ju45EdQVdZYyVOc4Izkd67Txz+zj4J+JdhcWuveHNP1KG7tksplkDDfChBVMgggDAxj0qb4L/s8+Df2fNLuLHwdoFrodtdyebKsTO5kbGMlmJJ4HTOKzpRanKT2ewQpyilZ+p3lFFFbGwUUUUAFFFFABRRRQAUUUUAFFFFABRRRQBXk4YnP4V85/E7xtpd1+3N4f06bUbSGTSvD091KrzhAhZyoByQMkdq+ibj/AF/+eK+ctW/4Jq/Dv4h/G/xR428aaTb+KL7XhEsAneWM2aICNgKOAQSc9KxlTUmr+vzFKVuh8seMPGcWu/s4+H/CtnHq2rT674n1aRbXS9bGl+cqSyElrgMMY4OAcmsL4W/A23+N/wAI/gjreteJvGSX2pat/ZF2LTxHcoksMbEBWKuAxGAC3U19j/DT/gml8NfAug6ho934fsdT0N9ZbV9Msn8xV0xmUAhG37jkgk5POa9Y8PfAHwb4V0fS7HTvD2n2dno05u7KGNcLaynq6jPBNaSj7/MZV4ymvd0PzI+OfxY1Dw9+1n4f1fwxdeKVj0v4g6T4Ue+utfPkNE1xDHLALPdlgUc/vCCTknPFfrLZNmNWP8QB/SvMNR/Yq+Fur+PpvFN14K0ebXri5ivXvCH3GeNw8cmN20MGVSCBnivVLcBY/l7AcVSkuWz73NLPmT9F9x8u/sOcftlftJf9hjTf/SU19WV8p/sOfN+2T+0kf+oxpv8A6SmvqykrdCteoUUUUwCiiigAooooAKKKKACiiigAooooAKKKKACiiigAooooAKKKKACiiigBslfFM8Kv+0L8bnK/MPGHhUg/9vFlX2s/SviuUkftB/G738YeFv8A0os6APtaiiigD89f+DbX/lC18B/rrf8A6kGpV+hVfnr/AMG2v/KFr4D/AF1v/wBSDUq/QqgCGaPctNKBKnZd1J5eajld2HmV2Xf+FCLtFTeTyPY04pn/APVT1sBCRuFNCYqfyuPf1xSCDB+9+lK2gFdk7+9Zdt4L0m28RTaxFp9nHqlwgiluliAldQcgFsZIHpW4Y9woMIH5Y6U3FOwEXl7vypVj2/jUgh96cExUtXDpYh8vaPr+lNKYT6VYaLcOv6U3yePvfpTcX0AhEfHXqeasR8IKaIcHr+lSAYFNaMAoooqgCiiigAr5k+Oh/wCNlfwf/wCwBqn/AKFHX03XzL8clz/wUs+DvvoGqf8AoUdAH0m0YIpipvf2qcDJprjb0+lTLVaARPHtHy/WlYHH1p68j/PNKIyw/wB3pS5WTv1Keoabb6vYSWt1ClxBMhSSN1DKwPUEHqKXTLCHS7GK3tYY7e3gURpGihVRQMAAelXDDThH8vWly9A1uRxw8L7fpUirg05elFaFBRRRQAUUUUAFFFFABRRRQAUUUUAN/i/GnU3ZxR5fPWp1QDqKKKoAooooAKKKKACiiigAooooAKKKKACiiigAooooAKKKKAADFQNht386nqPysZ/OpkBVFqpZmVQrOfmIHJ+ppFt1ilYqqgtySFAJPqathMr96kNtubOf0qU3fRgyGJcL/KnMucfWpTBnjNAi+Wq+QBEwRNvpQblQejflTvL560GP/OKNUA0Tqf71OEmRTWhz3pViwPrTVw1EM6j1oF0rH7rUeR70vk8UK4CC4B/haj7QuO9O8rik8rn/AOtSd+gAJwR0al3ZoKUeXQ79AIdUONMuP+ubfyNflr+xNqf7XEXw815fhvD8NW8J/wDCTaqbM6nFK1zj7ZLncQcdc1+pepjdp04/6Zt/I18yf8Em48/s1X/t4l1b/wBLZqoDzb+1/wBvb/nh8Hv+/E3+NH9r/t7f88Pg9/34m/xr7rooA+Ff7X/b3/59/g7/AN+Jv8a8D/Zp1X9s5P2n/je2kQ/C3+2Dq1n/AGx50MpiEn2SPZ5YByBtxnPev1mIyK+W/wBjkZ/bP/aT/wCw5p//AKRR0Ac34V8T/thWmjj+2tH+G91e7iWe2MkaY7DBB5rU/wCEq/asC5/sDwDzz/rX/wAK+oLvUYtNXdPNFEhOAXcKv0yTUkN8tyisrB42HBByPzHWs/i9Sb2Z8uN4p/asBz/YHgHr/wA9X/woXxX+1Zkt/YHgHP8A11fn9K+p2k6CgvtP9KOVPVldkfLA8VftWbv+QD4B/wC/r/4UN4q/asB/5F/wDz0/evz+lfVO+pIwXUE/lT07hZpHymPFv7VoH/Iv+Af+/r/4U0+Kf2rMg/2D4B/7+v8A4V9YGPd36e1OKYo1YmrnyPqmsftS6xYTWt14b+Htxb3CFJInkdldSMEEEcgjIxSaVqn7UWhabDZ2fhn4e29rboI4oo3dVjUDAAAGABjpX1wsOB7nvSiLAp8o9dj5Pk8V/tWEf8gDwD/39f8AwoXxX+1YDx4f8A8/9NX/AMK+rzDn/wDVSeR70aoOlj5Rj8WftXK/y6B4B/7+v/hU3/CXftYf9C/4B/7+v/hX1Use006iKa3A+U/+Eu/aw/6F/wAA/wDf1/8ACj/hLv2sP+hf8A/9/X/wr6soqgPlP/hLv2sP+hf8A/8Af1/8KP8AhLv2sP8AoX/AP/f1/wDCvqyigD5T/wCEu/aw/wChf8A/9/X/AMKP+Eu/aw/6F/wD/wB/X/wr6sooA+U/+Eu/aw/6F/wD/wB/X/wo/wCEu/aw/wChf8A/9/X/AMK+rKKAPlP/AIS79rD/AKF/wD/39f8Awo/4S79rD/oX/AP/AH9f/CvqyigD5T/4S79rD/oX/AP/AH9f/Cj/AIS79rD/AKF/wD/39f8Awr6sooA+RdY8X/tVrp1yH0HwDtMTZIlfIGDntXjv7APib9piH9nmNdF0TwTLYjVb0hppXDbvOO7oOmc4r9D9cTdpV3/1xf8A9BNfKn7Gfxw8O/Af9jMa14kvTZ2S63foixxtLLMxnOFRFBZj7AE0N2AnHi79qxv+YD4B/wC/r8/pSP4t/asz/wAgDwDz0Blf/CvavgZ+0x4T/aJ0me88M30tx9kfZPBcQPbXEB7Fo3AYA9iRg1ctvjx4X1C38SXA1SJIfCEjRaq7gqtsyoHIJ/3SDxQ5aCjqzwkeLv2rUI/4kPgH/v6/P6UJ4t/asZv+QB4B+nmv/hXuGg/tEeE/FPwX/wCFgWWqLN4V+yNei9CHaYlySwGM4wD2rF1n9sr4e6D+z3H8UrnxBDD4JkjWRb8xtghjtHy4zkntjNZ6X8g3SZ5SPFv7Vi8/8I/4B/7/AD/4U7/hKv2rGH/Iv+Af+/z/AOFfSfhHxZZ+N/C9jrGnyGew1OBLm3lwR5kbgMpweeVINaKyk/gMmtLWEmmro+Vz4q/asDceH/AP/f5/8Kkj8W/tWFsjw/4B3f8AXV/8K+pVlyP5e9Pif5v/AK9ZxvfUaldany3/AMJd+1h/0L/gH/v6/wDhR/wl37WH/Qv+Af8Av6/+FfVe4Zoz81aDPlT/AIS79rD/AKF/wD/39f8Awo/4S79rD/oX/AP/AH9f/CvqyigD5T/4S79rD/oX/AP/AH9f/Cj/AIS79rD/AKF/wD/39f8Awr6sooA+U/8AhLv2sP8AoX/AP/f1/wDCj/hLv2sP+hf8A/8Af1/8K+rKKAPlP/hLv2sP+hf8A/8Af1/8KP8AhLv2sP8AoX/AP/f1/wDCvqyigD5T/wCEu/aw/wChf8A/9/X/AMKQeLf2sB/zL/gH/v6/+FfVo6UUAfKLeK/2ru3h/wAA/wDf1/8ACnDxd+1gB/yL/gH/AL+v/hX1ZRQB8nyeKf2rmbJ8P+AuvQTP0/KuN1/Vv25JdYmbTbL4TQ2JbMSTRTNIo9CQQCa+4qKTVwPhA6n+3pn/AI9vg/6/6if/ABpF1L9vT/n3+D//AH4n5/WvvCimHSx8If2j+3oq/wDHv8Hvp9nn/wAaT+1f29Mf8e/weHp+4n/xr7wpsvMTfQ0rID4X/wCCRk/xAn+Of7QjfExdGTxYda0/7SNLVltsfZjt2g85x1r7qr5R/YaGP2yv2kfT+19N/P7Ka+rqd09gCiiigAooooAKKKKACjdSP9yoPtHzdPrQBY3UbqrmU4/woEnzUCvqTB+KPMqLeQKUuSeKnm2GSIwxTt1QpQjcMeOtO4EwOaKhjuMjpUkbblpgOooooAKKKKACiiigBsnIr4rlOP2gPjd/2OHhX/0psq+1Hr4puIFb9ob43NzkeMPCv/pRZUAfbFFFFAH56/8ABtr/AMoWvgP9db/9SDUq/Qqvz1/4Ntf+ULXwH+ut/wDqQalX6FUAFFFFABRRRQAUUUUAFFFFABRRRQAUUUUAFFFFABRRRQAUUUUAFfMvxybH/BS34O/9gDVP/Qo6+mq+Y/jq+P8Agpb8Hv8AsAar/wChR0nbqB9L7trd6SSQYz3ri/j98Ybf4EfCXXPFl1ZzX8OiWzXDW8TBZJgMAKCeASSBzXhPh/8A4KLeIbnVfCg8QfB/xH4Z0fxdcRW9rqc+pwTRoZBlCUUA4OR3rKNSLfKvK5MpKK1PqoSe3X9KdGcmqVtqsNwcLJGzYyQCCQPcVJFqUdw7COWNmX7wDA4+vpW2t7CXQuFsGhm21UTVbeZWZZo2VOGIYEA+9MudbtYOHuIVbI4ZwD/Ogsv7qKp2+pJPjY6txng5yPWrW/ceKSdwHUUUUwCiiigAooooAKKKKACiiigAooooAKaZcNims+0143+1V+1Xcfs7Xfhex03wjqXjLWPFd29pZ2VncpbtuRNxJZgRjFRrdINz2Qz4/pUi9K+ff2f/ANszVPi18Y9Y8D+JPh9q/gTWtK06HUwt7fRXKzxSvIgIKAYO6Nhg17q2r29sreZNEhU4O5wMH8acrrVj5XsWy2D+FKrZNUn1u1EW/wC0Q7WOAd4xn606PUlYH94nAz1HA9fpVak3RcoJwKqDVIyGPmR4XqdwwPrSSapEjiMyR72GQpYbj9KV+g9y2rbhS1Umv1tYd8jLGvcscAfiaRtXgjiV2nhVW+6S3B+hp3uBcAxQTgVUj1GNpNnmIWxkgEdPXFKmqQzfdkRs5AwRzjrQF7FgncPxxTgMCq/2xYydzKMDJ56CnRXHm8hlI6gg8EUroCaimhufanUwCiiigAozRULP83Xp+tTJpbgSNIFNME20/U182/En9u7XvDvx18ReB/Cnws17xtdeG4YZr26tdRht44/MQMBhwSTg16H+zJ+0fF+0X8Mo/EM2j3XhmXz5LeayvJkkeCRGKkFlwDyD0qac07WCWjsepK24fypynNUX1aGBdxmjVT3LjBpz6nFEV3TRr5nC5IGau+oXLmeaKqyajFDIqySxqz/dBYAt9B3pP7SjMbN5ibUOCcjCn0NLmAtM22kD81Tm1SNHVfOhDN0BYZP0FIuu2u7b9og3ZwV3jOfpVAtdi/RVNNXhcttmjbb1AYHH1qeC487p0xmldAS0UUUwCiiigCHUjjT5/wDrm38jXzJ/wSabH7Neof8AYy6t/wCls1fTOqNt02f/AK5t/I18yf8ABJ18fs13/wD2Murf+ls1AH1HRRRQAHpXzF+yHZfZv2xf2ipPlJm1uwbp0xZRivp09K+af2T33ftfftCY7azY5/8AAOOgC3+2F+z9a/Facax4ok17WvCOg2bSHw3o8ssFxfXGeH3RMjkgcBQQPWvn79mv9t/Wvhj4A8Q+FNN8M+ItW1W18RjSvC2ka8/2W7eJ4xIIndiThAGwxJJGMk19IftMfDv4rHxVa+JPhVrWjpqHkG0udM1zzGsHXORKNhBDDp6EV5bqP7Cnjiw+HVr4h0/V9Jvfi9Dr3/CRPc3iP/Z7TtGI2iAB3CMIMDnOee9Zwdr9geisjcv/APgoVrHha8ttF1nwDdab4wutPW5i0p7lSZpjO0WxG7rhd27piqniT/gp1D4X0zRftXheZtX1TxSPDTWcU4YwfcDTEjqoLY9yKrH9iP4g/ELxvZ+N/GevaLN400/RmtrOazhZY7G4855AEycmMqQpzyRmuR8If8ExvGHl6vqmveIdNuvEGoeLbfXLcxxMIbK3QoXjTJzuZlJyfanQ1qPn2JlH3otbX1PaPhH+2D4g8aftCSeDde8Ft4ds76Ke50m5e7WS4uY4WCs0sQ5iBJypPUcivoWKTCfWvlz4Kfs1/EzTv2qpvGXjS68KTafYW8tpZXenQul/fxMxKLc5O3CAkDFfUcQwv8sUuXRWK9CZBgUtNjbcKdVx2AKKKKYBRRRQAUUUUAFFFFABRRRQAUUUUAFFFFABRRRQAUUUUAU9a/5BV3/1xf8A9BNfm/8AsztNcfFn4Mwaptbw2dR19gJQDD9rEo8vIPG7BbH41+j2uybdJu/+uL/+gmvk/wDZB+Afh/8AaA/Y2h0nXoZikeu30sFxbyGK4tpBO2HjccqcZ5FTK6s0g0sXtFT7P/wU91FNDWJbGTweG1cQgBPNFwoj3f7W3OM84r5z8W69dfF/4z/F34O6T9o267r0t/rtxCxX7LYx26EqSOhkbC464zX238K/2OfCnwf8L6jp+ktqzXGrur3mo3F28l9PtIKhpTyQMYA9Cat+AP2TPB3wy8feMPE2l6e0es+Odo1W4ZizTYTYMeg2+lTK7g4v7yo1GtkeFfC3QbXRv+CU97plvGEtbfQLqBEHQKAwAH4V8k+JbsXP7N0nwSkVry105B4jmiIx9mtRAkkIIPVS5I+tfpjbfsweHbPwcvh+FbxNHFlLZG2ExCNHIctkdCeTg9qybn9ibwDJq99fnSf9M1LRY9Anl3kM9omNqZ9Rgc1jKnJ0nHroRG6p8r7ux8s/D79oHxZ4J03Qfhvba5Lb6n4mg0i50N2CboLU26+dGgxyAEY5OcbqxdT/AGgviZpv7TXin4Tx+P5JNN8GW8/iMa2TF9q1FWQutgRs24iL8kDOAuT1r32T9kdfEH7Y3hfXm8PtY6D8O9CfTNMvWmDNdNIFA2gcjYqkZPrXX3v/AAT8+HOo6XBBNp1009ve3F+bsTkXErzgiQM/UqQ2MHjgelbSTaunuvuMqMeWPK+h8h+I/wBuL4i69rXhu+0bX5v+Edi8OXAuHijRm1C+SMMzg4x8p4wOCTXtP7L37Z/iH47/ALRvg3RrjSPFmgae3hA3d3Hq9iLddQuAIv3qHqckk8YGD0r1nSP2A/hzoHg/RdEs9Ha30/QIJre0jRyCFlJL5PcnJ5rvNK+BmgaV4t0XW4bWRdQ0HTf7JtHLkhLfCjaR3OFXn2qqelkzPkm5NvudkGwy8fjU2eaYI8N9BS5571R1DqKKKACiiigAooooAKCcCiigBEOVpaahAFO3A0AFFAOaN1ABRRuzRmgAoozijdQAU2T/AFbfSnbqbI2I2+lAHyr+w2CP2yP2kuOusaZ/6SGvqyvlP9h7/k8n9pH31jTP/SU19WUloKOwUUUUxhRRRQAUUUUARt80bcdq+cfin+3O3ga+8UaVp/h9tV1/StRt9K0uyE4Q6ncTD5Rk/dUHGSeg5r6Pf7hxX5tfHLwbdfDf9p7x/wDGTT47zUm8DazZT6hpxzJE9ns/euidBIFyQR6VnLXYznLld0feHhT4lw3FjpVtr0mm6L4mvbZJJ9K+2JJJFIRkqvOWAORkDnFbr+KtOitDcNe2qwhzGXaVQoYdQTnGfavy7+MXi3w/4v8Aif4m1Rrzzvitf+LdOn8IbHJuZdMYxHMIByYipfJHHWptHHxi1FLWG+HheX4az/Exo5VPnnU2LTEMDzs25JGMdKqppT51vodEaacOY/S7TPi34Y1u9a3stf0a7uEBLRQ3kbuoHJJAJIxVnR/iDouu2MlxZ6vpt1BHIImkiuUdVY8BSQSAc9q/O/x5+zfpfw4tP2htS+H3hqw07xJY2SCymijYNCroTJjbyARknHbNeF+BJPFR+HPin/hD9Y+Htw0r6Ssdp4a+0NZRXf2gZeZiSBIQSCBzxzRTSklftc5Y1LrTufsFefEfQdIs2uLrWdMt7dZDC0ktyiqH/u5Jxn261TufjN4TtL8WkniTRI7qTAWFryMSEkDGBnJzkYr89deT4e6b4y8DWvxQ8vTfBcNpff2z/aD7Lb+2PlJMpJALEZKE8nnFd9B+zP8ACbxZ+078J9a0Xw3Dfabf6dcXEV1dxMZZwmPLck8kAYwT2xipvyvXuVzaH3Tper2urQtJa3ENxGCVLRsGAIOCMjuPStCA5jrk/hv/AMI7Fo9wnhz7H9jW5kEotiCvnBiJAcd9w5HrXV2vEIqo26GhJRRRVAFFFFABRRRQA2U4x9a+I7nU4IP2i/jZCzbZJPGHhbaMdf8ASbOvtyUZFfFM6q37Qfxt+Vcjxj4WAOP+nizoA+2KKKKAPz1/4Ntf+ULXwH+ut/8AqQalX6FV+ev/AAba/wDKFr4D/XW//Ug1Kv0KoAKKKKACiiigAooooAKKKKACiiigAooooAKKKKACiiigAooooAK+Y/jr/wApLPg//wBgDVP/AEKOvpyvmP46jP8AwUt+D3/YA1T/ANCjpO3UDpv+CisbN+x544ABLGx7DJ++teK/tcLJF+y58I2XerJLZkEdRiHrX2R4j8O2PirSZrDUrWG9s7hQskMqB0kHoQeMVi+Nvhjpfi3wY+lS6fZvHFA0doJIgy2zbCqsvHGMjGK5FTak5LujnrUXN3Xax+WvwM1mLwZYfC/xJ8PNc1TV/H3iWfV7XxOhuHmke0jtLt4zKhJChZo4ApwM5HrWx4f1e4+GqW+pfDC+u9Q8ReJPCGoXnitRdO7C7BGx5ASfLYEsBgDp0r72/ZT/AGO/Df7OvhC1H9kaK/ibynivNUgtVSa5UsThmIyR06+ldr4T+Ang3wPqmqXukeGdF0271oH7dLb2iRtdZ67yBzn3roTfNzPtaxpKDaR+X3wbvvFnhD4d+Pv7HtPDmlwXvhSO+lstM8Qy6hJdXxnixPKSB5bHLAgHqTxXZ/FP9mzwl8Wv2RW8TeKbC+n+IUWuafFqbPdyxyW3m3UEZRQrAFDGcA4GQc1+gvhX9mvwH4Et9Rj0XwjoGmR6uwa9W3skjW7Oc5cAc8881sXnww8P3omjm0fT5UuWjeVWgUiQxkFCRjkqQCPTArWnUS3COlT2nysYPwZ+EnhP4UW9lp+gW8dnLY2CWywCdpGSEcgEEk4yTya9Cgb5vrWba+GLG21pr+O1hW9kjETzBQHZQeFJ9B6VpbcNUcybTKhFrRk1FFFUUFFFFABRRRQAUUUUAFFFFABRRRQBXm/1n4182ftgBh+098CcBv8AkN3Xbp+4r6XdAW+tZOseEtO13UrK7vLG1urrTXMlrLJGGa3YjBKk9CRxkVC+NS8wWh+en/BRXx7/AMKs/ax8T66ZLm3isfD2huTDncwF/c/KMcnPTFcvB8Iv+F76Z+0FeeP1vtRuttrq9lAbmVF05ntFKBNpGMAA49c1+j/iv4Q+GvG9/Jd6toOl6hcSpHG8s9skjOsbFkBJByAxJA7Empv+FZ6CJL9v7Jsd2rKEvD5IP2lQMAPxyAvAB7Vc5c0OXqaTqNx07WPzB/aX8K+GPhx8Dfhj4G0zwzHeR3fh6XW3XUdZmtbdJii5lUglpJc8hc1i+FfjJ8YJvh1fTeGdJtfEUN58JrGXU7i+1V7eSzJNyC8YwdzYHseBX6keKPgF4M8bjS11nwxoupf2KB9g+02iSfZAP7mR8vQdPSrGlfB/wvo9nNb2ugaTbwXFqLKREt0VXgGcREAcqNx46cmqjJJNPfQ56UeVwcuh+Tvjb4leJ/GHwc+I/hnTdV1a3lsdD0vVdRuY5nDQxi3jIRW9XYEHHY5rU+I/iLx1qn7VGratNa6Da6vomtWNpomq32vy291FaER/JHbAESK5LAnvk9K/UmP4GeEIIL6CPw3o6w6pEsF4otU23KIAFVuOQAAAD0qtrv7PPgfxF4xsfEWoeFdDvNc04KLa+ltEaeEA5G1iMjHaj2i5Ura9zSPu05Re97pnz3/wUC8vxNB8L9B8WXUlp4H13VEi8QukzRRSgJlY3cEEIWzzkdBXy7+1tp8Mnirwz4V8I/2X4q+Gul6Vc3GnT6z4gksLe0u1fAMcoBMhjXkDJzjvX6feO/hroPxP8OzaR4h0ix1jTJ8F7W7hWWNsHjKkEVzeu/su/DzxD4T03Q77wZ4evNH0k5s7OWyRobY+qqRgH6VjTVt/UzjFrW/Q/Or4dfF3xb8NvixceMNa1STULhvBun6Q4guXlt2eYSiORSQMsWVRnAJzXLfAz4s+Ov2arv4eyabNY69qEd54iFwniDWTZRSDzIiPnYEFhnAGPXFfqpN8EfCM8Hlt4d0lk2xIFNqhAERzGOnRTyPTtWR4p/ZU+HPj+1gg1zwX4b1aO1leaFbmxjkETvjewyOCcDJ74rd1FbRdTSpaUHH0PgL4lftba1+0Prmt2eiR6pomreMvCBnlSN226dFET5sisOOSAAR1yK+7f2LJJpv2VfALXEks0x0W13ySEl3OwZJJ5JNdTpvwY8K6M4a18O6Pbt9k+wFktUVvs/8AzyyB93gcdK6HRdEtdA0y3s7G3htbW3UJFFEoVI1HAAA4AHpWWkU7GPLLmT8i635VJUbHt71JTTubBRRRTAKgmTAbFT1XcsX+pqZB5nyv8C4mj/b9+NxKtzaafgkcH9wK+P8A4x3niLUvCfhXQF0nS9T8KX2s6rNew6nqz6XavOkjmMNKoJyBlgOMkCv1UsvB2m6br17qcOn20OoagFW5uEQCScAYAY9TgcDNYXin4A+C/G3hptH1jwxoupaUZTObS4tEeLzCSS+0jGSSefeuT2LUlJBKTbb8/uPyy8H22m/Efxr4Z0j4ueJootLtfC15PZQWeqSNZlo5CID5p2l2RcAHHJ9ayfEXjD4jfEnRfDEvirTdGvptJ8MW9zo99ruvSaXJbTbgPPRAD5j4CjBzkHpX6JeIf2DvCvij456drl9ofh268L6XpC6dbaRJZK0duwYFWVSMAADHFemeM/2dvAvxHfTzr/hPQtYOkACy+1WaSC0AxjZkcYwOla0bqLvve5movmufEejaX4b+JnxWv9V+MXiBtO8Q+G9M02XQLiK9eLymZAXkgGRvLsADkE4xwM1494q+IetW3wL+IfgSy1bVZLvxn4gu9Rgn85xLDbQysZCrZyBkJkDHWv0+8W/s+eCPHniDT9V1rwroep6hpAH2K4uLRJJLbGCNhIJGMDp6VI/wK8HPP9obw1o7XAEqBzaJuAkIMgBx0YgZ9a0jG0dfIzcGnzI/NzxrFYa3o/iTxFrmp3i/EvwsmjQeD4Wu3WUROg3eUgIDh+dxwcYFb3jr9k3wb4T+OHxa16HSrqz1XTPBcOrwSreTYtruZZPMlVS2AxI9K/QDVf2efBOveJdM1q88K6Hdavo6BLK7ktEaa1UYwEYjIAwOBVX40/BOz+JngLxNY2dvZ2ereIdOawe9MY3FSCFDEckDJ496eIleD5d+hph04qz37nwN+xHpHhbT/H/w1Xw7rl5q0PjDw1PP43M128gkYBTG82Sdj7iQOnAr9L/DcFvZ6Xbw2mPssUSrFg7htAAGD34715b+zt+yP4V+Bvw8tdMh8P6GupS2aW2p3dvaKjX5A5LHGSM8816xptkmnW6QwoscMSBUVRhVA4AA7Yq+a8UrE0YNXbLlFFFBsFFFFAFfVf8AkG3H/XNv5Gvzf/YH+KX7QXh/4U61a+C/hv4T1zw/F4m1X7Pd3mum3lkH2yXOUCHHOe9fpBqQzp1x/wBc2/ka+Zf+CTeT+zTf+3iXVu//AE+zUAZ//C8v2rv+iP8AgX/wpm/+N0f8Ly/au/6I/wCBf/Cmb/43X1h5dHl0AfJ//C8v2rj/AM0f8C/+FM3/AMbrwX9m74u/tKW37T/xtl0/4W+DbjUJ9Uszfwv4hKpbsLVAAp8s7gVAJPGCa/Sry6+bP2S1U/tgftCH01mx/wDSOOgDnl+Nf7VoHPwf8Cev/IzNx/5Cof43ftWOf+SP+BPb/ipW/wDjVfVhcbiSePftRv54OajfRfMD5TX41ftWfxfB/wACf+FM3/xqj/hdX7VjL/yR/wACe/8AxUzf/G6+rl+7SqQBinGStsB8on43ftWBf+SP+BeOP+Rmb/41Sp8cv2rQv/JH/Afv/wAVM3/xqvqzCsfr2pWZVFV0DXqfKn/C8v2rv+iP+Bf/AApm/wDjdH/C8v2rv+iP+Bf/AApm/wDjdfViMuKPMGaLgfKf/C8v2rv+iP8AgX/wpm/+N0f8Ly/au/6I/wCBf/Cmb/43X1dkZpC67sZoA+Uv+F5ftXf9Ef8AAv8A4Uzf/G6P+F5ftXf9Ef8AAv8A4Uzf/G6+ricU3zFzRewHyn/wvL9q7/oj/gX/AMKZv/jdH/C8v2rv+iP+Bf8Awpm/+N19XZoGG470AfKP/C8v2rv+iP8AgX/wpm/+N0f8Ly/au/6I/wCBf/Cmb/43X1h5dHl0AfJ//C8v2rv+iP8AgX/wpm/+N0f8Ly/au/6I/wCBf/Cmb/43X1h5dHl0AfJ//C8v2rv+iP8AgX/wpm/+N0f8Ly/au/6I/wCBf/Cmb/43X1h5dHl0AfJ//C8v2rv+iP8AgX/wpm/+N0f8Ly/au/6I/wCBf/Cmb/43X1h5dHl0AfJ//C8v2rv+iP8AgX/wpm/+N0f8Ly/au/6I/wCBf/Cmb/43X1h5dHl0AfJ//C8v2rv+iP8AgX/wpm/+N0f8Ly/au/6I/wCBf/Cmb/43X1h5dHl0AfIurfGz9qo6ZdbvhD4FVTG2T/wkzZAwf+mVeO/sAfGL9pbTf2eo49F+Ffgu/sf7VvWEsviFo23GY7hjyzwDxnvX6Ia3HjS7z/rg/H/ATXg//BMpc/svRf8AYZ1D/wBHmgDk/wDheX7V3/RH/Av/AIUzf/G6D8cf2rSf+SP+Bf8Awpm/+NV9YeXR5dAHyf8A8Ly/au/6I/4F/wDCmb/43TH+Nn7Vjvub4P8AgXj/AKmZv/jVfWfl0hjzQB8mD41/tWBv+SP+Bfb/AIqZv/jdOX44ftWqxx8H/Av1/wCEmb/41X1eIeen/wBalWLBqYgfKP8AwvL9q7/oj/gX/wAKZv8A43R/wvL9q7/oj/gX/wAKZv8A43X1h5dHl1QHyf8A8Ly/au/6I/4F/wDCmb/43R/wvL9q7/oj/gX/AMKZv/jdfWHl0eXQB8n/APC8v2rv+iP+Bf8Awpm/+N0f8Ly/au/6I/4F/wDCmb/43X1h5dHl0AfJ/wDwvL9q7/oj/gX/AMKZv/jdH/C8v2rv+iP+Bf8Awpm/+N19YeXR5dAHyf8A8Ly/au/6I/4F/wDCmb/43R/wvL9q7/oj/gX/AMKZv/jdfWHl0eXQB8n/APC8v2rv+iP+Bf8Awpm/+N0f8Ly/au/6I/4F/wDCmb/43X1h5dHl0AfJ/wDwvL9q7/oj/gX/AMKZv/jdH/C8v2rR/wA0f8C/+FM3/wAar6w8ujy6APk//heX7V3/AER/wL/4Uzf/ABuj/heX7V3/AER/wL/4Uzf/ABuvrDy6PLoA+T/+F5ftXf8ARH/Av/hTN/8AG6P+F5ftXf8ARH/Av/hTN/8AG6+sPLo8ugD5P/4Xl+1d/wBEf8C/+FM3/wAbo/4Xl+1d/wBEf8C/+FM3/wAbr6w8ujy6APk//heX7Vp/5o/4F/8ACmb/AONU2T42/tWSHn4P+Bf/AApm/wDjVfWXl010oA+KP+CV+veLvEX7RX7RF1420Ww0HX5Na08T2dndG5iQC1O0hyBnI9q+26+Vf2Hhj9sn9pL/ALDOm/8ApKa+qqACiiigAooooAKKKKAGyfcNZM/hyxuPtCtaW7fbBiYGMETDGMNxzx61rt92ognzZpS2Fp1Odj+HGgprVtqB0TSxfWSCOC4FqnmQqOAFbGQMdhV4+GdP2CP7Da7BKZtvljbvzndjHXPfrWkV5/Hmq8+oQ28mHmjjb0ZgufzqHdqw9iqmhWaPO32W3DXQxMRGMyjGMNxzxxzVHR/hn4d8N2Ulvp+h6TYwzOJnSC1SNXcHIYgAAkHnNa39p2rN/wAfFv8A99j/ABpTqlpn/j4g/wC/g/xqtFsTGKSsZmu/DzQfE9m0GpaLpd9BI4leO4tkkUsOjEEEE+/WrkHh6xt3t2js7eNrRBHAVjA8lcYwvHA4AwKuQyx3QzGysucAggg/lUyxYWjlurMoo2Gk2+mIy20EVujMXYRoFDMTknA6knnNaFsP3P40eXupyDC0LR2C1h1FFFUAUUUUAFFFFADXHFfFFwJD+0P8bcEbf+Ew8K5/8CLOvteTpXxTNIv/AA0H8bgfvHxh4WwD/wBfFnQB9sUUUUAfnr/wba/8oWvgP9db/wDUg1Kv0Kr89f8Ag21/5QtfAf663/6kGpV+hVABRRRQAUUUUAFFFFABRRRQAUUUUAFFFFABRRRQAUUUUAFFFFABXzJ8cOf+CmHwf/7F/Vf/AEKOvpuvmb43/wDKS34O/wDYA1X/ANCSgD6XMKsajWAFvp0qUtg0KcmgBvkD3pfKXFOoo8wGtEppPJFPopWSdwGiFQ+6nEZoJwKKYBRRRQAUUUUAFFBOBTdx9KAHUUDpQTg0AFFN30b6AHUUUinNACkZppjBoLYP86VW3UrdQEMKk00QAH8c1JRTAb5K002+T/8AXqSkY4FADTCuKTyAB/KnK2TTqA8xpiyaPJWnUUANEQFAiULinUUANWFV/wDr0oQDtS0UAGKKKKACiiigApvl806ik0nuA0xg0NCGFOoo5UBGLZe/86cIQB3/ADp1FJxT1YEbwbhQLZQKkoqgIxbqKXyB70+igCMwAinKm0fhinUUAFFFFABRRRQBDqP/AB4Tf9c2/ka+Zf8Agk0M/s1ah/2Murf+ls1fTWpHGnz/APXNv5GvmX/gk2dv7NWof9jNq3/pbNQB9QUUUUAFfMf7I1ytz+2P+0VGv/LHWrAH3zZRmvpw9K+W/wBjg4/bN/aSP/Ud0/8A9Io6AIP+CrfxCvPAHwI0Oa38SXnhW11DxLYWV9qNtci2eC3kkw+JCMKMdzXkfw+/ag0X9nL49XkHh/4gat8TfA76ALu9MupJqUlrfGQLDCkqgANJkgKecivoD/goL+zpqH7TPwz8P6DZ6fZ6pDb+I7K+vba6wY5LeN8uCCCDx2PWuc/at/4J9+GvHf7L2qeFfBfhnR9BvZZre/Nvpsa2JvZIHDhC6AEE4wD2zmsaUmnNtddCqiUuVX6am54U/wCCiPh3VvD8txq2i614d1K11KLTrrTb5QLi2aRC6O2OCpUZyKo+Mv8Ago9pXhXTbGa38I+JNYur+Ke8FnaorTx2cTbWuiCf9Xkcdzg186fDz/gnB4m8WeAdRi1TwWvhH+1NesppbVtelvrtreFDukaYnHLE4UduDXb/ABB+A3xc8FeIrbXvDXhXT/EV9/Y1z4SeCS+SBUtnOY7sEg9AxBUcnGe9FnzpeRnG8n2R7Z4L/wCCgXg7xx8WIPCtit40tx4Yj8UpdkAQm3dpFC567sxNkVzfh/8A4KfeG/Hvwv0vxF4Z8M+I/ENxrOo3mnWmlW0YF1L9lcrLLg4AUYJyeorw/Vf+CfvxM8FapbXfh+GxuLy08LaVoQmM4TeRPdm7wMZACTgj1IrJ8U/8E3fF/hz4XeG5IvDE3ia+8O6zqb/2RZ62+mNPBcvlZBMpGCOSQeucV0zUErrvY6KkYpvk8rH194A/bW8M/EW2t5dPgvQZ9Hm1d0ddrQLC5SSJh2cMpGPauT+J3/BRzS/Afg3w/rWn+DvEniS313TJdXZLEJvsreMDc75I4APavD/C3/BLObxTo+jR+JNHm0mPT/Dl5BHaadrU6eRdTSl1R3BBk4IyScE5ry3RH+NljpHirwZoPwnXXtP8FeFh4RF4+spA0c5hEkjgMCWXa6jjqQafs9fd8jGF3FetmfY3xK/4KQeHvh4unyx+H9f1i3msINT1GWzQMujwS4KvN3wAQTjsDVfxN/wUl0nw/wCPLnT4fB/ibUtDspbeG61+2VGsrbzgChPO4jDDOBXzn4X+EXxQ8dfCC01bwl4RhuI/ih4ctNI1cXl6I20B4lELvgjMg2qSAMc4qj8Rf+Cf/wAQdO+Nl4mk+CLrWIZfsCWHiNfEJt7eyMKKpd7TpJgqTg9a5XzRdn3/AAIqcyqabH1brH7fum6H8XtN8NXvhXxHa6bq96dPstcljC2dzOEL7FB+Y5CnnGK6Hwr+2j4Z8VeEfCOtrHeW9l4wM32VpQB5IjBLF/QYBr400z9gz4var+0bouuaxorXh0LxOdRfWZtaeSK7tWRwFjticRlMge9dh8Gf+CU0ngPQvAl3JHqEOvQpew62X1aWa3hWZGAMcZO0H5uwGKJc3sXLr0Ru4xUrNnv3wj/4KAaD8WPiza+F10PXNJj1hJZNG1K6UC11YREB/KI54znB6ivf45W3/h19a+Kf2df2aPiXafGPwPpviXQbHR/CnwrS4Flqcd2JZNbZ/lQhAMxgKTkEnJxX2tEmT/P3qoX5Lvc5YuXM0/kTRyl2qSooxtP/ANapauOxsFFFFMAooooAKKKKACiiigAooooAp61/yCrv/ri//oJrwf8A4Jkf8mux/wDYZ1D/ANHtXvGuNjSrv/ri/wD6Ca8H/wCCZH/Jrsf/AGGdQ/8AR7UAfQlFFFABRRRQAUAYNFFABRRRQAUUUUAFFFFABRRRQAUUUUAFFFFABRRRQAUUUwyYFAD6KbG+8U6gAooooAKQrupabLJ5fagD5X/YeGP2yv2kv+wxpv8A6SmvqqvlT9h9s/tlftJf9hjTP/SU19V0AFFFFABRRRQAUUUUABGRTdlOooAa0fy1/Oz/AMHYH7YfxK/Z2/bX8L6b4L8Xax4fsbvQvNlhtZyiu3mEZIHfHFf0Tv8Adr+dj/g6+/Y7+Jn7Rn7bfhfUPBfg/WvEFjZ6EIZZrSAyJG5kJwSO+OaAPyt/4enfH7P/ACU7xP8A+BRoH/BVD4/Af8lO8Tf+BTf407/h1d+0B/0S/wAUf+AjUf8ADq79oD/ol/ij/wABGoA/pi/4NlPjD4m+On/BMfRde8Waxea5rEup3SPc3MheRlD4Az6AV+ikP+r4r86v+DZb4PeJvgV/wTG0bQPFmj32h6xDqd07211GUkUF8g49DX6KQf6sUAPAxRRRQAUUUUAFFFFABRRRQA16+KbiFW/aG+NzHqPGHhUj/wACLKvtZ+lfFNxMV/aF+Nq7Tz4w8KjP/bxZ0AfbFFFFAH56/wDBtr/yha+A/wBdb/8AUg1Kv0Kr89f+DbX/AJQtfAf663/6kGpV+hVABRRRQAUUUUAFFFFABRRRQAUUUUAFFFFABRRRQAUUUUAFFFFABXzJ8dW2/wDBSz4O/wDYA1T/ANCjr6br5j+Ouf8Ah5b8Hv8AsAapj/vqOgD6UluAB16UJPx1/IVxPx9fxhH8PbhPAq6WviCR1WKbUcm3tlz8zsoILALngEV4n+z1+2JqWk3XjzTfiZrnhm8XwKIprnXdIRksnSQZ2BSzHcuMEAk57VMXdNsOlz6k+0rt/ioMgxmvF9C/b6+EniXw/pWqWfjLTZLPXNTGjWTElDNdsCwiAIBDFQTgjtXUah+0n4J0zxRrujT+INPj1PwzYrqOpwF/mtIG6O3oD29aHdK7Q0r7Hf8An89TilM2PXmvIvhx+2x8Mvi4LH+wfFVhfPqV41hbRjcjyzKhkKhSAfuqTnGCAcVP8Q/20Phr8KvDB1jXfFFnZ6f9sbT/ADMM589SQyYUE5GDk4wMVMm7ais3seqST8cUJceYPcVxfhj49eEfGkFjLpetWd3HqVgdTtijZ823BwXHsCCKp2n7Tfga90rUL6PxFp5tdLtftlzIXwsMWSN5J7ZUj8KTkk7MD0ATbd3tThNk9+TjmvNR+1V4APhG81v/AISbTRpWnpFJcXJkwkayAGMk+4Ix9a67wn4+0rxnd3EWnXS3DWojeTAPAkUMhBIwcqQeKqO7RCknszoqRjhaWqes3w0zS7i4ZZJFgjZyqDLNgE4A9TirLHm5yM/pSNc/L+NfMv7Gf7ZHiT9pX45/FTw/rHhuTw3ZeDL21g0+GcH7TNFLCH3uM4GSSQOwxVf9sT4y/GH4Dy6n4y0xvCcPgPQXgM9ldRO99qKFwJNjhwFYgkAEHJx605wcJJSJ5rNrsfUbT7VzmgSsRx/DXm3xY8SeMNS+DUd94Fi0uHXb+GOWKXUyTb2isAWdwCCwC54yK479hb9ojxF8c/DPiKDxN/ZV1qnhjVZdMl1DTAVtL4pg7kBJI64IyelRzp3S6BzLRvqe8+f8tNNxyefp7186+Lf2x7y1/bi8N/DHSrGOfSru2lk1G9OT5cqrkRKc4zjBPsai/bR/aB8YfDv4neBvCHg3WfCfh+88UfaZp77XkLwRxwoGwAHTkk4HNZxqc65l3sV9px8rn0ks+1fvUpudrdenWvJ/iT8Yr34D/stah4w8QXOn6xqGj6eZ5ZbNSlvcyHhSgJJCkkdzxXN/sgfEX4j+PI7yfxpeeEdVs7iGO4tpNFfDWjMCTBKpdiWAI54z6Vd3flsS5WSZ7zJcMTkevTFL5/OS1fJf7ZPxN+O3we8Z6TN4Q1zwPdaf4j1SDTtN0m70yV7uQkgyEuJAMBcnOMDIr0f9rf4z+Jvg78KtDk0htNt9f1u9g043t7GWsrFnABlkAIO0HPUj61PNpzMbdnY9vW43DO6j7T8ucmvCf2Qv2gNe+KPwS1zVvFEdjNqXhy+urKS7sEK2uorD0liBJO0jjqeQa81/Zv8A2xfHvjnxb4X1fxNN4aXwf8RLi4ttGs7ZGS9smjYgCRixDkjsAMYq72dmK75eZn2AtxkdeDQ1wGX5f/1V88/t0/tba7+zDoehjQfDc+s3Gr3kUM126E2thGXClnII554HfFcL+1J+2j428DfFe60PwfDo62vhDw/D4n8QyXsLyNPbyO48uIggKwEbHJz1FEZOTsu9itdz7CgkyetTVz/w28XweP8AwTpOtW6/uNWtI7tAewdQwH610AGKrXqJO6CiiigYUUUUAFFFFABRRRQAUUUUAFFFFABRRRQAUUUUAFFFFABRRRQAUUUUAFFFFABRRRQBX1L/AJBtx/1zb+Rr8w/2Hf2ovj54A+G2vaX4P+BN34u0O38TaqINTTV7aFZwbyUkhXcEYORyK/TzUv8AkHXH/XNv5Gvmf/gk2uf2atQ/7GXVv/S2agDhf+G1v2pj/wA2x6h/4P7L/wCO0f8ADav7U3/Rseof+D+y/wDjtfbVFAHxKf21f2psf8mx6h/4P7L/AOO14D+zF+1r+0Tpv7UXxyvNO/Z8u7/Ub/VrJ9QtRrVopsHFogCEmQBsqAcjPWv1YIyK+Xf2NAB+2d+0kPTXNP8A/SKOgDgT+2t+1ET/AMmx33H/AFH7Pr/39ra8H/tXftJeI/ON98AJNH8sjaJ9Ztn8wnOcbXPTHf1r6A+PH7R/g/8AZp8Lx61401eDRdNmmW3SWUFt8hPCgAEkn0Armfgj+3V8Mf2jPFM2i+D/ABNBqmqQRee9uInjfywcFgGAyM4HFGr0RMpJbnBn9oX9oA/80bt+nbVYeP8Ax+m/8NCftABh/wAWbt89P+QrD0/77r37x38StJ+GXha61rXryLT9NskLyzOeFA9AMkn2HNcv8Cf2rvAv7S1tfTeDdYXWI9NcR3DCF4/LYjIHzAZ4HapV3t0Ds3seVv8AtCftAK3/ACRyD/wawn/2egftCftAN/zRy3/8GsP/AMXX0u+oKyY20i3qr2o5UkDfmfNP/DQf7QCc/wDCm7fn/qKw/wDxdV7b46/Hi1eYp8FbNWnO6QjU4AXOMZOG5OABzX0/JqK/3fakN8p6A8n1o95bFeTZ8zWvx8+PtlAsMPwXtIo04CJqcCqB7APxT/8AhoT9oEf80bt8/wDYVh/+Lr6W+3heffnFOjv1kk27fbrSe9hXv6nzSP2gv2gSB/xZy39/+JrD/wDF0h+P37QTD/kjdvj/ALCsP/xdfUUBBY/lUtNWGfLI/aB/aCXH/FmrfjpjVYf/AIunJ+0L+0Fj/kjdv/4NYf8A4uvqSgDFUB8ur+0N+0Iv/NGrfjp/xNYf/i6d/wANF/tCf9Ebt/8Awaw//F19QUUAfL//AA0X+0J/0Ru3/wDBrD/8XR/w0X+0J/0Ru3/8GsP/AMXX1BRQB8v/APDRf7Qn/RG7f/waw/8AxdH/AA0X+0J/0Ru3/wDBrD/8XX1BRQB8v/8ADRf7Qn/RG7f/AMGsP/xdH/DRf7Qn/RG7f/waw/8AxdfUFFAHy/8A8NF/tCf9Ebt//BrD/wDF0f8ADRf7Qn/RG7f/AMGsP/xdfUFFAHy//wANF/tCf9Ebt/8Awaw//F0f8NF/tCf9Ebt//BrD/wDF19QUUAfKes/tEftBHS7rd8HLdR5TZP8AakPAwc/x145/wT6+O/xz0n9niOHS/hPDqFr/AGresJTqcS/MZiSMFgeDxX3/AK+2dIvF/wCmT5P4GvA/+CXWpQ6n+yyjQSLIseuajE2OgYXDAj8DQBl/8NF/tCf9Ebt//BrD/wDF0f8ADRf7Qn/RG7f/AMGsP/xdfUFFAHy//wANF/tCf9Ebt/8Awaw//F0f8NF/tCf9Ebt//BrD/wDF19QUUAfL/wDw0X+0J/0Ru3/8GsP/AMXR/wANF/tCf9Ebt/8Awaw//F19QUUAfL//AA0X+0J/0Ru3/wDBrD/8XR/w0X+0J/0Ru3/8GsP/AMXX1BRQB8v/APDRf7Qn/RG7f/waw/8AxdH/AA0X+0J/0Ru3/wDBrD/8XX1BRQB8v/8ADRf7Qn/RG7f/AMGsP/xdH/DRf7Qn/RG7f/waw/8AxdfUFFAHy/8A8NF/tCf9Ebt//BrD/wDF0f8ADRf7Qn/RG7f/AMGsP/xdfUFFAHy//wANF/tCf9Ebt/8Awaw//F0f8NF/tCf9Ebt//BrD/wDF19QUUAfL/wDw0X+0J/0Ru3/8GsP/AMXR/wANF/tCf9Ebt/8Awaw//F19QUUAfL//AA0X+0J/0Ru3/wDBrD/8XR/w0X+0J/0Ru3/8GsP/AMXX1BRQB8v/APDRf7Qn/RG7f/waw/8AxdRS/tFftCBW/wCLN2+QMgDVYeT6ffr6lpuygD4ob9tH9qSKRlX9mW+kCkgMNfsgGGevMvek/wCG1f2pv+jY9Q/8H9l/8dr7YUbadQB8S/8ADav7U3/Rseof+D+y/wDjtH/Dav7U3/Rseof+D+y/+O19tUUAfEv/AA2r+1N/0bHqH/g/sv8A47SP+2r+1Ifvfsx34+uv2X/x2vtuo5hkrQB8P/8ABJjxx4r+Ifx5/aG1Txp4Xk8G69NrenibS3uEuGhAtjg7kJBz7GvuSvlT9h3n9sj9pL/sMab/AOkpr6roAKKKKACiiigAooooAKKKKABulUp9It7pjJJbwyMeMsgY/qKu0UAVF0Sy2/8AHpb/APfof4Uv9h2f/Ppbf9+h/hVqigCvDZR20e2ONI1B5CjaP0qaJdqU6igAooooAKKKKACiiigAooooAbLx+PFfFczZ/aA+N3/Y4+FgP/Amzr7SnGVH1r4ju4br/ho341NHJGIR4w8LbwQSx/0iz70AfcFFFFAH56/8G2v/ACha+A/11v8A9SDUq/Qqvzz/AODbdsf8EWvgP9dcz/4UGpV+hQfmgB1FFFABRRRQAUUbqKACiiigAoo3UgbJoAWiiigAooooAKKKKACiiigAr5j+Ohx/wUt+D/8A2ANU/wDQo6+nK+Y/jsNv/BSr4P8AqdA1X/0KOgD1z49/FBvhH4Im1htB1LxBZRsEu4LFQ8sURyGcJ1YAdhyc1+evxDm1Q6H488V/CXwfrGieCNTurFLiOfR289ZfNHnXUVq4yzKpJweCa/UB1Vuq7u3NMFujx42KB3wBzWVnfXYL6W9D8ePCX7P/AIw8Z+I9PmudJ8Samg+Ir61Be3umfZXlRNGuTFKY14QeaEGB0JA613Ev7PnxA+J1v8UfFP8AZ+raTrni3w7bStKLbdKY4L1SIwpwCwjUnaeuAO9fqglrGDkKOOnApUs48N8qr68V01Kt428lYvmaSt2sfmB8Ff2YPGHxX8Q3HjzwLr+tap4u8LT20ljJ4t0MaNp87iJ4pI/LjJc4R2G7HJxXO+ItM+LXhPwfoth4m0+50G61XVtXa/v9B0Q6oBcO/wC7iRZACsUgJ/eHpgV+sDWyRsNqqM/hSGFCvzIrc4GRXNUjzNPsFOXLoz8y/gB+zV8SfFHgP4fWum+IfEXgG60zwleQ3k50tLiSdjcSERMrkBSQc8etYvgz4BePPEiXHgu90XV20i78KedquovEY/tLwzzFYQB/E7FSQOME1+p6W67vu47YAoW2RF4VfyqKlLmkpPvcx5XrbsflXYfs7+M/HXhXxV4bufDWqWvh3TdIsb9MxlfttwkQWOELjkKQSR6gV+kHwQ1i2m8M6fpa2txb32l6faRXZeAplvJXgMfvY6H0PFdn9nVDwo+YdAKfBAqvu2/MepxWyepnTouNtS1UdyA8RB6YqSmyDK1RufK/7LfgvVdC/bp+Pep3Wn3Vvp2qXGmNZXDoVjuQtoqsVPQ4YEHFeVftaftF6V8Rf2rY/BPjjQfG0fgLwhPBebLDRprmHW7xWEke51GPLjYKSO5HNfeYj2Pu2jPrim/ZYzNnapY9TgVNSTnJSfQlLe/U89+NfxZtPhT8IG16TQNU1zR/KRJ7WzgLzpA4AJ8vqQAeQOa8L/4Jy+Gbv7Z8S9c0LR9Q8M+DNfvw+gabewG3aJgmJJQh5UOxBwfQ19cS26+XtZQynsRRb24T7qqvsBgVny+9zd1YJRukvO5+dXh34EftEeAv23/At5rGn+Ab7RJL+9uZ9Rs3uGn8qTP+sJXAcLgAZxxXtH/BQjwz8NZ/E+h6v8QfAOueLprWynttMuLK2e6jt5ZARtKLyCeMMeBX1WVUH7vzZ9KJLVZGyVDY55GaUY2jyR73BRalzPqfI7/AHxX45/4Jb33gu5+0/wBuX+mObeCVv3sUfmb44snkEIAKw/2A/B1r/wAL31LVvCOg654Z8M22kQWWpw3tu9ut7fqSGdVb7xHOWHByPSvtYxqIyu3aOmKI7ZY87VVc9cDFa6uVwlrFJ9/8j5z+IfhjUPH3/BQTwb9osbn+xPBmhT6jBclD5L3Fw/llfTcFiB9QDUH/AAUc0q4u/CXhK/utNvta8HabrAl8R6faQmaW5tiuANg5YBuSB1FfSRgXzM7VycDIHNK0SMMMMrjoRxWbjpyrvcpW5uY+af8Agnvpepf8K+8aXL6bdab4N1PWZZfDOmXcJhlgsfKQbCh5UFw5APQEV4R8KPgn4X8bftl+GYvBnhXxtoKeD9UudX1tdXMi6fZuSAiWuRsO5gSdvGCK/Q0QKibVUAZ5wOgpEiSM/Ko5HJxyaqp70uYnl9zll1PCf+ChfhbUPFn7PElrpVnPfXY1G0fyoULMAJQScDnAArwD9sTw9r/gr41eJpF0fV9StPif4LtfDenPY2hmFtdq8u4ykfdXbKpyeODX3wyAnkde2KjmhUruZQcdOOlOEnGd18w2jp8jnPgX4Sm8B/Cjw7otywa40vTYLaUjoWRADj8RXY1XtFAPAOPerGeavmu2xxVkFFFFAwooJxSBgaAFoooPSgAopo4P3qdnmgAooooAKKN1G6gAoo3UA5oAKKKKACigHIooAKKKKACiiigAooJwKbvoAdRRRQBDqP8Ax4Tf9c2/ka+Zf+CTP/JtWof9jLq3/pbNX01qRxp8/wD1zb+Rr5j/AOCTZ/4xq1Dnj/hJdWP1/wBNmoA+oqKQNkUu6gAr5f8A2NR/xmn+0p/2HNP/APSKOvqCvl79jTn9tL9pP/sOaf8A+kUdADf+CitlDf6z8I4Zoo5on8Z2oZHUMp69QeK4H9rJtQ+HX7Ttnqng+C1sdU03wld3arFAoEwSWMshAA6qCM9q+n/jJ8D9L+Ml74dm1Jp/M8N6nHqlsI225lTOAfUc9K5f46fCqzhvb/xwul6jrWtadolzp8FhakFrlZACVAJAJJA6kUcyUNd/IwlGTnc+OPjj8dPHP7Si6O2j31pZ6DceLtM0qxkkQSQh2tzJNKezYZiAp4yozU+vfGT4lfD3xxqXwhs/GUNprNrrOnxjxPbaVEs0sFyrEo0IITcu0jOehr3j9mX9hnT9L/Y0s/BOsWd3pNxf3EmqkpL/AKTptxI5cFXycMmQAQSB0q94I/4JpeGPCPi3S9eu9b8Ra1rFhd/bZ7m9ufMk1CQDEZl4H3BkADGMmpd3FL5suUm6TS32Xl5nh/w4/bO8bfCi/u9L8XeKv+Ek/snX9Q0oXctqtvLf7LaCSFNqkgMXlI468Vi+EP28vihqujeH9J1TULez8Q+JWvrZJ1tswWTpdNGjsTwNqYHPUivp3UP+CdfgbVPHNr4gvIby6uLPXJdfSKSQmP7RJFHESV7gCJSB2PNXrP8AYP8ACFs1xujupftKXSkO+QhnkMjEehDHIPbArOcZNxku9zno05qLg9+jPlz9sT9tLxd8HPjBBpelfEC+ln8Prp8Vxp1rovm29+0hAkNzOTiInqAM9a9C1j9rjxnD+zR4h8SR30MepWfiuDTYH8oFUgeeNSuO/wArEZrrvHH/AASq8H+P/Ft1ql9rXiXy9RitVvLRLrbBdy2/+rmfjJcYHOcHHSuE/aa/4JZSaj4A8TXPhnxt46SS4nXVINDt7xBay3SEMuFI7soPWiPMleXc6KceWrzS2t+Jympft9fEDUvE3hvR9JvLWa4PjiTTtXlMQ2x2fmlI4hjgMcDnrjmsL4NftkfEW8/a+8KaDrXjjVrq61TXrvT9W0BNGUaXZIgcxrFdg/O20KSMcEkV9G/B/wD4Jx+FPDnw7gWYalDrGqarF4kv5zNmY3u0EjPIADE8Diuy8E/sOeE/A9n4ThtWvHbwrqM2qQyvJuknnl3b2kP8Wdx/IV3XjovxHRd6Ovxa/ce5WByv4CrFV7BQqnFWK59yo36hRQTik3DNAxaKN1FABRRRuoAKKQ/N3paACiiigAooooAKKN1FAFPXV/4lF5/1xf8A9BNfMP8AwR2bP7IVx/2NWs/+lb19Qa1/yBrv/ri//oJr5f8A+COf/JoV1/2Nes/+lbUAfVVFFGcUAFFIGBP0pQc0AFFFBOKACigtg0UAFFFBOKACijdQTigAooo3UAFFFFABRRRQAUUUbqACiiigAoo3UZyaACiiigAoopC2DQB8rfsP/wDJ5X7SX/YY03/0lNfVVfKv7D3/ACeV+0l/2GNN/wDSU19VUAFFFBOKACikVtwpaACig9KQdetAC0UZ5ooAKKKN1ABRRuo3UAFFFFABRQTgUA5FABRRRQAUUUUAFFFBOBQA2TkV8UzTKn7QfxuXd8x8YeFcD/t5sq+1m+aviqeNW/aD+NzFRkeMfCpB/wC3iyoA+16KKKAPzX/4IA+INS8J/wDBB/4N6lpOkTa7qFnFrrwWEThGuWHiDUvlDHgH3Ne9r+2j8Yowzf8ACgdb45/5CcNedf8ABssM/wDBEP4J/wDcd/8AT/qVfeWKAPlVf21/jGy5/wCFAa383T/iZw/40L+2r8ZD/wA2/wCuf+DOGvqrFGKAPlU/ts/GJWCn9n/XMnp/xM4aP+G1fjGQf+LAa5/4NIa+qsUYoA+UbX9tr4wXUYZfgDrm05xnU4c09f21fjEH2/8ACgdczjP/ACFIen519V4oxQB8ryftr/GKNc/8M/65/wCDOH/Gg/tq/GLHHwB1v/waQ19UYoxQB8pr+2t8YnZv+LAa5wcf8hOH/Gm3H7bXxhttu74A6587hRjU4e/419XYpNoPYflQB8sH9tb4xAf8kB1z/wAGcNIn7a3xilUMvwB1zB/6icNfVOKMUAfK5/bV+MQ/5oBrn/g0hpj/ALbPxjQ/8m/65ycD/iZw19V4oxQB8r/8Nq/GL/ogOuf+DOGoLf8Abb+MM5bb8ANcOxip/wCJnDnIr6vxSbQOw/KgD5Uf9tr4xA4/4UBrmSMj/iZw0SftqfGMKWPwA1zgdtTh/wAa+rMUYoA+VY/21fjIY93/AAoDXOef+QnD/jXj/wARvjJ8a/F37W/gXxvH8CdajtvDOm3llLAdRiLSGYqQQRwANvf1r9CsUbR6UAfJ91+2t8YLW2MjfAHXNuQONThzyQKeP20PjFlv+LA65/4M4elfVm0HsPypcUAfKaftp/GJgf8AiwOucHH/ACE4f8aVv20fjEG/5N/1z/wZw/419V4oxQB8pzftpfGJF3N8ANc4/wConD/jTf8Ahs74xMB/xYHXMgZH/Ezhr6uxRik1cD5Ng/bY+MUk8iD4A65mMjP/ABM4e44qWT9tT4xKw/4sDrnzHH/IThr6txRin0A+U5P20fjEf+aA653/AOYnDTYP20vjGyg/8KB1z1/5CcP+NfV2KMUAfKq/ts/GIvtPwA1vdjP/ACE4f8abc/ttfGGK3dj8ANcwoJP/ABM4e1fVmKTaD2H5UAfKS/tqfGKWJT/woDXMMMjGpw9PzoH7anxidtv/AAoHXPlP/QTh/wAa+rsUYqe4Hymf20/jF/0QHXPT/kJw/wCND/tn/GJI8/8ACgdc9cf2nDX1ZijFNKwHymP20PjFIqt/woHXOe39pw/41G37a3xg+1mP/hQOuZ2bv+QnD06etfWGKNo9KErAfKL/ALaPxhUc/AHXPT/kJw9fzp4/bP8AjFj/AJIDrnt/xM4f8a+q8UYpgfKMf7aXxiPT4Aa5wcH/AImcP+NH/DaPxiDc/AHXMkcD+04f8a+rsUYqeUD5Rf8AbQ+MIUt/woHXOBz/AMTOH/GmWn7a/wAYbiFZF+AOubTzzqcNfWOKQKB2o5QPlMftqfGJ5Nv/AAoDXMgZ/wCQnD/jSSftn/GLB3fAHXMf9hOH/Gvq7FGKfKgPlOP9tH4xJz/woHW8dP8AkKQ0L+2t8YpE3D4A67yen9pw19WYoxTA+Uf+G2/jDFcJG3wB1zc4JGNTh6D8akf9tj4xIpP/AAoDXOP+onDX1VtHpRigD5UP7avxjccfAHXPUf8AEzh/xpI/21PjEzED4A65kHn/AImcP+NfVmKMUAfKz/tr/GJCM/AHXPmOB/xM4aD+2r8YiP8AkgGuf+DOGvqnFGKAPlG2/bZ+MVwX2/AHXMKxU51OHqKcf22PjEJQP+FAa5yM/wDITh/xr6r2gdh+VLigD5W/4bU+MWP+SA65/wCDOH/Gl/4bW+MRH/JANc/8GcNfVGKMUAfKcf7a3xifd/xYHXPlOD/xM4f8abL+238YYXjVvgBrn7xtoxqcPX3r6uxSbQew/KgD5Wf9tP4xKuf+FAa5x1/4mcP+NEX7a/xiaMH/AIUBrnPP/IThr6qxRigD5V/4bZ+MTSbR8ANc6Z51SGiT9tb4xImT8ANcx3/4mcNfVWKMUAfKp/bT+MfT/hQOuc886nDTIP22/jA8ki/8KA1zdGQDjU4etfVuKMUAfKr/ALbPxiUr/wAWB1zk/wDQTho/4bV+MX/Rv+u/+DOH/GvqrFGKAPlb/htb4xf9G/65/wCDSGkX9tn4xEsP+FAa58vX/iZw19VYoxQB8pXX7bnxggjDN8AdcA3Af8hOHvTx+2j8Yj/zQHXPw1OGvqnaD2H5UuKAPlSP9tj4xSL8vwA1zjjnU4aU/ts/GISBf+FAa5z6anD/AI19VYoxQB8o3v7aPxims5k/4UDrgLqRn+04eMjFeFfsc/Hz46fs4/DC88Pzfs+eINSZ9Xvb0TJqMSKRNO8gAB54DAZ74r9I8UYoA+NV/wCCgfxsMvl/8M3+ItyjJH9qQcClk/b/APjYg/5Nt8RckAf8TWCvsnaPSjFAHxwf2/Pjbj/k23xJ/wCDWCvJvgd8d/jx8K/jn8UvFk37PeuXEPj/AFG2u4IU1OHdbCKBYiGJ6klSfxr9IMUYoA+M/wDhvv4278f8M3eI93/YUgpJv2+fjZCjSN+zf4j2qMn/AImkHSvs3FIVBHT9KOtw6WPjRP29/jYBuH7N/iMqwBH/ABNYKRf2+vjZI5/4xt8R/KcH/iaQV9m4oxQB8Zyft9fGwt837N3iMZOMf2rBSH9vb42f9G3eI/r/AGpBX2bijFAeh8Zr+3x8bGX/AJNu8R+v/IUgpj/t+fGoTiNv2b/Ee5wSB/akHIHvX2ftxTSoP/6qOtw8j41H7fXxsijz/wAM3eI9v/YUgpy/t8/Gwj/k23xF7f8AE1gHH519lYoxRsLlR8ax/t8fGxM/8Y2+I/8AwawUH/goD8blO3/hm3xFuIz/AMhWCvsrFGKBnxuf2/vjcB/ybb4j/wDBrBTYf+CgXxsnCsv7NviQqRkH+1IK+ysUgUDtQB8cD9v/AONrOy/8M2+Ity8n/iawUN+3/wDG1Bz+zb4j64/5CsNfZGKMUAfG4/b9+N2P+TbfEX/g1gpI/wDgoB8bZEP/ABjb4k4OP+QrBX2TijFAHxpL/wAFBfjZE6K37N3iTMjYH/E0g608/t/fG1Bn/hm3xJxz/wAhWD/Gvsfb7D8qXFAHxuv7f/xscZ/4Zt8Sc8j/AImsNA/b9+Nx/wCbbfEf/g1gr7IxRigD42f/AIKAfG0Db/wzb4j54H/E0gpR+358bsf8m2+I/wDwaQf419kYoxQB8aRf8FBPjZOrFf2bfEnBK/8AIUh6jg0o/wCCgPxuV8f8M2+JNx5x/akNfZO0DsPypcUAfGeo/t7fG66sJ4/+Gb/ES+YjJn+1IOMgivJf2Jfjb8ev2WPgrL4XvP2e9c1KaTWL7UhLFqcKqFuJjIFwe4Bwa/SbFGKAPjUft/8AxuY8fs2+I+Dg/wDE1g4om/4KC/Gy3UM/7N3iJVJAyNUgPJr7KxSbQew/KgD44T9v743Dd/xjb4i9f+QrBzSJ+3/8bZBuX9m3xF6f8hWCvsnFGKAPjf8A4b++Nm7H/DNviL/wawUP/wAFAPjbGPm/Zt8R8nH/ACFYa+yMUYoA+N/+G/vjcR/ybZ4j6Y/5CsFMj/4KCfGyV3Vf2bfEeYzg51SD0zX2Xik2+w/KgD43b/goB8bFbH/DNviPJOB/xNYKU/t/fG5Vz/wzb4j9x/asFfZGKMUAfG6ft/8AxtZd3/DNviL1H/E1g/xpP+G//jcz/wDJtviPcOo/tSCvsnFGKAPjWf8A4KBfGy3haRv2bfEm1Rk/8TWCnJ/wUA+NzLn/AIZt8R8j/oKQV9jlQe1LigD42T/goB8bTlR+zb4j44P/ABNIKU/t/fG4f822+Iv/AAawV9kYoxQB8bv+3/8AG1Fz/wAM2+JOP+opBQP2/fjcR/ybb4j5/wCorB/jX2RijFAHxqP+CgnxsM7R/wDDNviPcoBI/tSDvTn/AOCgHxsQDP7NviT5jgf8TWGvsjaPSjFAHxuP2/fjcB/ybb4i/wDBrBQv7f3xuZcj9m3xF/4NYa+yMUYoA+Nz/wAFAPjar7f+GbfEW48j/iawUkn7f/xuRWb/AIZt8SYGSf8AiaQV9k4oxQB8axf8FAvjZNErr+zd4j2MMjOqQA0D9v8A+Npbb/wzb4j3Dr/xNYK+yQoHalxQB8bn9vz43D/m23xEf+4rBR/w378bgSf+GbvEXAz/AMhWCvsjFGKAPzl/Zh+Mnxv+H3xp+K/i25+A+uNF451C1uIYDqEStAIYTGQSeDknORXtn/DbXxhFyI2+AGubtu8Y1OHp0/rX1dijaPSgD5Vf9tn4xIuT8ANc/wDBnDQf21PjE3/NANc9f+QnD/jX1VijFAHynD+2p8YmOB8Adc+U8/8AEzhpz/tsfGJGGfgDrnJwManD/jX1VijFAHysf21fjER/yQHXP/BnDUNl+2z8YrhSy/AHXNoJHOpw9jivq/FJtA7D8qAPlT/htj4xeft/4Z/1v1/5CcP+NP8A+G1vjEo/5IBrn/gzh/xr6pxRigD5WP7avxiI/wCTf9c/8GkNMj/bV+MTjP8AwoDXOpH/ACE4a+rMUYoA+UJP22vjFFLGrfAHXMyEgY1OHsM81JL+2n8YkXP/AAoDW+B/0E4a+q8UYoA+VY/21/jCYx/xYDXOn/QThoH7bPxiLlf+Gf8AXOP+onDX1VijFAHypJ+2t8YkXn4Aa5yQP+QnDSt+2n8Ywdv/AAoHW+vX+04f8a+qsUYoA+Urf9tv4wStIB+z/rn7ttp/4mcPWnv+2z8YlYD/AIUDrnzdM6nDX1TtA7D8qXFAHyr/AMNrfGPH/JANc/8ABnDTv+G1fjF/0b/rf/gzh/xr6oxRigD5VT9tj4xMW/4sDrnBx/yE4ajuf23PjBAF3fAHXBuYKP8AiZw9TX1dik2g9h+VAHyo/wC2j8YlXn4A6568anDXn/wgh8ZeNNQ+JXjLxN4Ru/CZ8TeMPDptrKWUTSBYby0RmJXjGVJ+lfdmKjaBWXG1cZzjHGQc/wA6AJKKKKAPg3/g2V/5Qh/BP/uO/wDp/wBSr7yr4N/4Nlf+UIfwT/7jv/p/1KvvKgAooooAKKKKACiiigAooooAKKKKACiiigAooooAKKKKACiiigAooooAKKKKACiiigAooooAKKKKACiiigAooooAKKKKACiiigAooooAKKKKACiiigAooooAKKKKACiiigAooooAKKKKACiiigAooooAKKKKACiiigAooooAKKKKACiiigAooooAKKKKACiiigAooooAKKKKACiiigAooooAKKKKACiiigAooooAKKKKACiiigAooooAKKKKACiiigAooooAKKKKACiiigAooooAKKKKACiiigAooooAKKKKACiiigAooooAKKKKACiiigAooooAKKKKACiiigAooooAKKKKACiiigAooooAKKKKACiiigAooooAKKKKACiiigAooooAKKKKACiiigAooooAKKKKACiiigAooooAKKKKACiiigAooooA+Df+DZX/AJQh/BP/ALjv/p/1KvvKvg3/AINlf+UIfwT/AO47/wCn/Uq+8qACiiigAooooAKKKKACiiigAooooAKKKKACiiigAooooAKKKKACiiigAooooAKKKKACiiigAooooAKKKKACiiigAooooAKKKKACiiigAooooAKKKKACiiigAooooAKKKKACiiigAooooAKKKKACiiigAooooAKKKKACiiigAooooAKKKKACiiigAooooAKKKKACiiigAooooAKKKKACiiigAooooAKKKKACiiigAooooAKKKKACiiigAooooAKKKKACiiigAooooAKKKKACiiigAooooAKKKKACiiigAooooAKKKKACiiigAooooAKKKKACiiigAooooAKKKKACiiigAooooAKKKKACiiigAooooAKKKKACiiigAooooAKKKKACiiigAooooAKKKKACiiigAooooAKKKKACiiigAooooAKKKKACiiigD4N/4Nlf+UIfwT/7jv8A6f8AUq+8q+Df+DZX/lCH8E/+47/6f9Sr7yoAKKKKACiiigAooooAKKKKACiiigAooooAKKKKACiiigAooooAKKKKACiiigAooooAKKKKACiiigAooooAKKKKACiiigAooooAKKKKACiiigAooooAKKKKACiiigAooooAKKKKACiiigAooooAKKKKACiiigAooooAKKKKACiiigAooooAKKKKACiiigAooooAKKKKACiiigAooooAKKKKACiiigAooooAKKKKACiiigAooooAKKKKACiiigAooooAKKKKACiiigAooooAKKKKACiiigAooooAKKKKACiiigAooooAKKKKACiiigAooooAKKKKACiiigAooooAKKKKACiiigAooooAKKKKACiiigAooooAKKKKACiiigAooooAKKKKACiiigAooooAKKKKACiiigAooooAKKKKACiiigAooooAKKKKAPg3/g2V/wCUIfwT/wC47/6f9Sr7yr4N/wCDZX/lCH8E/wDuO/8Ap/1KvvKgAooooAKKKKACiiigAooooAKKKKACiiigAooooAKKKKACiiigAooooAKKKKACiiigAooooAKKKKACiiigAooooAKKKKACiiigAooooAKKKKACiiigAooooAKKKKACiiigAooooAKKKKACiiigAooooAKKKKACiiigAooooAKKKKACiiigAooooAKKKKACiiigAooooAKKKKACiiigAooooAKKKKACiiigAooooAKKKKACiiigAooooAKKKKACiiigAooooAKKKKACiiigAooooAKKKKACiiigAooooAKKKKACiiigAooooAKKKKACiiigAooooAKKKKACiiigAooooAKKKKACiiigAooooAKKKKACiiigAooooAKKKKACiiigAooooAKKKKACiiigAooooAKKKKACiiigAooooAKKKKACiiigAooooA+Df+DZX/lCH8E/+47/AOn/AFKvvKvg3/g2V/5Qh/BP/uO/+n/Uq+8qACiiigAooooAKKKKACiiigAooooAKKKKACiiigAooooAKKKKACiiigAooooAKKKKACiiigAooooAKKKKACiiigAooooAKKKKACiiigAooooAKKKKACiiigAooooAKKKKACiiigAooooAKKKKACiiigAooooAKKKKACiiigAooooAKKKKACiiigAooooAKKKKACiiigAooooAKKKKACiiigAooooAKKKKACiiigAooooAKKKKACiiigAooooAKKKKACiiigAooooAKKKKACiiigAooooAKKKKACiiigAooooAKKKKACiiigAooooAKKKKACiiigAooooAKKKKACiiigAooooAKKKKACiiigAooooAKKKKACiiigAooooAKKKKACiiigAooooAKKKKACiiigAooooAKKKKACiiigAooooAKKKKACiiigD4N/4Nlf8AlCH8E/8AuO/+n/Uq+8q+Df8Ag2V/5Qh/BP8A7jv/AKf9Sr7yoAKKKKACiiigAooooAKKKKACiiigAooooAKKKKACiiigAooooAKKKKACiiigAooooAKKKKACiiigAooooAKKKKACiiigAooooAKKKKACiiigAooooAKKKKACiiigAooooAKKKKACiiigAooooAKKKKACiiigAooooAKKKKACiiigAooooAKKKKACiiigAooooAKKKKACiiigAooooAKKKKACiiigAooooAKKKKACiiigAooooAKKKKACiiigAooooAKKKKACiiigAooooAKKKKACiiigAooooAKKKKACiiigAooooAKKKKACiiigAooooAKKKKACiiigAooooAKKKKACiiigAooooAKKKKACiiigAooooAKKKKACiiigAooooAKKKKACiiigAooooAKKKKACiiigAooooAKKKKACiiigAooooAKKKKAPg3/g2V/5Qh/BP/uO/wDp/wBSr7yr4N/4Nlf+UIfwT/7jv/p/1KvvKgAooooAKKKKACiiigAooooAKKKKACiiigAooooAKKKKACiiigAooooAKKKKACiiigAooooAKKKKACiiigAooooAKKKKACiiigAooooAKKKKACiiigAooooAKKKKACiiigAooooAKKKKACiiigAooooAKKKKACiiigAooooAKKKKACiiigAooooAKKKKACiiigAooooAKKKKACiiigAooooAKKKKACiiigAooooAKKKKACiiigAooooAKKKKACiiigAooooAKKKKACiiigAooooAKKKKACiiigAooooAKKKKACiiigAooooAKKKKACiiigAooooAKKKKACiiigAooooAKKKKACiiigAooooAKKKKACiiigAooooAKKKKACiiigAooooAKKKKACiiigAooooAKKKKACiiigAooooAKKKKACiiigAooooA+Df+DZX/AJQh/BP/ALjv/p/1KvvKvg3/AINlf+UIfwT/AO47/wCn/Uq+8qACiiigAooooAKKKKACiiigAooooAKKKKACiiigAooooAKKKKACiiigAooooAKKKKACiiigAooooAKKKKACiiigAooooAKKKKACiiigAooooAKKKKACiiigAooooAKKKKACiiigAooooAKKKKACiiigAooooAKKKKACiiigAooooAKKKKACiiigAooooAKKKKACiiigAooooAKKKKACiiigAooooAKKKKACiiigAooooAKKKKACiiigAooooAKKKKACiiigAooooAKKKKACiiigAooooAKKKKACiiigAooooAKKKKACiiigAooooAKKKKACiiigAooooAKKKKACiiigAooooAKKKKACiiigAooooAKKKKACiiigAooooAKKKKACiiigAooooAKKKKACiiigAooooAKKKKACiiigAooooAKKKKACiiigD4N/4Nlf+UIfwT/7jv8A6f8AUq+8q+Df+DZX/lCH8E/+47/6f9Sr7yoAKKKKACiiigAooooAKKKKACiiigAooooAKKKKACiiigAooooAKKKKACiiigAooooAKKKKACiiigAooooAKKKKACiiigAooooAKKKKACiiigAooooAKKKKACiiigAooooAKKKKACiiigAooooAKKKKACiiigAooooAKKKKACiiigAooooAKKKKACiiigAooooAKKKKACiiigAooooAKKKKACiiigAooooAKKKKACiiigAooooAKKKKACiiigAooooAKKKKACiiigAooooAKKKKACiiigAooooAKKKKACiiigAooooAKKKKACiiigAooooAKKKKACiiigAooooAKKKKACiiigAooooAKKKKACiiigAooooAKKKKACiiigAooooAKKKKACiiigAooooAKKKKACiiigAooooAKKKKACiiigAooooAKKKKAPg3/g2V/wCUIfwT/wC47/6f9Sr7yr4N/wCDZX/lCH8E/wDuO/8Ap/1KvvKgAooooAKKKKACiiigAooooAKKKKACiiigAooooAKKKKACiiigAooooAKKKKACiiigAooooAKKKKACiiigAooooAKKKKACiiigAooooAKKKKACiiigAooooAKKKKACiiigAooooAKKKKACiiigAooooAKKKKACiiigAooooAKKKKACiiigAooooAKKKKACiiigAooooAKKKKACiiigAooooAKKKKACiiigAooooAKKKKACiiigAooooAKKKKACiiigAooooAKKKKACiiigAooooAKKKKACiiigAooooAKKKKACiiigAooooAKKKKACiiigAooooAKKKKACiiigAooooAKKKKACiiigAooooAKKKKACiiigAooooAKKKKACiiigAooooAKKKKACiiigAooooAKKKKACiiigAooooAKKKKACiiigAooooA+Df+DZX/lCH8E/+47/AOn/AFKvvKvg3/g2V/5Qh/BP/uO/+n/Uq+8qACiiigAooooAKKKKACiiigAooooAKKKKACiiigAooooAKKKKACiiigAooooAKKKKACiiigAooooAKKKKACiiigAooooAKKKKACiiigAooooAKKKKACiiigAooooAKKKKACiiigAooooAKKKKACiiigAooooAKKKKACiiigAooooAKKKKACiiigAooooAKKKKACiiigAooooAKKKKACiiigAooooAKKKKACiiigAooooAKKKKACiiigAooooAKKKKACiiigAooooAKKKKACiiigAooooAKKKKACiiigAooooAKKKKACiiigAooooAKKKKACiiigAooooAKKKKACiiigAooooAKKKKACiiigAooooAKKKKACiiigAooooAKKKKACiiigAooooAKKKKACiiigAooooAKKKKACiiigAooooAKKKKACiiigD4N/4Nlf8AlCH8E/8AuO/+n/Uq+8q+Df8Ag2V/5Qh/BP8A7jv/AKf9Sr7yoAKKKKACiiigAooooAKKKKACiiigAooooAKKKKACiiigAooooAKKKKACiiigAooooAKKKKACiiigAooooAKKKKACiiigAooooAKKKKACiiigAooooAKKKKACiiigAooooAKKKKACiiigAooooAKKKKACiiigAooooAKKKKACiiigAooooAKKKKACiiigAooooAKKKKACiiigAooooAKKKKACiiigAooooAKKKKACiiigAooooAKKKKACiiigAooooAKKKKACiiigAooooAKKKKACiiigAooooAKKKKACiiigAooooAKKKKACiiigAooooAKKKKACiiigAooooAKKKKACiiigAooooAKKKKACiiigAooooAKKKKACiiigAooooAKKKKACiiigAooooAKKKKACiiigAooooAKKKKACiiigAooooAKKKKAPg3/g2V/5Qh/BP/uO/wDp/wBSr7yr4N/4Nlf+UIfwT/7jv/p/1KvvKgAooooAKKKKACiiigAooooAKKKKACiiigAooooAKKKKACiiigAooooAKKKKACiiigAooooAKKKKACiiigAooooAKKKKACiiigAooooAKKKKACiiigAooooAKKKKACiiigAooooAKKKKACiiigAooooAKKKKACiiigAooooAKKKKACiiigAooooAKKKKACiiigAooooAKKKKACiiigAooooAKKKKACiiigAooooAKKKKACiiigAooooAKKKKACiiigAooooAKKKKACiiigAooooAKKKKACiiigAooooAKKKKACiiigAooooAKKKKACiiigAooooAKKKKACiiigAooooAKKKKACiiigAooooAKKKKACiiigAooooAKKKKACiiigAooooAKKKKACiiigAooooAKKKKACiiigAooooAKKKKACiiigAooooA+Df+DZX/AJQh/BP/ALjv/p/1KvvKvg3/AINlf+UIfwT/AO47/wCn/Uq+8qACiiigAooooAKKKKACiiigAooooAKKKKACiiigAooooAKKKKACiiigAooooAKKKKACiiigAooooAKKKKACiiigAooooAKKKKACiiigAooooAKKKKACiiigAooooAKKKKACiiigAooooAKKKKACiiigAooooAKKKKACiiigAooooAKKKKACiiigAooooAKKKKACiiigAooooAKKKKACiiigAooooAKKKKACiiigAooooAKKKKACiiigAooooAKKKKACiiigAooooAKKKKACiiigAooooAKKKKACiiigAooooAKKKKACiiigAooooAKKKKACiiigAooooAKKKKACiiigAooooAKKKKACiiigAooooAKKKKACiiigAooooAKKKKACiiigAooooAKKKKACiiigAooooAKKKKACiiigAooooAKKKKACiiigD4N/4Nlf+UIfwT/7jv8A6f8AUq+8q+Df+DZX/lCH8E/+47/6f9Sr7yoAKKKKACiiigAooooAKKKKACiiigAooooAKKKKACiiigAooooAKKKKACiiigAooooAKKKKACiiigAooooAKKKKACiiigAooooAKKKKACiiigAooooAKKKKACiiigAooooAKKKKACiiigAooooAKKKKACiiigAooooAKKKKACiiigAooooAKKKKACiiigAooooAKKKKACiiigAooooAKKKKACiiigAooooAKKKKACiiigAooooAKKKKACiiigAooooAKKKKACiiigAooooAKKKKACiiigAooooAKKKKACiiigAooooAKKKKACiiigAooooAKKKKACiiigAooooAKKKKACiiigAooooAKKKKACiiigAooooAKKKKACiiigAooooAKKKKACiiigAooooAKKKKACiiigAooooAKKKKACiiigAooooAKKKKAPg3/g2V/wCUIfwT/wC47/6f9Sr7yr4N/wCDZX/lCH8E/wDuO/8Ap/1KvvKgAooooAKKKKACiiigAooooAKKKKACiiigAooooAKKKKACiiigAooooAKKKKACiiigAooooAKKKKACiiigAooooAKKKKACiiigAooooAKKKKACiiigAooooAKKKKACiiigAooooAKKKKACiiigAooooAKKKKACiiigAooooAKKKKACiiigAooooAKKKKACiiigAooooAKKKKACiiigAooooAKKKKACiiigAooooAKKKKACiiigAooooAKKKKACiiigAooooAKKKKACiiigAooooAKKKKACiiigAooooAKKKKACiiigAooooAKKKKACiiigAooooAKKKKACiiigAooooAKKKKACiiigAooooAKKKKACiiigAooooAKKKKACiiigAooooAKKKKACiiigAooooAKKKKACiiigAooooAKKKKACiiigAooooA+Df+DZX/lCH8E/+47/AOn/AFKvvKvg3/g2V/5Qh/BP/uO/+n/Uq+8qACiiigAooooAKKKKACiiigAooooAKKKKACiiigAooooAKKKKACiiigAooooAKKKKACiiigAooooAKKKKACiiigAooooAKKKKACiiigAooooAKKKKACiiigAooooAKKKKACiiigAooooAKKKKACiiigAooooAKKKKACiiigAooooAKKKKACiiigAooooAKKKKACiiigAooooAKKKKACiiigAooooAKKKKACiiigAooooAKKKKACiiigAooooAKKKKACiiigAooooAKKKKACiiigAooooAKKKKACiiigAooooAKKKKACiiigAooooAKKKKACiiigAooooAKKKKACiiigAooooAKKKKACiiigAooooAKKKKACiiigAooooAKKKKACiiigAooooAKKKKACiiigAooooAKKKKACiiigAooooAKKKKACiiigD4N/4Nlf8AlCH8E/8AuO/+n/Uq+8q+Df8Ag2V/5Qh/BP8A7jv/AKf9Sr7yoAKKKKACiiigAooooAKKKKACiiigAooooAKKKKACiiigAooooAKKKKACiiigAooooAKKKKACiiigAooooAKKKKACiiigAooooAKKKKACiiigAooooAKKKKACiiigAooooAKKKKACiiigAooooAKKKKACiiigAooooAKKKKACiiigAooooAKKKKACiiigAooooAKKKKACiiigAooooAKKKKACiiigAooooAKKKKACiiigAooooAKKKKACiiigAooooAKKKKACiiigAooooAKKKKACiiigAooooAKKKKACiiigAooooAKKKKACiiigAooooAKKKKACiiigAooooAKKKKACiiigAooooAKKKKACiiigAooooAKKKKACiiigAooooAKKKKACiiigAooooAKKKKACiiigAooooAKKKKACiiigAooooAKKKKAPg3/g2V/5Qh/BP/uO/wDp/wBSr7yr4N/4Nlf+UIfwT/7jv/p/1KvvKgAooooAKKKKACiiigAooooAKKKKACiiigAooooAKKKKACiiigAooooAKKKKACiiigAooooAKKKKACiiigAooooAKKKKACiiigAooooAKKKKACiiigAooooAKKKKACiiigAooooAKKKKACiiigAooooAKKKKACiiigAooooAKKKKACiiigAooooAKKKKACiiigAooooAKKKKACiiigAooooAKKKKACiiigAooooAKKKKACiiigAooooAKKKKACiiigAooooAKKKKACiiigAooooAKKKKACiiigAooooAKKKKACiiigAooooAKKKKACiiigAooooAKKKKACiiigAooooAKKKKACiiigAooooAKKKKACiiigAooooAKKKKACiiigAooooAKKKKACiiigAooooAKKKKACiiigAooooAKKKKACiiigAooooA+Df+DZX/AJQh/BP/ALjv/p/1KvvKvg3/AINlf+UIfwT/AO47/wCn/Uq+8qACiiigAooooAKKKKACiiigAooooAKKKKACiiigAooooAKKKKACiiigAooooAKKKKACiiigAooooAKKKKACiiigAooooAKKKKACiiigAooooAKKKKACiiigAooooAKKKKACiiigAooooAKKKKACiiigAooooAKKKKACiiigAooooAKKKKACiiigAooooAKKKKACiiigAooooAKKKKACiiigAooooAKKKKACiiigAooooAKKKKACiiigAooooAKKKKACiiigAooooAKKKKACiiigAooooAKKKKACiiigAooooAKKKKACiiigAooooAKKKKACiiigAooooAKKKKACiiigAooooAKKKKACiiigAooooAKKKKACiiigAooooAKKKKACiiigAooooAKKKKACiiigAooooAKKKKACiiigAooooAKKKKACiiigD4N/4Nlf+UIfwT/7jv8A6f8AUq+8q+Df+DZX/lCH8E/+47/6f9Sr7yoAKKKKACiiigAooooAKKKKACiiigAooooAKKKKACiiigAooooAKKKKACiiigAooooAKKKKACiiigAooooAKKKKACiiigAooooAKKKKACiiigAooooAKKKKACiiigAooooAKKKKACiiigAooooAKKKKACiiigAooooAKKKKACiiigAooooAKKKKACiiigAooooAKKKKACiiigAooooAKKKKACiiigAooooAKKKKACiiigAooooAKKKKACiiigAooooAKKKKACiiigAooooAKKKKACiiigAooooAKKKKACiiigAooooAKKKKACiiigAooooAKKKKACiiigAooooAKKKKACiiigAooooAKKKKACiiigAooooAKKKKACiiigAooooAKKKKACiiigAooooAKKKKACiiigAooooAKKKKACiiigAooooAKKKKAPg3/g2V/wCUIfwT/wC47/6f9Sr7yr4N/wCDZX/lCH8E/wDuO/8Ap/1KvvKgAooooAKKKKACiiigAooooAKKKKACiiigAooooAKKKKACiiigAooooAKKKKACiiigAooooAKKKKACiiigAooooAKKKKACiiigAooooAKKKKACiiigAooooAKKKKACiiigAooooAKKKKACiiigAooooAKKKKACiiigAooooAKKKKACiiigAooooAKKKKACiiigAooooAKKKKACiiigAooooAKKKKACiiigAooooAKKKKACiiigAooooAKKKKACiiigAooooAKKKKACiiigAooooAKKKKACiiigAooooAKKKKACiiigAooooAKKKKACiiigAooooAKKKKACiiigAooooAKKKKACiiigAooooAKKKKACiiigAooooAKKKKACiiigAooooAKKKKACiiigAooooAKKKKACiiigAooooAKKKKACiiigAooooA+Df+DZX/lCH8E/+47/AOn/AFKvvKvg3/g2V/5Qh/BP/uO/+n/Uq+8qACiiigAooooAKKKKACiiigAooooAKKKKACiiigAooooAKKKKACiiigAooooAKKKKACiiigAooooAKKKKACiiigAooooAKKKKACiiigAooooAKKKKACiiigAooooAKKKKACiiigAooooAKKKKACiiigAooooAKKKKACiiigAooooAKKKKACiiigAooooAKKKKACiiigAooooAKKKKACiiigAooooAKKKKACiiigAooooAKKKKACiiigAooooAKKKKACiiigAooooAKKKKACiiigAooooAKKKKACiiigAooooAKKKKACiiigAooooAKKKKACiiigAooooAKKKKACiiigAooooAKKKKACiiigAooooAKKKKACiiigAooooAKKKKACiiigAooooAKKKKACiiigAooooAKKKKACiiigAooooAKKKKACiiigD4N/4Nlf8AlCH8E/8AuO/+n/Uq+8q+Df8Ag2V/5Qh/BP8A7jv/AKf9Sr7yoAKKKKACiiigAooooAKKKKACiiigAooooAKKKKACiiigAooooAKKKKACiiigAooooAKKKKACiiigAooooAKKKKACiiigAooooAKKKKACiiigAooooAKKKKACiiigAooooAKKKKACiiigAooooAKKKKACiiigAooooAKKKKACiiigAooooAKKKKACiiigAooooAKKKKACiiigAooooAKKKKACiiigAooooAKKKKACiiigAooooAKKKKACiiigAooooAKKKKACiiigAooooAKKKKACiiigAooooAKKKKACiiigAooooAKKKKACiiigAooooAKKKKACiiigAooooAKKKKACiiigAooooAKKKKACiiigAooooAKKKKACiiigAooooAKKKKACiiigAooooAKKKKACiiigAooooAKKKKACiiigAooooAKKKKAPg3/g2V/5Qh/BP/uO/wDp/wBSr7yr4N/4Nlf+UIfwT/7jv/p/1KvvKgAooooAKKKKACiiigAooooAKKKKACiiigAooooAKKKKACiiigAooooAKKKKACiiigAooooAKKKKACiiigAooooAKKKKACiiigAooooAKKKKACiiigAooooAKKKKACiiigAooooAKKKKACiiigAooooAKKKKACiiigAooooAKKKKACiiigAooooAKKKKACiiigAooooAKKKKACiiigAooooAKKKKACiiigAooooAKKKKACiiigAooooAKKKKACiiigAooooAKKKKACiiigAooooAKKKKACiiigAooooAKKKKACiiigAooooAKKKKACiiigAooooAKKKKACiiigAooooAKKKKACiiigAooooAKKKKACiiigAooooAKKKKACiiigAooooAKKKKACiiigAooooAKKKKACiiigAooooAKKKKACiiigAooooA+Df+DZX/AJQh/BP/ALjv/p/1KvvKvg3/AINlf+UIfwT/AO47/wCn/Uq+8qACiiigAooooAKKKKACiiigAooooAKKKKACiiigAooooAKKKKACiiigAooooAKKKKACiiigAooooAKKKKACiiigAooooAKKKKACiiigAooooAKKKKACiiigAooooAKKKKACiiigAooooAKKKKACiiigAooooAKKKKACiiigAooooAKKKKACiiigAooooAKKKKACiiigAooooAKKKKACiiigAooooAKKKKACiiigAooooAKKKKACiiigAooooAKKKKACiiigAooooAKKKKACiiigAooooAKKKKACiiigAooooAKKKKACiiigAooooAKKKKACiiigAooooAKKKKACiiigAooooAKKKKACiiigAooooAKKKKACiiigAooooAKKKKACiiigAooooAKKKKACiiigAooooAKKKKACiiigAooooAKKKKACiiigD4N/4Nlf+UIfwT/7jv8A6f8AUq+8q+Df+DZX/lCH8E/+47/6f9Sr7yoAKKKKACiiigAooooAKKKKACiiigAooooAKKKKACiiigAooooAKKKKACiiigAooooAKKKKACiiigAooooAKKKKACiiigAooooAKKKKACiiigAooooAKKKKACiiigAooooAKKKKACiiigAooooAKKKKACiiigAooooAKKKKACiiigAooooAKKKKACiiigAooooAKKKKACiiigAooooAKKKKACiiigAooooAKKKKACiiigAooooAKKKKACiiigAooooAKKKKACiiigAooooAKKKKACiiigAooooAKKKKACiiigAooooAKKKKACiiigAooooAKKKKACiiigAooooAKKKKACiiigAooooAKKKKACiiigAooooAKKKKACiiigAooooAKKKKACiiigAooooAKKKKACiiigAooooAKKKKACiiigAooooAKKKKAPg3/g2V/wCUIfwT/wC47/6f9Sr7yr4N/wCDZX/lCH8E/wDuO/8Ap/1KvvKgAooooAKKKKACiiigAooooAKKKKACiiigAooooAKKKKACiiigAooooAKKKKACiiigAooooAKKKKACiiigAooooAKKKKACiiigAooooAKKKKACiiigAooooAKKKKACiiigAooooAKKKKACiiigAooooAKKKKACiiigAooooAKKKKACiiigAooooAKKKKACiiigAooooAKKKKACiiigAooooAKKKKACiiigAooooAKKKKACiiigAooooAKKKKACiiigAooooAKKKKACiiigAooooAKKKKACiiigAooooAKKKKACiiigAooooAKKKKACiiigAooooAKKKKACiiigAooooAKKKKACiiigAooooAKKKKACiiigAooooAKKKKACiiigAooooAKKKKACiiigAooooAKKKKACiiigAooooAKKKKACiiigAooooA+Df+DZX/lCH8E/+47/AOn/AFKvvKvg3/g2V/5Qh/BP/uO/+n/Uq+8qACiiigAooooAKKKKACiiigAooooAKKKKACiiigAooooAKKKKACiiigAooooAKKKKACiiigAooooAKKKKACiiigAooooAKKKKACiiigAooooAKKKKACiiigAooooAKKKKACiiigAooooAKKKKACiiigAooooAKKKKACiiigAooooAKKKKACiiigAooooAKKKKACiiigAooooAKKKKACiiigAooooAKKKKACiiigAooooAKKKKACiiigAooooAKKKKACiiigAooooAKKKKACiiigAooooAKKKKACiiigAooooAKKKKACiiigAooooAKKKKACiiigAooooAKKKKACiiigAooooAKKKKACiiigAooooAKKKKACiiigAooooAKKKKACiiigAooooAKKKKACiiigAooooAKKKKACiiigAooooAKKKKACiiigD4N/4Nlf8AlCH8E/8AuO/+n/Uq+8q+Df8Ag2V/5Qh/BP8A7jv/AKf9Sr7yoAKKKKACiiigAooooAKKKKACiiigAooooAKKKKACiiigAooooAKKKKACiiigAooooAKKKKACiiigAooooAKKKKACiiigAooooAKKKKACiiigAooooAKKKKACiiigAooooAKKKKACiiigAooooAKKKKACiiigAooooAKKKKACiiigAooooAKKKKACiiigAooooAKKKKACiiigAooooAKKKKACiiigAooooAKKKKACiiigAooooAKKKKACiiigAooooAKKKKACiiigAooooAKKKKACiiigAooooAKKKKACiiigAooooAKKKKACiiigAooooAKKKKACiiigAooooAKKKKACiiigAooooAKKKKACiiigAooooAKKKKACiiigAooooAKKKKACiiigAooooAKKKKACiiigAooooAKKKKACiiigAooooAKKKKAPg3/g2V/5Qh/BP/uO/wDp/wBSr7yr4N/4Nlf+UIfwT/7jv/p/1KvvKgAooooAKKKKACiiigAooooAKKKKACiiigAooooAKKKKACiiigAooooAKKKKACiiigAooooAKKKKACiiigAooooAKKKKACiiigAooooAKKKKACiiigAooooAKKKKACiiigAooooAKKKKACiiigAooooAKKKKACiiigAooooAKKKKACiiigAooooAKKKKACiiigAooooAKKKKACiiigAooooAKKKKACiiigAooooAKKKKACiiigAooooAKKKKACiiigAooooAKKKKACiiigAooooAKKKKACiiigAooooAKKKKACiiigAooooAKKKKACiiigAooooAKKKKACiiigAooooAKKKKACiiigAooooAKKKKACiiigAooooAKKKKACiiigAooooAKKKKACiiigAooooAKKKKACiiigAooooAKKKKACiiigAooooA+Df+DZX/AJQh/BP/ALjv/p/1KvvKvg3/AINlf+UIfwT/AO47/wCn/Uq+8qACiiigAooooAKKKKACiiigAooooAKKKKACiiigAooooAKKKKACiiigAooooAKKKKACiiigAooooAKKKKACiiigAooooAKKKKACiiigAooooAKKKKACiiigAooooAKKKKACiiigAooooAKKKKACiiigAooooAKKKKACiiigAooooAKKKKACiiigAooooAKKKKACiiigAooooAKKKKACiiigAooooAKKKKACiiigAooooAKKKKACiiigAooooAKKKKACiiigAooooAKKKKACiiigAooooAKKKKACiiigAooooAKKKKACiiigAooooAKKKKACiiigAooooAKKKKACiiigAooooAKKKKACiiigAooooAKKKKACiiigAooooAKKKKACiiigAooooAKKKKACiiigAooooAKKKKACiiigAooooAKKKKACiiigD4N/4Nlf+UIfwT/7jv8A6f8AUq+8q+Df+DZX/lCH8E/+47/6f9Sr7yoAKKKKACiiigAooooAKKKKACiiigAooooAKKKKACiiigAooooAKKKKACiiigAooooAKKKKACiiigAooooAKKKKACiiigAooooAKKKKACiiigAooooAKKKKACiiigAooooAKKKKACiiigAooooAKKKKACiiigAooooAKKKKACiiigAooooAKKKKACiiigAooooAKKKKACiiigAooooAKKKKACiiigAooooAKKKKACiiigAooooAKKKKACiiigAooooAKKKKACiiigAooooAKKKKACiiigAooooAKKKKACiiigAooooAKKKKACiiigAooooAKKKKACiiigAooooAKKKKACiiigAooooAKKKKACiiigAooooAKKKKACiiigAooooAKKKKACiiigAooooAKKKKACiiigAooooAKKKKACiiigAooooAKKKKAPg3/g2V/wCUIfwT/wC47/6f9Sr7yr4N/wCDZX/lCH8E/wDuO/8Ap/1KvvKgAooooAKKKKACiiigAooooAKKKKACiiigAooooAKKKKACiiigAooooAKKKKACiiigAooooAKKKKACiiigAooooAKKKKACiiigAooooAKKKKACiiigAooooAKKKKACiiigAooooAKKKKACiiigAooooAKKKKACiiigAooooAKKKKACiiigAooooAKKKKACiiigAooooAKKKKACiiigAooooAKKKKACiiigAooooAKKKKACiiigAooooAKKKKACiiigAooooAKKKKACiiigAooooAKKKKACiiigAooooAKKKKACiiigAooooAKKKKACiiigAooooAKKKKACiiigAooooAKKKKACiiigAooooAKKKKACiiigAooooAKKKKACiiigAooooAKKKKACiiigAooooAKKKKACiiigAooooAKKKKACiiigAooooA+Df+DZX/lCH8E/+47/AOn/AFKvvKvg3/g2V/5Qh/BP/uO/+n/Uq+8qACiiigAooooAKKKKACiiigAooooAKKKKACiiigAooooAKKKKACiiigAooooAKKKKACiiigAooooAKKKKACiiigAooooAKKKKACiiigAooooAKKKKACiiigAooooAKKKKACiiigAooooAKKKKACiiigAooooAKKKKACiiigAooooAKKKKACiiigAooooAKKKKACiiigAooooAKKKKACiiigAooooAKKKKACiiigAooooAKKKKACiiigAooooAKKKKACiiigAooooAKKKKACiiigAooooAKKKKACiiigAooooAKKKKACiiigAooooAKKKKACiiigAooooAKKKKACiiigAooooAKKKKACiiigAooooAKKKKACiiigAooooAKKKKACiiigAooooAKKKKACiiigAooooAKKKKACiiigAooooAKKKKACiiigD4N/4Nlf8AlCH8E/8AuO/+n/Uq+8q+Df8Ag2V/5Qh/BP8A7jv/AKf9Sr7yoAKKKKACiiigAooooAKKKKACiiigAooooAKKKKACiiigAooooAKKKKACiiigAooooAKKKKACiiigAooooAKKKKACiiigAooooAKKKKACiiigAooooAKKKKACiiigAooooAKKKKACiiigAooooAKKKKACiiigAooooAKKKKACiiigAooooAKKKKACiiigAooooAKKKKACiiigAooooAKKKKACiiigAooooAKKKKACiiigAooooAKKKKACiiigAooooAKKKKACiiigAooooAKKKKACiiigAooooAKKKKACiiigAooooAKKKKACiiigAooooAKKKKACiiigAooooAKKKKACiiigAooooAKKKKACiiigAooooAKKKKACiiigAooooAKKKKACiiigAooooAKKKKACiiigAooooAKKKKACiiigAooooAKKKKAPg3/g2V/5Qh/BP/uO/wDp/wBSr7yr4N/4Nlf+UIfwT/7jv/p/1KvvKgAooooAKKKKACiiigAooooAKKKKACiiigAooooAKKKKACiiigAooooAKKKKACiiigAooooAKKKKACiiigAooooAKKKKACiiigAooooAKKKKACiiigAooooAKKKKACiiigAooooAKKKKACiiigAooooAKKKKACiiigAooooAKKKKACiiigAooooAKKKKACiiigAooooAKKKKACiiigAooooAKKKKACiiigAooooAKKKKACiiigAooooAKKKKACiiigAooooAKKKKACiiigAooooAKKKKACiiigAooooAKKKKACiiigAooooAKKKKACiiigAooooAKKKKACiiigAooooAKKKKACiiigAooooAKKKKACiiigAooooAKKKKACiiigAooooAKKKKACiiigAooooAKKKKACiiigAooooAKKKKACiiigAooooA+Df+DZX/AJQh/BP/ALjv/p/1KvvKvg3/AINlf+UIfwT/AO47/wCn/Uq+8qACiiigAooooAKKKKACiiigAooooAKKKKACiiigAooooAKKKKACiiigAooooAKKKKACiiigAooooAKKKKACiiigAooooAKKKKACiiigAooooAKKKKACiiigAooooAKKKKACiiigAooooAKKKKACiiigAooooAKKKKACiiigAooooAKKKKACiiigAooooAKKKKACiiigAooooAKKKKACiiigAooooAKKKKACiiigAooooAKKKKACiiigAooooAKKKKACiiigAooooAKKKKACiiigAooooAKKKKACiiigAooooAKKKKACiiigAooooAKKKKACiiigAooooAKKKKACiiigAooooAKKKKACiiigAooooAKKKKACiiigAooooAKKKKACiiigAooooAKKKKACiiigAooooAKKKKACiiigAooooAKKKKACiiigD4N/4Nlf+UIfwT/7jv8A6f8AUq+8q+Df+DZX/lCH8E/+47/6f9Sr7yoAKKKKACiiigAooooAKKKKACiiigAooooAKKKKACiiigAooooAKKKKACiiigAooooAKKKKACiiigAooooAKKKKACiiigAooooAKKKKACiiigAooooAKKKKACiiigAooooAKKKKACiiigAooooAKKKKACiiigAooooAKKKKACiiigAooooAKKKKACiiigAooooAKKKKACiiigAooooAKKKKACiiigAooooAKKKKACiiigAooooAKKKKACiiigAooooAKKKKACiiigAooooAKKKKACiiigAooooAKKKKACiiigAooooAKKKKACiiigAooooAKKKKACiiigAooooAKKKKACiiigAooooAKKKKACiiigAooooAKKKKACiiigAooooAKKKKACiiigAooooAKKKKACiiigAooooAKKKKACiiigAooooAKKKKAPg3/g2V/wCUIfwT/wC47/6f9Sr7yr4N/wCDZX/lCH8E/wDuO/8Ap/1KvvKgAooooAKKKKACiiigAooooAKKKKACiiigAooooAKKKKACiiigAooooAKKKKACiiigAooooAKKKKACiiigAooooAKKKKACiiigAooooAKKKKACiiigAooooAKKKKACiiigAooooAKKKKACiiigAooooAKKKKACiiigAooooAKKKKACiiigAooooAKKKKACiiigAooooAKKKKACiiigAooooAKKKKACiiigAooooAKKKKACiiigAooooAKKKKACiiigAooooAKKKKACiiigAooooAKKKKACiiigAooooAKKKKACiiigAooooAKKKKACiiigAooooAKKKKACiiigAooooAKKKKACiiigAooooAKKKKACiiigAooooAKKKKACiiigAooooAKKKKACiiigAooooAKKKKACiiigAooooAKKKKACiiigAooooA+Df+DZX/lCH8E/+47/AOn/AFKvvKvg3/g2V/5Qh/BP/uO/+n/Uq+8qACiiigAooooAKKKKACiiigAooooAKKKKACiiigAooooAKKKKACiiigAooooAKKKKACiiigAooooAKKKKACiiigAooooAKKKKACiiigAooooAKKKKACiiigAooooAKKKKACiiigAooooAKKKKACiiigAooooAKKKKACiiigAooooAKKKKACiiigAooooAKKKKACiiigAooooAKKKKACiiigAooooAKKKKACiiigAooooAKKKKACiiigAooooAKKKKACiiigAooooAKKKKACiiigAooooAKKKKACiiigAooooAKKKKACiiigAooooAKKKKACiiigAooooAKKKKACiiigAooooAKKKKACiiigAooooAKKKKACiiigAooooAKKKKACiiigAooooAKKKKACiiigAooooAKKKKACiiigAooooAKKKKACiiigD4N/4Nlf8AlCH8E/8AuO/+n/Uq+8q+Df8Ag2V/5Qh/BP8A7jv/AKf9Sr7yoAKKKKACiiigAooooAKKKKACiiigAooooAKKKKACiiigAooooAKKKKACiiigAooooAKKKKACiiigAooooAKKKKACiiigAooooAKKKKACiiigAooooAKKKKACiiigAooooAKKKKACiiigAooooAKKKKACiiigAooooAKKKKACiiigAooooAKKKKACiiigAooooAKKKKACiiigAooooAKKKKACiiigAooooAKKKKACiiigAooooAKKKKACiiigAooooAKKKKACiiigAooooAKKKKACiiigAooooAKKKKACiiigAooooAKKKKACiiigAooooAKKKKACiiigAooooAKKKKACiiigAooooAKKKKACiiigAooooAKKKKACiiigAooooAKKKKACiiigAooooAKKKKACiiigAooooAKKKKACiiigAooooAKKKKAPg3/g2V/5Qh/BP/uO/wDp/wBSr7yr4N/4Nlf+UIfwT/7jv/p/1KvvKgAooooAKKKKACiiigAooooAKKKKACiiigAooooAKKKKACiiigAooooAKKKKACiiigAooooAKKKKACiiigAooooAKKKKACiiigAooooAKKKKACiiigAooooAKKKKACiiigAooooAKKKKACiiigAooooAKKKKACiiigAooooAKKKKACiiigAooooAKKKKACiiigAooooAKKKKACiiigAooooAKKKKACiiigAooooAKKKKACiiigAooooAKKKKACiiigAooooAKKKKACiiigAooooAKKKKACiiigAooooAKKKKACiiigAooooAKKKKACiiigAooooAKKKKACiiigAooooAKKKKACiiigAooooAKKKKACiiigAooooAKKKKACiiigAooooAKKKKACiiigAooooAKKKKACiiigAooooAKKKKACiiigAooooA+Df+DZX/AJQh/BP/ALjv/p/1KvvKvg3/AINlf+UIfwT/AO47/wCn/Uq+8qACiiigAooooAKKKKACiiigAooooAKKKKACiiigAooooAKKKKACiiigAooooAKKKKACiiigAooooAKKKKACiiigAooooAKKKKACiiigAooooAKKKKACiiigAooooAKKKKACiiigAooooAKKKKACiiigAooooAKKKKACiiigAooooAKKKKACiiigAooooAKKKKACiiigAooooAKKKKACiiigAooooAKKKKACiiigAooooAKKKKACiiigAooooAKKKKACiiigAooooAKKKKACiiigAooooAKKKKACiiigAooooAKKKKACiiigAooooAKKKKACiiigAooooAKKKKACiiigAooooAKKKKACiiigAooooAKKKKACiiigAooooAKKKKACiiigAooooAKKKKACiiigAooooAKKKKACiiigAooooAKKKKACiiigD4N/4Nlf+UIfwT/7jv8A6f8AUq+8q+Df+DZX/lCH8E/+47/6f9Sr7yoAKKKKACiiigAooooAKKKKACiiigAooooAKKKKACiiigAooooAKKKKACiiigAooooAKKKKACiiigAooooAKKKKACiiigAooooAKKKKACiiigAooooAKKKKACiiigAooooAKKKKACiiigAooooAKKKKACiiigAooooAKKKKACiiigAooooAKKKKACiiigAooooAKKKKACiiigAooooAKKKKACiiigAooooAKKKKACiiigAooooAKKKKACiiigAooooAKKKKACiiigAooooAKKKKACiiigAooooAKKKKACiiigAooooAKKKKACiiigAooooAKKKKACiiigAooooAKKKKACiiigAooooAKKKKACiiigAooooAKKKKACiiigAooooAKKKKACiiigAooooAKKKKACiiigAooooAKKKKACiiigAooooAKKKKAPg3/g2V/wCUIfwT/wC47/6f9Sr7yr4N/wCDZX/lCH8E/wDuO/8Ap/1KvvKgAooooAKKKKACiiigAooooAKKKKACiiigAooooAKKKKACiiigAooooAKKKKACiiigAooooAKKKKACiiigAooooAKKKKACiiigAooooAKKKKACiiigAooooAKKKKACiiigAooooAKKKKACiiigAooooAKKKKACiiigAooooAKKKKACiiigAooooAKKKKACiiigAooooAKKKKACiiigAooooAKKKKACiiigAooooAKKKKACiiigAooooAKKKKACiiigAooooAKKKKACiiigAooooAKKKKACiiigAooooAKKKKACiiigAooooAKKKKACiiigAooooAKKKKACiiigAooooAKKKKACiiigAooooAKKKKACiiigAooooAKKKKACiiigAooooAKKKKACiiigAooooAKKKKACiiigAooooAKKKKACiiigAooooA/KX/ggHc3EP/BN39lVbZsOdC8cMqFyqOw8QS43Y7ZPXHGTX1lc+MP2thdSLZ+DfgzJagkQtL4ivFdkzwWAtiAcYyM9a+T/APg37Xd/wTs/ZO/7Afjj/wBSGSv1QsoMW0fP8IP6VUtkLqfLcHiv9r+CPb/whfwV6k5PiO9/+RaP+Eu/bA3f8iX8FfT/AJGO9/8AkWvpTxp4tsfAXhq51XUpvs9jaANNJtLbQTjOBk9TWN4s+Leg+DNL0281C/jht9Ynjt7JuWNxJIMqqgckkAn6A1lLVpIHKx4FL4r/AGvrgYPgz4Kjkc/8JHe9f/AWpP8AhMf2wQP+RL+CfTn/AIqO9/8AkWvpyJi4DN3/AJVMznb261Wi0GtT5WtPE/7X1u8z/wDCGfBY+cQSD4jveOMcf6L7VI3ir9sBnRv+EL+CvyHOP+Ekvf8A5Fr6lD7cfypytu6+v50LsB8tv4w/bCcY/wCEK+Cf/hR3v/yLSR+LP2wIo1X/AIQv4KNj18R3v/yLX1VtyKQJzTA+VR4r/bA85n/4Qv4K8jGP+Ejvf/kWmXviv9r+5tJIj4N+Cq+YpUkeI73IB4z/AMetfV4GKjaEsetAHyzB4r/bBihVR4L+CZCjAJ8SXvP/AJK02LxV+2BE7/8AFF/BUlz0PiS9wP8AyVr6rUbVpGjzQB8r/wDCXftgZ/5En4J8f9TJe/8AyLRN4t/bBnj2nwX8FRn08R3v/wAi19UhcClxQB8rR+Lv2wljCjwX8E+B38R3v/yLUH/CS/tgR37zf8Ib8FcuoXb/AMJHe4GO/wDx619XqMU14t7UAfKkviz9sC5XH/CF/BUYIP8AyMd7z/5K1N/wmP7YIGP+EK+Cn/hR3v8A8i19TLHtNBSgD5Vh8VftgQrj/hC/gq2ST/yMd7/8i0N4r/bAaVW/4Qv4K/KCMf8ACR3v/wAi19VKu00FMmgD5Xk8ZftgFMf8IX8FeeOPEd7x/wCStQ2fin9r6zs44f8AhDPgs3ljGT4jvcn/AMla+rjHmo5U2KPyoA+Jda/aW/as8OfHHRPBMvgX4Ptqmv2U17BKPEd2YkWLqGP2bOT24rtD4x/a+/6Ev4K+3/FR3v8A8i0v7TPxF0n4R/tw+BfEmvXi2OkaX4Z1Ga5nYEiJBnJIHJ617h4j+O/hfwq3hv7dqUcB8Wzi30vIJ+0yFC4A44+UE81POnotw1seIP4w/a+2f8iX8FfT/kY73/5FqOHxX+1/Em3/AIQv4KnHf/hI73/5Fr6iEoZPwpyuCuaFIUdj5XfxN+19JqEdwPBvwXDRoVCjxHe4Ocdf9F9qml8X/tf3CMv/AAhfwV9/+Kkvf/kWvqIn5v6UBvmwv0qh9dT5fXxj+2Aqj/ii/gocD/oY73/5FpsXiz9sBCzL4L+CvzHP/Ix3vH/krX1Juz7UB8+i/SpvqB8tyeKv2wJdv/FF/BX5Tn/kZL3n/wAlakHjD9sIj/kSfgn/AOFHe/8AyLX1IWxT0+7VAfKFp4m/a/sY2UeDfgq252fnxHe9Sc4/49akHiv9sBphJ/whfwV6Yx/wkd7/APItfVHk5PP4U5E2igD5Ybxj+2Cw/wCRJ+Cn/hSXv/yLSf8ACXftgA7v+EK+Cf8A4Ul7/wDItfVWKaUyaAPleDxX+2DEhC+C/go2STz4kvf/AJFqvqHiP9sC6uLdm8G/BZWgfeAPEd7g8Ec/6L719Yqu2kePceuKAPldvF37YEiEf8IV8FPmHJ/4SO94/wDJWki8WftgQoFHgr4KHHc+JL3/AORa+qUXYKGXIoA+VR4q/bAWVn/4Qv4K5bHXxHe8f+StE/iz9sKdNp8F/BQcg8eI73/5Fr6qVcUFMmgD5X/4TH9sAH/kS/gr9f8AhI73/wCRagsvE37YFrNMw8G/BVvObeQfEd7gcY/59favq9o801Ysf0oA+V38VftgO6t/whfwVXbzx4jvef8AyVqQ+L/2wmH/ACJPwV/8KO9/+Ra+ptnFOHSgD5XPi79sIL/yJXwT4/6mS9/+Raii8V/tgQszf8IX8FTuOefEd7x/5K19WkZppjyKAPlC+8Tftf6jBs/4Q34Kph1fI8R3vUEHH/Hr3xVk+L/2wsf8iV8E/wDwo73/AORa+pDDzxUlAHynb+Kv2wLdNq+C/gqeSf8AkY73/wCRaG8U/tgGYP8A8IX8FRgYx/wkd7z/AOStfVQSlZdxoA+VZfFn7YDR7f8AhC/gnz6eJL3/AORaeni79sJUA/4Qr4J8cf8AIyXv/wAi19TBKcBgUAfJsfiX9r+LUZJv+EN+Cv7xQCP+EjvcDGen+i+9TS+Kv2wJ1X/ii/grwd3/ACMd7z/5K19UGLLf0qQDAoA+Vv8AhMf2wSMf8IT8E/8Awo73/wCRaVfF37YS9PBXwT/8KS9/+Ra+qMUAYoA+U18U/tgC4aT/AIQv4KZIxj/hJL3H/pLTNQ8T/tfXtpJCfBnwVXzFxkeI73jPf/j1r6u280xoix64oA+V4vF/7YHlhf8AhCfgr8oxn/hI73/5FpYPFP7YETMV8F/BQ7jk58R3v/yLX1SqbB2pwGBQB8qTeKv2wJHUt4L+Cvy8jHiS9/8AkWlbxf8AtglSP+EK+CnIxn/hI73/AORa+qGXJoCcUAfKsXi79sCCML/whfwVOO//AAkd7n/0lqM+Jf2wJNQjuF8G/BXKIU2/8JHe4OSOf+PX2r6uMQNNMexqAPlmfxX+2FLEVPgv4KrnuPEd7/8AItA8X/tgBMf8IV8FOOP+Rjvef/JWvqcghee1YvjzxvpXw68K3uta1fW+m6Zp8ZlnuJ3CpGoGSST/AC71Dklq9gPm8eMv2vl5/wCEL+Cp5/6GO94/8laRvFn7YBnWT/hDfgrwMADxHe4P/krXp3wD/bM8A/tJ6reWPhbVpri9skEj291aS2kjoSQGRZFUsvB5GR716tHJuH0Oad2n3Fe58vz+L/2wZImX/hC/gphgRkeI73j/AMlahsvFn7X9paxxjwZ8Fm2AAE+I73n3P+i19UGcOPrRjH4mncZ8tJ4s/bAWVn/4Qv4KncOR/wAJHe4H/krRJ4s/bAlC/wDFF/BVcHIx4jvf/kWvqVT8/HWkJy30oiHofL48Z/thY/5En4J/+FJe/wDyLTIPFf7YEC4Hgv4KEE558R3vH/krX1KZfpxSLNg0K7dgvofKt14n/a+uZYZP+EN+C48lywA8R3vPBHP+i+9Tt4u/bAljZT4L+CvQjI8R3v8A8i19R9s/5NAfHt7Uua24bny7F4v/AGwI4lX/AIQv4KYUYyfEd7/8i0f8Jl+1/G//ACJfwU5/6mO9/wDkWvqJJME/pTS67Q3FUGz1Pl1/Fn7YErK3/CF/BX5Tkf8AFR3v/wAi0p8Y/tgD/mS/gr/4Ud7/APItfUpfcD/L0piyfjnpU8zA+WNO8T/tf2VttXwZ8FWyxbJ8R3ueST/z61I/i39sAzbv+EL+CvTH/Ix3uD/5K19SF8DFBf5ccelEZMOx8ty+Kv2wJV2/8IX8FRnv/wAJHe//ACLTh4u/bAUY/wCEJ+CnH/Ux3v8A8i19Sw5fP6VKRmqA+U4PFf7YMUjY8F/BU7znnxHe8f8AkrUepeJP2wLyBVbwb8FV2uHyPEd7k4Ocf8etfV6rtpJE3igD5XHjL9sBv+ZL+Cvv/wAVHe//ACLTYPFX7YFum0eC/go2Dwf+Ejvf/kWvqlYsUoTFAHyyfFv7YWc/8IT8E/8Awo73/wCRaZN4r/bAlAX/AIQv4KjB/wChjvf/AJFr6rpCuTQB8r/8Jl+2CB/yJfwT/wDCjvf/AJFqtbeKP2wLZpm/4Q34LHzn3EHxHe8cdB/otfWGzim+R/8AW9qAPlZvFX7YDSI3/CF/BX5Og/4SS95/8lae/jD9sJxj/hC/gnz/ANTHe/8AyLX1QY+KUrkUAfKsfi39sGJFX/hC/gocDv4jvef/ACVpF8VftgCcv/whfwV5GMf8JHef/ItfVQTmnYxQB8n6h4p/a+vLOSFvBvwVXeMZHiO9yP8AyVqePxd+2EkahfBXwT2gAD/ipL3/AORa+pTDmpAMCgD5Ti8VftgRFv8Aii/goSxJwfEd7x/5K07/AIS79sEH/kSfgnx/1Ml7/wDItfVDJmlVcCgD5Vn8WftgXCFW8F/BXB/6mO8/+RafH4u/bCVAB4K+CfHHPiS9/wDkWvqjFC8CgD5PXxJ+2BDeyTf8Ib8Ff3gAI/4SS9wMZ/6dafJ4r/bAuCP+KL+Co2kHjxJe8/8AkrX1W0e5qEj2UAfLP/CY/tg7cf8ACFfBT0/5GO9/+Raji8V/tgQpt/4Qv4KtyT/yMl7/APItfVRTJoVdpoA+VT4r/bAecSf8IX8FeARj/hI73/5Fon8X/tgSxsv/AAhfwV+YEZHiO94yP+vWvqooTQY8igD5TtvFf7X1vbRwjwX8FW8tQAT4jvcnH/brSx+LP2wIpmYeC/gqd3Y+I73j/wAla+qli2/XvSiPBoA+Vz4w/bCb/mS/gn/4Ud7/APItDeMP2wnjYN4L+CnPGR4jveP/ACVr6qxTWTIoA+VYvFn7YEMar/whfwVx0z/wkd7/APItRN4l/a/bUluP+EN+Cu5UKBf+EjvcEE5z/wAetfV5j4pBHhv6UAfK03iz9sCdCp8F/BUZ7jxHe/8AyLTh4v8A2wQoH/CFfBTjv/wkd7/8i19UBOaXHFAHypD4r/bAhLf8UX8FTuOf+RjveP8AyVol8VftgSurf8IV8FflOePEl7/8i19VeXTsYFAHyuPF/wC2ER/yJPwT/wDCkvf/AJFqvZ+KP2vrGDy/+EN+Cr4JOT4jve5z/wA+tfWFR+Tk0AfK48V/tgNN5n/CF/BX0A/4SO9/+Rac/jD9sFv+ZJ+Cn/hR3v8A8i19UquBS4oA+Vf+Ev8A2wAM/wDCF/BP6/8ACSXuf/SWi38V/thRJgeC/go2STz4kvf/AJFr6o2c0qrtoA+T7zxL+2BcXdvIfBvwVVoCSAPEd7g5GOf9FqV/Fv7YE0bL/wAIX8FeeMjxHe//ACLX1S8e80qLsFAHyqniz9sCNF/4ov4K8DH/ACMl7/8AItcL4y/al/ar8D/GPwv4PufAfwgk1DxcJjbSJ4iuzHH5SbjuJtsjI6YBr7ikHmf56180ftFLj9vf4KHPRNQHX/pgaA1vYyZPFf7X1yox4L+CwOQf+Rjvf/kWpD4x/a+Yf8iX8Ff/AAo73/5Fr32w+Leg33xIvvCcN8ja9p9sl3cWwB3RxMSAxOMckGpPh/8AFHQ/iYmpNo96t4NJvZNPuSAR5U8Zw6nPUg0rK9w16o+ebLxL+2BZGYr4N+CreYxfnxHe8f8AkrUzeLf2wHdX/wCEL+Co29B/wkd7/wDItfUQYEt3705Xz/npSvbcPQ+Xf+Ex/bAb/mSvgp/4Ud7/APItO/4TD9sDb/yJfwU/8KO9/wDkWvqAOFanLJubFNMD5Zj8V/tgQFm/4Qv4KtuOTnxHe8f+StR3nib9r6/SNf8AhDfgqpRw/HiO95I7f8evSvqvPr3pfJwf5+9MNep8tt4w/bC28+Cvgp748R3v/wAi1HB4q/bAgTaPBfwUbnv4jvf/AJFr6sIyKaEoA+VT4p/bAM3mf8IV8FemMf8ACR3vI/8AAWibxX+2A8e3/hC/gqufTxJe/wDyLX1Wy7qTZmgD5ZXxf+2Eqj/iivgnxx/yMl7/APItVovEv7X8V/NN/wAId8Ff3oAIPiO9wMen+i19Y44qMxZP9KAPleXxV+2BJt/4ov4Kjacj/io73n/yVp//AAmP7YJGP+EK+Cf/AIUd7/8AItfVIGBRigD5XTxf+2EF48FfBP8A8KS9/wDkWo08U/tgLOz/APCF/BX5uCP+Ekvcf+ktfVgGKTbzQB8o33if9r+8tZIT4M+Cq7gOR4jvcjnP/Pr7VJH4v/bA2Af8IV8FMAYz/wAJHe//ACLX1O0RJPPWnBMLjigD5Vt/FP7YMW7b4L+Ch3HPPiS9/wDkWlk8VftgvIrHwV8Fcr0A8SXv/wAi19VgYprLk0AfK7+Lf2wXRl/4Qr4KDIIyPEd7/wDItNj8X/tgQRqv/CF/BU4HfxJe5/8ASWvqvYKQxZoA+UV8S/tgPqC3C+DfgrkIUwfEd7g85z/x61NdeK/2wZotreC/goMnqPEl7/8AItfU6RbG/pTmXdQB8rJ4u/bBAA/4Qr4J+nPiS9/+RaX/AIS39sJR/wAiT8E//Ckvf/kWvqgLilIzQB8pjxV+2ALjf/whfwVzjAH/AAkd7j/0lp1z4r/bBmt3VvBfwTAYEZHiO94yP+vWvqgJg0rruFAHyjaeKv2vre1SP/hDfgq21QMnxHe8j/wFrK8F/HD47aN+0da+E/iN4d8B2Fn4m0G9u7R9F1e4utjW4GdwkhTGQ4wRnpX2B5W0V85fH0rD+3J8Ocn73hfW+p9oqAP5b/jT8Qtfi+Mfixf7W1EbdZvBgXcmB+/f3orI+ODD/hdXjDp/yG73/wBHvRXVoZn7xf8ABvx/yju/ZO/7Afjj/wBSGSv1StP+PWP/AHB/Kvyr/wCDfo4/4J2/snZ/6Afjj/1IZK/VKzkU20X+4P5Vzy2Roih4x8P2/irw1e6fdIHgvImiceoIIr4w8KaH4n+JXjnUvCN9dw6ZZ/B9ZEs9VmAaF7mUZtnGSAWjhYA5PVq+1tc0uPWdKuLOUsIrlCj7GKtg8HBHIPvXnnhb9lXwb4P+GGqeEbTT520jWmke9864eSadnPJaQksT0AOeMDHSudxfNzeQpa6Hw54z/aX+J/w2tb7wIuu+ONWvLnxDb2SXyQRPrKQPEXYxDAQKzcoSDx61p6Z8X/ir8RdI8C+DtS8VeMPBs914pu9MbUSYI9VvLWOAyIZRhlDZ4PAzgcCvqvTv+Cfnwz07wHdeHV0m8ls7yZLh55b6V7pZEGFKzE7wQOBg8Cn+Bf2B/ht8OfEWi6ppukXH27QHlktJZruSZhJJw7sWJ3MQcZPOOK0jK245yStZGF/wTu8UeIvGvwA1SDxF4i1LXtS03XdS0tNSuyhuHjiuHjQkqAMhQOcV714b0iTQNFt7Sa8uNQkhGGnnIMkvOckgAZ57CsPwB8IdD+GXh280vRbT7HZX9zPdzKrn5pZnLSMDnIJYk+1b3h/w/D4c0i3sbYy+Rbjahkcu2OvJPJq5NN6BLV3NQdKKax+WgEAUgHUUm4UbhQAtFAOaTcKAFooBzRnmgAooJxQTgUAFFAOaCcUAFFG6jPNABTJ/ufjTtwpkzZSlLYD89f8Agsz5sutSLbsqTnwLqojZhuVW7EjjIBxxXH+MfDvxl8M+MP2dLrx94t8H6x4eGrI9tBp2jyW08RFo5BZ2lcEAdRgZr6S/ab+G2kfGD9tzwP4b1y1F5pGr+GNSguYSdvmIeSMjkdK9r8V/s+eF/GcXhtdQ05bhfCcon0wFiPIYIUB46/KSOa5uVqTkaOonHl8mfB3hv9qXx1rP7Tejx6V4z8VJo/iy41Kyjm1eCKPRYxGuI3t1GHJQjklsVH8Wfjh8U/hl4R8ReG/+Ex8Z6hdx+ItJtoLu3ji/tWaK4J837MMFPLOPkyCcdzX1hpv/AATW+Eul63Jfx+H5mmeea4RXu5HjgaYESbFJwuc8gYFPb/gnB8LZPBV7oD6XqD2N7cxXkjtqMrXCyREmMrKTuULk4AOBW/M9DPDy5X7+x8pP+03440z4X3HhfU/FXxGt9afXpILOJLWFvEj24hD4ckCNQGOc4PFXvgt+3n4+sdA+Fc93beKvF39qxa1bXtvZQpLd3BtzEI5ZcYGQGOSMDJ6V9PP/AME3/hXceG7fTJtJ1CWO0vTfx3D6jK115pXaSZSdxBXjBOK6z4dfsh+A/hbLpB0XRltP7DFyLLEjMIftBBl6nnJUdfSnSum3Myndzi47X19D4c8Fft//ABF1eztLZdUu/wC3PEOgahJp1ldRqskFwlyyq7KOf3aAZ7cVylr+2X8aPHvhvw1a2ep+NLnVNF8FWOtyXGkW0TQ6jdymQMbssRiL5AMDHU819/6F+w98N/D3i211618OwrqtjaXFjBOzlmjincvIACcAliTnrWZ4m/4J4/C/xTp2i2c2hzQ2+hWi2FuttdyQl4FORFIVI3qOcA5HJ9ar2i5dtb7msdHP70dt8C7rVvEXgvT/ABBrFxdLfavYwSTWRZTDbSbBu2Y6Annqa72ORmbHNYHhb4eab4LLnTo5LeMxRwrF5haONUGAFXoOAOlbqPt6/jU813oTHRFkdKKar5Wl3CqKFopNwpA4NADqKaHBoMiigB1FJuFLu4oAKKC2KTcKAFopA4YUbhQAtFAOaAc0AFFJuFAcHvQAtFN8xfWnUAFFBOKAcigAopNwo3CgBaKTcKNwoAWijdQGzQAUUm4UbhQAtFIXAo3jHWgBaKQuAKNwoAWmyHApdwpGIYdamV7aARtnZXzX/wAFMt0vwl8MR3W3+wZfFGnrrIcgRm1Mnzbu23OM54r6WIyKwPiB8P8ASPiZ4VvNE1yxh1DTL+MxzQSgMrg/1HUHtUO+gKy0PHPj/wCHfA5nsWs9atfC3jiTR7gaHqFqVWaKEKpYgYIKgheSMDPFfHfhX9u34peOfgR4m8YSa1ffaxqtv4SttO0pFkmtgD817tYD95IDkE8Yx1r7S8Nf8E+fhn4X0vULWLS7+5XUYfs0kl1fyzyRxZyURmJKqcDIGAcCtPVP2Ifhzq66nv0CONdXs4bG6WKRo1dIs+WQAcB1zgMOeBzxS5XryhdJWaPi63/af+Mvhq30/S3uvFtrDpHiGKRLjW0iXUNUtfLDyQyqnAA5wcA4NXPEX7cXjSb4z/FDVJvF11p/geTRrOPw7HaW4mkSVpZIpJI8nBdpAVGeAVFfYHgr9h34d+AdLSzsdJmkVbl7ozXV088zyMmwlnYkkY4AJ4qvefsAfC+/8Htocnh1f7PayXT9gmdWESyNIAGByCHdjkc5NZ1Izkvd8gp2XxHjv/BMH46eLvHnjL4meHfEWqeJtTt/DF5bpaN4gEa6hEJIFkYP5YAA3EkDGcV5j8SfHfxGsNc8Q+NLX4neLLeHTvH8eiRaMjRf2f8AZi0Y2kFN2fmPOa+zPgV+yh4L/Z0u9TuPCumzWdxrGz7ZLLO80lwUUKpYsSSQoAzU2p/sreCtY0u9srjSVe3v9VGtTIXOHugQQ/5qOPaui/vJvtqZte+rbX/A+OfBv7W/xA+Nnjr4Z6LpXia5tdFn1W40jX7+BV8yed0kKIrEEAxgA9DyR6VYs9f8YfBfwf8AFHVtX+L3jzVBot9/ZOnRzpBO6lyACihFzJzgEnGe1fXHgv8AZE8A/D3T9Ht9H0GGzh0PUZNVtAjEbLh87pCe5O49ad42/ZO8E/EDwt4g0XVNJ87T/E04uL5VlKs8gOQ4YHKkEDBHSspxlzJxYNX273+R8M/Cn9tD4ieDL3VNPmufHfiRdI8T2lstpqMUT6vLDKjFomVQFHIBA6gV1F5/wUD8Waf8R5L7Ul1nQ7GTxBPp8Oi6hGsdw58hPKhwM8l24x619TfD/wDYa+HPw1vPtGl6PItwbmK8eaW5eSR5YwQjsxJJIBIya1Nf/Y88AeKfGln4g1DQ4brU7HUv7XhldyQl1s2eYB0zt4qKkJNx19TOEZWfmz4i1H9oD4s6j8K9HXxB4s8SW99ceJ76wuY/DcUf9qzEDMUUSuGBVc/MSO3WvZvgD+0n4s0f/gmTqfjjUrnVdY8SaRb3u2TUkAuiY5XRfMCgDcABnA6ivfNN/ZP8EaN43t/EEOl/8TO2nnuYnaVmVJJ8eY4UnGTgDPatvwz8E/DfhPwFc+F7PTo10S7MpltnO5XMhJfOfUkn2rr5oqDXW/5F0eaMVz9GfGfxD+IvxK/Z9/Z1bWofiPqvi+88XRWXlWxiik1DTGmY73hAwNu0gKCpwRyT0rlbf9pL4w+FtGXSWvvF1qmk+IrUwXOvpEuoX9s0btLFKqcADaMHaCQTX1t4c/4J8fC/wv4d1jTYdFuLiDW0WKdrm7kmkRQSVVGYkoFJJAGMGrngv9h34d+A9DNlZ6TcTI9ybt5rq7e4nkk2FQWdiSQFJABPGTXPJS5Zf12LldtaHxr43/bn+It58YvH2uaTrl1ceD7aysRolhaRq7SMJgszqT1LliuO22vVPi//AMFHvI0LwzNFDrng/ULDXrS11ex1SERTzxSISABkghiABjvXtj/8E/vhfJ4Ql0RfD/k6fNbfZCsU7owj3mTAYHOdxJz1qHR/+Cdvwq0jRYdPl0GXUYYb+HUkN/dyXMnnxf6slmJJA7DOKzoxnGo3LYvS6sYP/BOX4p+Nvihb/EWXxtfG6ntfEcq2EGwL9gtioaOL3IHJJ7mvpquY8CfDLRfh5e6xc6TZi1m1y6N5eEEkSyEAZ56cAcCum3CumItbai0UE4pu8ZqgHUUm4UoOaACignFJuFAC0UhYCk3jNADqKTcKNwoAWignApNwoAWimiRT3pxOKACijPFAOaACignFN3jNADqKaZADSlwKAFopNwpc0AFFJuFKTigAopNwpaACijdSFwDQAtFBOKaZFB60AOopNwpaACik3ClDZoAKKN1JuFAC0UhcCjcKAFopNwo3CgBaKTcKUHNAEcy5Ir5n/aLGf29Pgr/uagf/ACAa+mX5NfNH7RHH7e3wTH+xqP8A6JNHkB5B8T/DvxU1/wD4KV+Kj8NfEnhnw/Ivhi1+1nV9Me9Eo8x8bQsiYI565rzr4D+KPiBEsHw5uPFkmh614w8ea0NW8QaNALfY0K+ZiJZN4UM3GDniv0KsfhDoOm/Eu+8XQ2W3XNRtks57gMfniQkgY6cEmuO8YfsS/D7xz4YutKvNKmjt7zU5NXke3uXhnFzJ991dSCue4BxihStp5G0qkZJ/gfGnw4/bR+IWi/HbwTBrXieS98NaNa6jDrLbVVdR8udIopmI4BG7JI4zmsLTf22vixr3g/xRDNqniK6PiLx1HZaY+j26Nfadp8kBlSOINxuwByc9+K+35f2CfhjdeHU0tvD6fY4tOk0oASsGMDuHYbs5JLKCT1zU+r/sRfDvVvCepaLJopitNUniuZTBO0ciyxII0dGBypCjGQRVScWvPQnnil8j4kh+PHxm8Y+P/hd4BufGHiTweusanq1pc316kK6ld28MAeIuBlRKCTzj8K+tv2EfGfiL4p/DmG817xBdapeeHL260qSZNoj1MRyELK4A+8AACQQM54rzn4v/APBMXRfEvxi+FcOj6XNH4K8MtqU2qsdQkW7Ms0QVHD53sSQcnPSvpL4bfAfw38I9K0uy0GzksbXSY2jgiWVip3HJLZPzMTzk881Mt9OxjLdWO6Eu7HvU1V4xz+tTh6S1KV7ai0Um4Uu6mAUUm4UueKACik3CjcKAFoozxSbhQAtFIHBo3CgBaKTcKQSKTQA6im7xmnA5oAKKCcUm4UALRSbhRuFAC0Um4UbhQAtFN3qKXcKAFIyK+b/j5Es37c/w5Vhn/il9b4/CKvo7zVzXzl8ejn9uf4c4/wChW1v+UVAH8rHxvhb/AIXT4v8A+w3e/wDo96Ki+Ocn/F7PGHP/ADHL3/0e9FdBmfu//wAEBrj7L/wTi/ZTl2s3l6B45bAGWOPEEhwPevsCb/gokNOmaH/hWPxEm+zsY96aYxV8cZHqDjNfCH/BP/wr8fP2X/8AgmB+zPD4P+F8OreNvC8Hiqx17QfEV6mkXGmR3eszzQuyTMjZdArAc/K4PQivbYf23f21IYlX/hnHwC20AA/8Jda//H6zUbpNFc1m1Y9+P/BSATRfL8L/AIkDnkf2U2aaf+CjCyx/8kv+I/HUf2W2TXgcP7bv7asS/wDJuPgFuSefF1r/APH6Uftv/tqbt3/DN/gD/wAK61/+P0vZNq2gcyeh72v/AAUbAiLf8Kv+JCj0/spqD/wUa3Ln/hV/xG47HSmBNeByftu/tqSJj/hnHwCv08XWv/x+g/tv/trY/wCTcPh/+Pi61/8Aj9L2L8gUttD3uP8A4KQRtu2/DH4jsYzggaW2QakH/BSFcBj8L/iR1Ix/ZbZr56tf21P21be4mk/4Zx8AHziGI/4S614IGP8Anv7VI/7bf7aryK3/AAzj4A+U/wDQ3WvP/keq9jL+mF7dD6CP/BSBVG7/AIVf8SNuOn9lt/KkX/gpECm7/hV/xI29Mf2U1eAt+2/+2oR/ybf8P+mP+Rutf/j9JH+25+2qi4/4Zx8AN9fF1r/8fqvYy/qwuZdmfQP/AA8hXb/yS74ke4/stqZL/wAFIVghaQ/C/wCI6qOTnS24HrXz+P22/wBtUOW/4Zy8AYYYx/wl1rgf+R6ZeftrftqXdu8f/DOXgBVdSCR4uteM/wDbej2b8vvQcy7M+hU/4KQL5Yk/4Vf8SCCMjGltQv8AwUhUDd/wq/4kfT+y2r5+h/bb/bViiVf+Gcfh+doAz/wltrzj/tvSR/tuftqxs3/GOXgFgxyAfF1rx7f6+j2T/poOZdmfQTf8FIAi5/4Vd8SOen/Eraj/AIeQiNN3/Cr/AIkf+CpuK+f2/bc/bWP/ADbj8P8A/wAK61/+P0Sftu/trOhX/hnHwCM/9Tda8f8Akej2Mv6aDmXZn0Af+Cj6gbv+FXfEgg+mltTT/wAFJYxLs/4Vf8SC2ASBpbZArwJP23/21VUL/wAM4eADjufF1rz/AOR6hH7an7ai37Tj9nLwB86BSD4utcDHf/X+9L2UutvvQ+byZ9Bv/wAFIVgGW+F/xH5P/QLanSf8FIVQf8ku+JHT/oFNXz7L+23+2tIgH/DOPgAYOePF1r/8fp3/AA3B+2rj/k3HwAf+5utf/j9P2T/poOfyZ78f+CkKgA/8Kv8AiQc+mlNxQ3/BSBY2H/Fr/iP83QDS2r5/T9tv9taP/m3HwA3Pfxda/wDx+g/tt/tqmRW/4Zx8AcDp/wAJda8/+R6PZP8ApoPaep9BSf8ABSBUX/kl/wAR+mf+QU1Rj/gpJHLErL8MPiQysMgjSmNeBv8AtvftrMv/ACbj8P8An/qbrXj/AMj1FZftqftqWNpHF/wzl4BbyxgZ8XWvP/kej2T/AKaD2nqdN41/bB1TWP2xfBfi+H4W/ERtJ0bSLuzuCNMbcHkztx7c167J/wAFHFjO3/hV/wASDn00pq+f0/bb/bVWZm/4Zx8AcgDH/CXWvH/kenH9uD9tQ/8ANt/w/wCuf+Rutv8A4/U+wl5feg+R783/AAUb8v8A5pf8R/r/AGW1H/Dxlc4/4Vf8SOe/9lNxXgLftw/tqFf+TcPAH1/4S61/+P02P9tv9tWNNv8Awzj4BOO//CX23P8A5Ho9i/L70K/qe+S/8FHkS4WM/DH4j+YwyB/ZTcinP/wUYWNv+SYfEf6/2U1fPr/tpftqPeRzf8M4+Ad0alQP+Eutec4/6b+1TP8Atu/trSIy/wDDOPw/XPf/AIS61/8Aj9HsX5fgJSS2R77/AMPGwDtHwv8AiRz3/stsUH/go6rHZ/wq/wCJGfX+ymrwIftvftrBcf8ADOPw/wCmM/8ACXWv/wAfpE/bc/bVQtn9nHwAcnP/ACN1r/8AH6PYvy/ArmSWzPfx/wAFHo4yF/4Vf8R2zgAjSmxTv+HjSq23/hVvxI57/wBltivn0/tt/tqyMv8Axjj4AXbzx4utef8AyPT/APhuD9tX/o3HwB/4V1r/APH6PYv+mg5u1z3uH/gpHHN934Y/EZgCRkaW2MjgipT/AMFHlEm3/hV/xI3dv+JU1fPFl+2l+2pZxMo/Zy8ANlywz4tteMnOP9fUn/Dbf7axkDf8M5eAeARj/hLrbn/yPVexl/Vg9p6n0Ef+Cj4Em3/hV3xI+v8AZbU4f8FHV37f+FX/ABI/8FbYr59P7b37axH/ACbj8P8AP/Y3Wv8A8foT9t/9tZR/ybj4A/8ACutf/j9Hsn/TQe09T39f+Cj6ySbR8L/iP8pwT/ZbYpkv/BSSNZkQ/DH4jqzHAzpbcnGcfoa8Ch/bb/bVjz/xjl4BbJzk+LrX/wCP1Beftn/tqXU0D/8ADOXgBTA+8Y8XWvJwR/z396PZP+mg5/U+h1/4KQAuV/4Vd8SOBnJ0psfnSx/8FIEkbA+F/wASP/BW2K+fz+27+2oUI/4Zx8AcjGf+Eutf/j9JF+23+2tGoH/DOPgE4HU+LrX/AOP0eyf9WD2nqfQP/DyJGl2/8Kv+JHH/AFC2po/4KRKx/wCSXfEgYPU6W1fP/wDw21+2oJC3/DOPgDBAGP8AhLrXj/yPQ/7bn7azJj/hnHwCOc8eLrX/AOP0exd/+Cg5vJn0GP8Ago6GLBfhf8SPl5/5BTc1FB/wUkSZ3Vfhj8R2KHkf2W3B9K8E/wCG4P21SP8Ak3D4f+n/ACN1r/8AH6r2v7aP7alrNM3/AAzl4APnPvP/ABV1txwB/wA9/aj2MvL8A9p5M+h/+HkCs2P+FX/Egf8AcLagf8FIFY5/4Vf8SBj10tq+fX/ba/bVaRW/4Zx+H/B5H/CXWvP/AJHpx/bf/bUP/Nt/w/8A/Cutf/j9T7OXdfgLmXZn0Cv/AAUfVh/yS/4kceulNSRf8FH1k3Y+F/xH45/5Bbc18/j9t79tQf8ANuPgD/wrrX/4/TY/22/21o2b/jHHwD8xz/yN1rx/5HqvZS8vwH7T1Pfpf+CkccSb3+GHxGVQQBnS2GSTgCpE/wCCkCuu7/hV3xIXHrpbV88X37aH7al9B5bfs5eAVw6vkeLrXsQcf6/2qc/tvftqY/5Nw8Af+Fda/wDx+p9nLuvwDm8mfQC/8FIVlQsPhf8AEjj/AKhTChf+CkCt/wA0v+JHAzg6Wwr5/i/bc/bVjTH/AAzj4Bbkn/kbrUf+16T/AIbe/bW8wN/wzj4B4BGP+Evtcf8Ao+mqUvL8A5vI+gW/4KRKE3f8Kt+JAx1zpbUD/gpArLu/4Vd8SMf9gtq+f5P23P21ZEx/wzj4AGfTxda8f+R6B+25+2qoH/GOPw/OB1/4S615/wDI9P2L/poOf1PfI/8AgpIkjso+F/xH3KASDpbZGakP/BSJQm7/AIVf8SOuP+QW1fPCftn/ALakd/JP/wAM5+AP3igEf8Jda8Yz/wBN/epZP23P21pQP+McfAK4OePF1r/8fo9jLy/AXMuzPoIf8FH1aPd/wq/4kY6/8gts0L/wUfVl3f8ACrfiRj/sFtXgA/be/bUxj/hm/wCH/wD4V9r/APH6Rf23v21AP+TcfAB/7m61/wDj9T7OXdD5vJnv/wDw8hXGf+FX/Ej6f2W1JN/wUkWCBpW+F/xGVVBJzpbV4B/w25+2oHZv+GcfAPPQf8Jda4H/AJHpl7+2r+2pe2UsJ/Zx8AqJVKkjxda8Z/7b0/ZS8vwDm8mfQa/8FIA0W7/hV3xHIPTGlsaVf+CkC4z/AMKv+JGBxj+y2zXz+n7bn7asaBf+GcfAHAA/5G617f8Abeki/bb/AG1Yt3/GOPgDk558XWvH/ken7J/00HP6n0BJ/wAFIlUZPwv+I+CcY/sts0r/APBSAIm7/hV3xI/8FbV8/Sftt/tqysv/ABjj4AGDk/8AFXWvP/kelP7b37apXH/DOPgHp/0N1r/8fo9k/wCmg5/U9/P/AAUgXZu/4Vd8SPQY0ts0xv8AgpRHHKqn4X/Ejc4JA/sps49a8BH7bf7awjx/wzj4AyO58XWv/wAfqM/toftqPqEdwf2c/APyIUx/wl1rg5I5/wBf7Uexl/TQuZdmfQj/APBR/ZHu/wCFX/Ej/wAFbUf8PHV2g/8ACr/iRz6aU1eATftvftrOm0fs4+AF4x/yN1rx/wCR6Vf23f21FX/k3HwB758XWvP/AJHqfYu1lb8B8y6pnvjf8FGQvzf8Kv8AiQ2e39lsaVv+Cjapt/4tf8R8HsNKY14Cv7b/AO2qD/ybh8P+v/Q3Wv8A8fpf+G3f21DKG/4Zx8AcDGD4utv/AI/R7F3vf8UHP6/ce+T/APBRxEi3f8Kv+I3Az/yCm4pqf8FIleNWX4X/ABHZWGQRpbcivBJf23P21pYmX/hnH4fjcCM/8Jba8f8AkeorT9tT9tS0s44f+GcvADCNQvPi615x3/19L2Hn+Ic3qfQR/wCCjahsf8Kv+I578aU1Ev8AwUdVHXPwx+I/PHGlNXgP/Dbn7a25j/wzj4BORgD/AIS61wP/ACPQ/wC23+2q4GP2cfAC4OePF1rz/wCR6r2Lf/DomMrH0FL/AMFG1AH/ABa74kfhpbGmL/wUeUH/AJJd8R/bGltXgY/bf/bUxj/hm/wB/wCFda//AB+mR/ttftqovP7OXgE89/F1r/8AH6XsJeX3orm9T32X/go/HbzKp+GPxG3SHAH9lNyafJ/wUbVT/wAkv+JH1GlNXz1dftp/tqXU8Mn/AAzj4BUwsWA/4S6154Ix/r/epZP23v21GXH/AAzj4A6Yz/wl1rx/5Ho9i9NUHN6/ce/N/wAFGlcD/i1/xI5HUaW3FB/4KNKjhf8AhV/xI/DS2NeBxftvftqRoq/8M4eADgdT4utef/I9B/bf/bULZ/4Zw8Af+Fda/wDx+j2L7r7w5k31PfG/4KOKpCn4X/Ef5un/ABKmo/4eMBTt/wCFX/Edu2f7KavA3/bc/bVLKf8AhnHwDwckf8Jda8/+R6cf24P21D/zbh8P/wDwrrX/AOP0exfl+AKXke8R/wDBSBZgNvwx+Izc4yNLbHFSP/wUZUSBf+FX/EfJ/wCoU1fPtl+2n+2nZQ+X/wAM4+AGG4nJ8XW3c5/570//AIbZ/bU87d/wzj4B4GMf8Jfbf/H6XsZd1+A7o9/X/go75blf+FX/ABH+v9lNinD/AIKQrv2/8Ku+JH1/stsfnXgEn7bn7akq/wDJuPgAZ7jxdbf/AB+lX9tz9tRP+bcfh+f+5utv/j9P2cu6/AOZHvw/4KPqzbf+FXfEj/wVt/Oo5/8AgpLHCV3fC/4jL82MnS26mvA1/ba/bUVmP/DOPgHk5APi624/8j1HfftpftpXsSr/AMM5eAF2uHyPF1t2Of8AnvR7N+X4BdH0In/BR4Btv/CrviR65/stqE/4KRLJx/wq34kdf+gU1eA/8NuftqD/AJtx8Ae//FXW3/x+mxftuftqRrj/AIZy8AnnPPi62/8Aj9Hs3/TFzH0D/wAPH1L7f+FXfEj6/wBltSH/AIKQqW/5Jf8AEjg99LYZrwA/tvftqb/+TcPAH/hX23/x+km/bb/bUlH/ACbl4AGDnP8Awl1t/wDH6lU33X3hzLsz6CX/AIKPiR8f8Ku+JHXqdKao4f8AgpEkzsq/DD4jMUOD/wAStuDXgn/DcH7af/Rt/gD5f+putf8A4/UFn+2r+2naSzN/wzj4BPmvv/5G6144xj/X1Xs2HN5H0IP+CkKsf+SXfEj/AMFTUf8ADyAPnHwu+JHHOTpbCvAD+23+2kXVv+GcfAPHYeLrb/4/St+25+2lg/8AGOPgD/wrrb/4/S5X5feij36P/gpCJT/yS74kcdM6U1OX/gpCsmVHwu+JHHXOltXz+n7bf7aaoB/wzj4AbA6/8Jdbc/8Akemr+25+2pHIzf8ADOPgDkYx/wAJdbcf+R6fs3/TJ5j34/8ABSFY0Z2+F/xGVUGSTpTYAp0f/BSATDP/AAq/4kBQM5OltzXz3eftq/tqXlvJGf2cfACiQYJHi614/wDI9TJ+29+2oiAf8M4/D/gY/wCRutv/AI/R7P0+8fN5Hv0f/BSHzAcfC74ke+dLahP+Cj6yDP8Awq74kDHrpjDNfP8AF+27+2ohb/jHHwA2ST/yN1tx/wCR6k/4be/bT/6Nx+H/AP4V1t/8fo9mxcx75/w8gDLk/C74kDHGDpbUL/wUe3DP/CrfiR+OltXgMv7bv7akqFf+GcfAC+48XWv/AMfo/wCG4P21Nv8Aybj8Pz/3N9t/8fo9m/6sO6PfF/4KTRySMo+F/wARtyDJB0tsgUo/4KQLt3H4W/Ejjj/kFtzXz5H+2p+2pHeSTf8ADOPgD96oUg+LrXjH/bepJP22/wBtR1A/4Zx+H64IOR4utuf/ACPR7N/1YObyPoFf+Cj6mIt/wq74kfT+ym5pE/4KQCRN3/Cr/iRgcf8AILbP5V4D/wANwftq4x/wzh4A5/6m61/+P02L9tv9tSNcN+zj4Bbnr/wl1t/8fp+zfl+AuY+gD/wUgXGf+FX/ABI+n9lNn8qRv+CkOI/M/wCFX/EZVUZOdLbNeAf8Nu/tqGUN/wAM4eAMAdP+Evtv/j9E/wC23+2pLEyf8M3+ABuBGf8AhLrXjI/671HJ5r7x3R9AR/8ABSNZIVcfC/4jspGRjS25oH/BSFQM/wDCr/iR9P7Lavn20/bY/bTtbaOP/hnHwCRGoUH/AIS+15x/23py/tuftqeYx/4Zx8A4boP+EuteP/I9HL5/iF0fQB/4KQKE3f8ACr/iR1x/yC2ob/go/hN3/CrfiR/4K2zXgLftwftpsR/xjf8AD/j/AKm62/8Aj9DftwftqMMf8M4fD8e//CXW3/x+j2bDm8j37/h5CPLDD4X/ABI25/6BTVG3/BSOMSbW+GHxH3MNwH9ltnH0rwOP9t39tRE2/wDDOHgFsf8AU3WvP/keoT+2j+2odRW4/wCGcfAHyIUC/wDCXW3OT6+fT9n6feF0fQrf8FIVVA3/AAq74ke3/EralP8AwUhVI93/AAq/4kfT+y2zXgEn7b37akq7f+GcPAK/9zdbf/H6cP23/wBtMD/k3D4f9P8Aobrb/wCP0uWXdBdHvp/4KQLt3f8ACr/iQcnp/ZbZob/gpCoK/wDFr/iPz0H9lNmvn+P9tv8AbUiLf8Y4+AWDHOD4utuP/I9En7bf7ajSKR+zh4AG3nH/AAl9rz/5Hp+z9PvC6PoH/h48qKD/AMKv+JHP/ULY1HH/AMFI0kj3r8L/AIjspJAI0tq8GH7cP7aZHP7N/wAP/wDwrrb/AOP1Ws/20/21LKDy1/Zy8AMAScnxdbdyT/z396Xsw5vI+gz/AMFIFTH/ABa74kcjp/ZbU9v+CjyoP+SX/Ej8NKavn4ftuftqLJu/4Zx8A8DGP+Eutv8A4/Tv+G3/ANtPH/JuHw/+p8XW3/x+l7N+Qc3ke/P/AMFIFX/ml/xIPuNLaj/h5CCAR8LviQc+mltxXgX/AA3B+2ptx/wzh8P+f+putv8A4/TIf23P21Ikx/wzh4APJOT4utv/AI/T9mF0e+z/APBSVYHRW+GHxGVpDhB/ZTc09v8AgpAE6/C/4kc88aU3FfPN3+2p+2ndXVvJ/wAM4+AV8hiQB4utucjGP9fU7ftvftplGX/hnHwDyMZ/4S61/wDj9Ll8194c3ke/n/go/hv+SX/Eg7hx/wASpsV4x8Yf2uNV8WftYfDXxRa/C34iNpvhlLsXhOmNuBkiKrgd+ax0/be/bUVAv/DOHgE4GMnxdbc/+R6RP23P21Fdm/4Zx8Ac9j4utf8A4/T5PNfeK/ke+N/wUdWE/wDJL/iRuP8A1C24pzf8FHdr7W+F/wAR+fTSmxXgMn7bn7ajrj/hnHwAOQSf+Eutf/j9Kf23v21CDn9nDwB7H/hLrX/4/S9nrfQPKx7zH/wUeV3K/wDCsfiM204ONLbANLL/AMFHNsir/wAKv+I/P/UKbFeAWf7an7adoZP+McfADGRy/wDyN1rx/wCR6kf9tv8AbUaRW/4Zw8AfT/hLrXn/AMj0ez9B3XY98/4eLbX2/wDCr/iNyeo0tqJP+CjJ8wL/AMKv+I3PcaU2K8FP7cP7ahXH/DN/w/H/AHN1r/8AH6UftwftpAf8m3+AP/Cutv8A4/T5fNfeK/ke9r/wUeAbaPhf8R//AAVtTJf+Ck0cDLu+GHxHXcQATpbYOa8Dj/bb/bUUsf8AhnHwCdx6Hxfa8f8Akeob/wDbQ/bTvFjU/s5eAcI4fA8XWvOO3+vo5X5Boj6H/wCHj4Lbf+FXfEj3P9lNigf8FIFY4/4Vf8SPr/ZTV4F/w3B+2mR/ybf8Px9fF1sf/a9Mj/be/bUjXH/DOHgA/wDc3Wv/AMfo9mx3R9A/8PIFMm3/AIVf8SPr/ZbYFIf+CkIDFf8AhV3xI+v9ltj86+fz+25+2p5m7/hnHwD0/wChutf/AI/Syftu/tqSLt/4Zx8AjPp4vtv/AI/Ry+n3hdH0Av8AwUfXft/4Vb8SPr/ZTVGv/BSNZZ2jX4Y/EbcmCR/ZbcV4Kv7cX7aY6/s3/D/gf9Ddbf8Ax+oIv21f20oryWb/AIZx8A5kABH/AAltrxj/ALb0cnmF0fQv/DyBWOP+FX/Ej6/2WwFIv/BR4M3/ACS34kYHc6W1fP8AN+25+2pKB/xjh4BXBzx4utef/I9O/wCG4v21Nv8Aybf4Az0/5G+2/wDj9HJ5hdHv0f8AwUfEh/5Jd8SBjudLYUJ/wUhWRmA+F/xI49dKavAV/bg/bUVf+TcPh/8A+Fdbf/H6Yv7bv7aqys3/AAzj4B5A4/4S614/8j0cnmF0e/yf8FI44kZm+F/xHVV6n+y2x1pyf8FIlf8A5pb8SPXnSm5r58vv21v20721eL/hnHwCu/GSPF1txyD/AM9/apU/bf8A21EXH/DOPgHjHP8Awl1r/wDH6OTzC6Pfo/8AgpAshbb8LviRx1/4lbUi/wDBSNWb/kl/xIGPXS2/SvAIv23P21Ig3/GOPgBsnOP+EutuP/I9Dftu/tqM6t/wzj4BGOw8XWv/AMfo5PMLo+gf+HkKvz/wq74kAAd9LakX/gpCsiEj4X/Ejj10tq8BP7cP7ajIV/4Zv8ADPceLrX/4/TB+27+2oqAf8M4+Ac4wSfF1rz/5Ho5PMLo9/X/gpIhm2f8ACsPiRuwTg6U2cetO/wCHkC7Sf+FX/EgY9dLavntf20v20/7RW4P7OPgH5UKAf8Jda45Oc/6+ppv23v203TA/Zx8AjkH/AJG62/8Aj9Ll8wuj35f+Cj4Zdw+F3xI4650thRH/AMFIVdc/8Ku+JH0/sps14Cv7cH7aijH/AAzf4A+v/CXWv/x+gftvftqAD/jG/wCH/wD4V9t/8fo5fMLo9+X/AIKQKwz/AMKu+JH0/sps0P8A8FIFWJmPwu+JACgk50tuBXgP/Db37anm7v8AhnHwDgDGP+Eutf8A4/SXH7bf7ac8LJ/wzj4BXepGR4utuMjH/Pejl8wuj32P/gpAssG5fhf8RypGQf7LbmuEh+P2ofH39rvw5rFr4I8WaPY+GvDOqJcvqNmYAzTCMIFz1J2n8q86tP22P21La3SMfs4+AMIAAf8AhLrXn/yPVe8/bJ/bRuY7j/jHD4fq9xEYyw8W2uQCCOP3/vTUfMLo/nu+NM8kvxj8WN5L/NrN4f8AyO9FfVnjP/ghZ+1T4u8Yatqz+BNAhfVLya7aMeJrH5DI5cj/AFvbOKK25o9yNT+k2iiiuc0CiiigAooooAKKKKACiiigAooooAKKKKACiiigAooooAKKKKACiiigAooooAKKKKACiiigAooooAKKKKACiiigAooooAKKKKACiiigAooooAKKKKACiiigAooooAKKKKACiiigAooooAKKKKACiiigAooooAKKKKACiiigAooooAKKKKACiiigAooooAKKKKACiiigAooooAKKKKACiiigAooooAKKKKACiiigAooooAKKKKACiiigAooooAKKKKACiiigAooooAKKKKACiiigAooooAKKKKACiiigAooooAKKKKACiiigAooooAKKKKACiiigAooooAKKKKACiiigAooooAKKKKACiiigAooooAKKKKACiiigAooooAKKKKACiiigAooooAKKKKACiiigAooooAKKKKACiiigAooooAKKKKACiiigD//Z;fontSize=14;strokeColor=#000000;movable=0;resizable=0;rotatable=0;deletable=0;editable=0;locked=1;connectable=0;" parent="1" vertex="1">
          <mxGeometry width="1314" height="929" as="geometry" />
        </mxCell>
        <mxCell id="ue7LdqcsoJ6JKhsqjlvM-1" value="" style="rounded=0;whiteSpace=wrap;html=1;strokeColor=#FFFFFF;" vertex="1" parent="1">
          <mxGeometry x="331" y="28" width="120" height="60" as="geometry" />
        </mxCell>
        <mxCell id="ue7LdqcsoJ6JKhsqjlvM-2" value="&lt;font style=&quot;font-size: 14px;&quot;&gt;&amp;nbsp;Г. Н. Меновщиков&lt;/font&gt;" style="text;html=1;strokeColor=none;fillColor=none;align=center;verticalAlign=middle;whiteSpace=wrap;rounded=0;" vertex="1" parent="1">
          <mxGeometry x="257" width="141" height="49" as="geometry" />
        </mxCell>
        <mxCell id="ue7LdqcsoJ6JKhsqjlvM-3" value="&lt;font style=&quot;font-size: 14px;&quot;&gt;Модель контроля продуктов в магазине&lt;/font&gt;" style="text;html=1;strokeColor=none;fillColor=none;align=left;verticalAlign=middle;whiteSpace=wrap;rounded=0;" vertex="1" parent="1">
          <mxGeometry x="267" y="58" width="212" height="30" as="geometry" />
        </mxCell>
        <mxCell id="ue7LdqcsoJ6JKhsqjlvM-4" value="" style="rounded=0;whiteSpace=wrap;html=1;strokeColor=#FFFFFF;" vertex="1" parent="1">
          <mxGeometry x="875" y="40" width="120" height="23" as="geometry" />
        </mxCell>
        <mxCell id="ue7LdqcsoJ6JKhsqjlvM-6" value="" style="rounded=0;whiteSpace=wrap;html=1;strokeColor=#FFFFFF;" vertex="1" parent="1">
          <mxGeometry x="538" y="888" width="213" height="22" as="geometry" />
        </mxCell>
        <mxCell id="ue7LdqcsoJ6JKhsqjlvM-5" value="&lt;font style=&quot;font-size: 14px;&quot;&gt;Модель контроля продуктов в магазине&lt;/font&gt;" style="text;html=1;strokeColor=none;fillColor=none;align=left;verticalAlign=middle;whiteSpace=wrap;rounded=0;" vertex="1" parent="1">
          <mxGeometry x="479" y="888" width="304" height="30" as="geometry" />
        </mxCell>
        <mxCell id="ue7LdqcsoJ6JKhsqjlvM-21" style="edgeStyle=orthogonalEdgeStyle;rounded=0;orthogonalLoop=1;jettySize=auto;html=1;exitX=1;exitY=0.75;exitDx=0;exitDy=0;entryX=0;entryY=0.75;entryDx=0;entryDy=0;" edge="1" parent="1" source="ue7LdqcsoJ6JKhsqjlvM-7" target="ue7LdqcsoJ6JKhsqjlvM-20">
          <mxGeometry relative="1" as="geometry" />
        </mxCell>
        <mxCell id="ue7LdqcsoJ6JKhsqjlvM-36" style="edgeStyle=orthogonalEdgeStyle;rounded=0;orthogonalLoop=1;jettySize=auto;html=1;exitX=1;exitY=0.25;exitDx=0;exitDy=0;entryX=0;entryY=0.25;entryDx=0;entryDy=0;" edge="1" parent="1" source="ue7LdqcsoJ6JKhsqjlvM-7" target="ue7LdqcsoJ6JKhsqjlvM-20">
          <mxGeometry relative="1" as="geometry">
            <Array as="points">
              <mxPoint x="427" y="418" />
              <mxPoint x="580" y="418" />
              <mxPoint x="580" y="497" />
            </Array>
          </mxGeometry>
        </mxCell>
        <mxCell id="ue7LdqcsoJ6JKhsqjlvM-7" value="Автоматизированная система учета товаров." style="rounded=0;whiteSpace=wrap;html=1;" vertex="1" parent="1">
          <mxGeometry x="272" y="377" width="155" height="81" as="geometry" />
        </mxCell>
        <mxCell id="ue7LdqcsoJ6JKhsqjlvM-9" value="" style="endArrow=classic;html=1;rounded=0;" edge="1" parent="1">
          <mxGeometry width="50" height="50" relative="1" as="geometry">
            <mxPoint x="90" y="395" as="sourcePoint" />
            <mxPoint x="272" y="395" as="targetPoint" />
          </mxGeometry>
        </mxCell>
        <mxCell id="ue7LdqcsoJ6JKhsqjlvM-11" value="&lt;div style=&quot;border-color: var(--border-color); text-align: left;&quot;&gt;Инвентаризационные данные о наличии продуктов в магазине.&lt;/div&gt;&lt;div&gt;&lt;br&gt;&lt;/div&gt;" style="text;html=1;strokeColor=none;fillColor=none;align=center;verticalAlign=middle;whiteSpace=wrap;rounded=0;" vertex="1" parent="1">
          <mxGeometry x="70" y="350" width="218" height="44" as="geometry" />
        </mxCell>
        <mxCell id="ue7LdqcsoJ6JKhsqjlvM-12" value="" style="endArrow=classic;html=1;rounded=0;entryX=0;entryY=0.75;entryDx=0;entryDy=0;" edge="1" parent="1" target="ue7LdqcsoJ6JKhsqjlvM-7">
          <mxGeometry width="50" height="50" relative="1" as="geometry">
            <mxPoint x="90" y="438" as="sourcePoint" />
            <mxPoint x="300" y="530" as="targetPoint" />
          </mxGeometry>
        </mxCell>
        <mxCell id="ue7LdqcsoJ6JKhsqjlvM-13" value="&lt;div style=&quot;border-color: var(--border-color); text-align: left;&quot;&gt;Данные о поступлении новых товаров.&lt;/div&gt;&lt;div&gt;&lt;br&gt;&lt;/div&gt;" style="text;html=1;strokeColor=none;fillColor=none;align=center;verticalAlign=middle;whiteSpace=wrap;rounded=0;" vertex="1" parent="1">
          <mxGeometry x="70" y="400" width="150" height="50" as="geometry" />
        </mxCell>
        <mxCell id="ue7LdqcsoJ6JKhsqjlvM-15" value="&lt;div style=&quot;border-color: var(--border-color);&quot;&gt;Сведения о продажах и списаниях товаров.&lt;/div&gt;&lt;div style=&quot;border-color: var(--border-color);&quot;&gt;&lt;br style=&quot;border-color: var(--border-color);&quot;&gt;&lt;/div&gt;" style="text;html=1;strokeColor=none;fillColor=none;align=left;verticalAlign=middle;whiteSpace=wrap;rounded=0;" vertex="1" parent="1">
          <mxGeometry x="70" y="456.5" width="180" height="40" as="geometry" />
        </mxCell>
        <mxCell id="ue7LdqcsoJ6JKhsqjlvM-34" style="edgeStyle=orthogonalEdgeStyle;rounded=0;orthogonalLoop=1;jettySize=auto;html=1;exitX=0.75;exitY=1;exitDx=0;exitDy=0;entryX=0.25;entryY=0;entryDx=0;entryDy=0;" edge="1" parent="1" source="ue7LdqcsoJ6JKhsqjlvM-17" target="ue7LdqcsoJ6JKhsqjlvM-7">
          <mxGeometry relative="1" as="geometry">
            <Array as="points">
              <mxPoint x="311" y="194" />
            </Array>
          </mxGeometry>
        </mxCell>
        <mxCell id="ue7LdqcsoJ6JKhsqjlvM-17" value="&lt;div style=&quot;border-color: var(--border-color);&quot;&gt;Анализ отчетов для оптимизации ассортимента.&lt;br&gt;&lt;/div&gt;" style="text;html=1;strokeColor=none;fillColor=none;align=center;verticalAlign=middle;whiteSpace=wrap;rounded=0;" vertex="1" parent="1">
          <mxGeometry x="120" y="150" width="218" height="44" as="geometry" />
        </mxCell>
        <mxCell id="ue7LdqcsoJ6JKhsqjlvM-25" style="edgeStyle=orthogonalEdgeStyle;rounded=0;orthogonalLoop=1;jettySize=auto;html=1;exitX=1;exitY=0.5;exitDx=0;exitDy=0;" edge="1" parent="1">
          <mxGeometry relative="1" as="geometry">
            <mxPoint x="1210.0000000000005" y="390.5" as="targetPoint" />
            <mxPoint x="426" y="390" as="sourcePoint" />
          </mxGeometry>
        </mxCell>
        <mxCell id="ue7LdqcsoJ6JKhsqjlvM-31" style="edgeStyle=orthogonalEdgeStyle;rounded=0;orthogonalLoop=1;jettySize=auto;html=1;exitX=1;exitY=0.75;exitDx=0;exitDy=0;" edge="1" parent="1" source="ue7LdqcsoJ6JKhsqjlvM-20">
          <mxGeometry relative="1" as="geometry">
            <mxPoint x="1210.0000000000005" y="537.75" as="targetPoint" />
          </mxGeometry>
        </mxCell>
        <mxCell id="ue7LdqcsoJ6JKhsqjlvM-37" style="edgeStyle=orthogonalEdgeStyle;rounded=0;orthogonalLoop=1;jettySize=auto;html=1;exitX=1;exitY=0.25;exitDx=0;exitDy=0;" edge="1" parent="1" source="ue7LdqcsoJ6JKhsqjlvM-20">
          <mxGeometry relative="1" as="geometry">
            <mxPoint x="1210.0000000000005" y="496.5" as="targetPoint" />
          </mxGeometry>
        </mxCell>
        <mxCell id="ue7LdqcsoJ6JKhsqjlvM-20" value="&lt;div style=&quot;border-color: var(--border-color);&quot;&gt;Система оповещения.&lt;/div&gt;" style="rounded=0;whiteSpace=wrap;html=1;" vertex="1" parent="1">
          <mxGeometry x="630" y="476" width="156.5" height="83" as="geometry" />
        </mxCell>
        <mxCell id="ue7LdqcsoJ6JKhsqjlvM-22" value="Актуальный список товаров в наличии." style="text;html=1;strokeColor=none;fillColor=none;align=center;verticalAlign=middle;whiteSpace=wrap;rounded=0;" vertex="1" parent="1">
          <mxGeometry x="590" y="420" width="120" height="30" as="geometry" />
        </mxCell>
        <mxCell id="ue7LdqcsoJ6JKhsqjlvM-24" value="Отчеты о продажах и списаниях." style="text;html=1;strokeColor=none;fillColor=none;align=center;verticalAlign=middle;whiteSpace=wrap;rounded=0;" vertex="1" parent="1">
          <mxGeometry x="440" y="357" width="190" height="30" as="geometry" />
        </mxCell>
        <mxCell id="ue7LdqcsoJ6JKhsqjlvM-29" value="Оповещение о просроченных товарах." style="text;html=1;strokeColor=none;fillColor=none;align=center;verticalAlign=middle;whiteSpace=wrap;rounded=0;" vertex="1" parent="1">
          <mxGeometry x="1010" y="432.5" width="230" height="64" as="geometry" />
        </mxCell>
        <mxCell id="ue7LdqcsoJ6JKhsqjlvM-33" style="edgeStyle=orthogonalEdgeStyle;rounded=0;orthogonalLoop=1;jettySize=auto;html=1;exitX=0;exitY=0.5;exitDx=0;exitDy=0;entryX=0.75;entryY=0;entryDx=0;entryDy=0;" edge="1" parent="1" source="ue7LdqcsoJ6JKhsqjlvM-32" target="ue7LdqcsoJ6JKhsqjlvM-20">
          <mxGeometry relative="1" as="geometry" />
        </mxCell>
        <mxCell id="ue7LdqcsoJ6JKhsqjlvM-32" value="Планирование заказов новых товаров." style="text;html=1;strokeColor=none;fillColor=none;align=center;verticalAlign=middle;whiteSpace=wrap;rounded=0;" vertex="1" parent="1">
          <mxGeometry x="830" y="420" width="160" height="30" as="geometry" />
        </mxCell>
        <mxCell id="ue7LdqcsoJ6JKhsqjlvM-35" value="Опвещение о нехватке товаров" style="text;html=1;strokeColor=none;fillColor=none;align=center;verticalAlign=middle;whiteSpace=wrap;rounded=0;" vertex="1" parent="1">
          <mxGeometry x="1040" y="502.5" width="170" height="30" as="geometry" />
        </mxCell>
        <mxCell id="ue7LdqcsoJ6JKhsqjlvM-41" style="edgeStyle=orthogonalEdgeStyle;rounded=0;orthogonalLoop=1;jettySize=auto;html=1;exitX=0.5;exitY=1;exitDx=0;exitDy=0;entryX=0.5;entryY=0;entryDx=0;entryDy=0;" edge="1" parent="1" source="ue7LdqcsoJ6JKhsqjlvM-39" target="ue7LdqcsoJ6JKhsqjlvM-7">
          <mxGeometry relative="1" as="geometry">
            <Array as="points">
              <mxPoint x="349" y="197" />
            </Array>
          </mxGeometry>
        </mxCell>
        <mxCell id="ue7LdqcsoJ6JKhsqjlvM-39" value="Контроль за соблюдением сроков годности." style="text;html=1;strokeColor=none;fillColor=none;align=center;verticalAlign=middle;whiteSpace=wrap;rounded=0;" vertex="1" parent="1">
          <mxGeometry x="380" y="147" width="130" height="50" as="geometry" />
        </mxCell>
        <mxCell id="ue7LdqcsoJ6JKhsqjlvM-42" value="Список о просроченных товарах" style="text;html=1;strokeColor=none;fillColor=none;align=center;verticalAlign=middle;whiteSpace=wrap;rounded=0;" vertex="1" parent="1">
          <mxGeometry x="430" y="472.5" width="96" height="30" as="geometry" />
        </mxCell>
        <mxCell id="ue7LdqcsoJ6JKhsqjlvM-43" value="" style="endArrow=classic;html=1;rounded=0;" edge="1" parent="1">
          <mxGeometry width="50" height="50" relative="1" as="geometry">
            <mxPoint x="580" y="420" as="sourcePoint" />
            <mxPoint x="1210" y="398" as="targetPoint" />
            <Array as="points">
              <mxPoint x="640" y="398" />
            </Array>
          </mxGeometry>
        </mxCell>
        <mxCell id="ue7LdqcsoJ6JKhsqjlvM-50" value="" style="endArrow=classic;html=1;rounded=0;entryX=0.25;entryY=1;entryDx=0;entryDy=0;" edge="1" parent="1" target="ue7LdqcsoJ6JKhsqjlvM-7">
          <mxGeometry width="50" height="50" relative="1" as="geometry">
            <mxPoint x="311" y="710" as="sourcePoint" />
            <mxPoint x="540" y="440" as="targetPoint" />
          </mxGeometry>
        </mxCell>
        <mxCell id="ue7LdqcsoJ6JKhsqjlvM-52" value="" style="endArrow=classic;html=1;rounded=0;entryX=0.89;entryY=1.015;entryDx=0;entryDy=0;entryPerimeter=0;" edge="1" parent="1" target="ue7LdqcsoJ6JKhsqjlvM-7">
          <mxGeometry width="50" height="50" relative="1" as="geometry">
            <mxPoint x="410" y="710" as="sourcePoint" />
            <mxPoint x="306.75000000000045" y="646" as="targetPoint" />
          </mxGeometry>
        </mxCell>
        <mxCell id="ue7LdqcsoJ6JKhsqjlvM-53" value="Регистрация продаж и списаний продуктов." style="text;html=1;strokeColor=none;fillColor=none;align=center;verticalAlign=middle;whiteSpace=wrap;rounded=0;" vertex="1" parent="1">
          <mxGeometry x="410" y="646" width="140" height="30" as="geometry" />
        </mxCell>
        <mxCell id="ue7LdqcsoJ6JKhsqjlvM-54" value="&#xa;&lt;span style=&quot;color: rgb(0, 0, 0); font-family: Helvetica; font-size: 12px; font-style: normal; font-variant-ligatures: normal; font-variant-caps: normal; font-weight: 400; letter-spacing: normal; orphans: 2; text-align: left; text-indent: 0px; text-transform: none; widows: 2; word-spacing: 0px; -webkit-text-stroke-width: 0px; background-color: rgb(251, 251, 251); text-decoration-thickness: initial; text-decoration-style: initial; text-decoration-color: initial; float: none; display: inline !important;&quot;&gt;Периодическая инвентаризация товаров в магазине.&lt;/span&gt;&#xa;&#xa;" style="text;html=1;strokeColor=none;fillColor=none;align=center;verticalAlign=middle;whiteSpace=wrap;rounded=0;" vertex="1" parent="1">
          <mxGeometry x="228" y="670" width="60" height="30" as="geometry" />
        </mxCell>
        <mxCell id="ue7LdqcsoJ6JKhsqjlvM-55" value="" style="endArrow=classic;html=1;rounded=0;entryX=0.75;entryY=1;entryDx=0;entryDy=0;" edge="1" parent="1" target="ue7LdqcsoJ6JKhsqjlvM-7">
          <mxGeometry width="50" height="50" relative="1" as="geometry">
            <mxPoint x="388" y="710" as="sourcePoint" />
            <mxPoint x="390.38" y="481.5" as="targetPoint" />
          </mxGeometry>
        </mxCell>
        <mxCell id="ue7LdqcsoJ6JKhsqjlvM-56" value="&#xa;&lt;div style=&quot;border-color: var(--border-color);&quot;&gt;Мониторинг сроков годности продуктов.&lt;/div&gt;&lt;div style=&quot;border-color: var(--border-color);&quot;&gt;&lt;br style=&quot;border-color: var(--border-color); color: rgb(0, 0, 0); font-family: Helvetica; font-size: 12px; font-style: normal; font-variant-ligatures: normal; font-variant-caps: normal; font-weight: 400; letter-spacing: normal; orphans: 2; text-align: left; text-indent: 0px; text-transform: none; widows: 2; word-spacing: 0px; -webkit-text-stroke-width: 0px; background-color: rgb(251, 251, 251); text-decoration-thickness: initial; text-decoration-style: initial; text-decoration-color: initial;&quot;&gt;&#xa;&#xa;&lt;/div&gt;" style="text;html=1;strokeColor=none;fillColor=none;align=center;verticalAlign=middle;whiteSpace=wrap;rounded=0;" vertex="1" parent="1">
          <mxGeometry x="320" y="676" width="60" height="30" as="geometry" />
        </mxCell>
        <mxCell id="ue7LdqcsoJ6JKhsqjlvM-57" value="Обновление данных о поступлении новых товаров." style="text;html=1;strokeColor=none;fillColor=none;align=center;verticalAlign=middle;whiteSpace=wrap;rounded=0;" vertex="1" parent="1">
          <mxGeometry x="670" y="690" width="90" height="70" as="geometry" />
        </mxCell>
        <mxCell id="ue7LdqcsoJ6JKhsqjlvM-58" value="" style="endArrow=classic;html=1;rounded=0;entryX=0.25;entryY=1;entryDx=0;entryDy=0;" edge="1" parent="1" target="ue7LdqcsoJ6JKhsqjlvM-20">
          <mxGeometry width="50" height="50" relative="1" as="geometry">
            <mxPoint x="669" y="770" as="sourcePoint" />
            <mxPoint x="430" y="520" as="targetPoint" />
            <Array as="points">
              <mxPoint x="669" y="640" />
              <mxPoint x="669" y="580" />
            </Array>
          </mxGeometry>
        </mxCell>
        <mxCell id="ue7LdqcsoJ6JKhsqjlvM-60" style="edgeStyle=orthogonalEdgeStyle;rounded=0;orthogonalLoop=1;jettySize=auto;html=1;exitX=0.5;exitY=1;exitDx=0;exitDy=0;entryX=0.75;entryY=0;entryDx=0;entryDy=0;" edge="1" parent="1" source="ue7LdqcsoJ6JKhsqjlvM-59" target="ue7LdqcsoJ6JKhsqjlvM-7">
          <mxGeometry relative="1" as="geometry">
            <Array as="points">
              <mxPoint x="609" y="220" />
              <mxPoint x="388" y="220" />
            </Array>
          </mxGeometry>
        </mxCell>
        <mxCell id="ue7LdqcsoJ6JKhsqjlvM-59" value="Мониторинг оборота товаров." style="text;html=1;strokeColor=none;fillColor=none;align=center;verticalAlign=middle;whiteSpace=wrap;rounded=0;" vertex="1" parent="1">
          <mxGeometry x="570" y="147" width="79" height="44" as="geometry" />
        </mxCell>
        <mxCell id="ue7LdqcsoJ6JKhsqjlvM-63" value="" style="endArrow=classic;html=1;rounded=0;entryX=-0.006;entryY=0.892;entryDx=0;entryDy=0;entryPerimeter=0;" edge="1" parent="1" target="ue7LdqcsoJ6JKhsqjlvM-7">
          <mxGeometry width="50" height="50" relative="1" as="geometry">
            <mxPoint x="90" y="490" as="sourcePoint" />
            <mxPoint x="480" y="470" as="targetPoint" />
            <Array as="points">
              <mxPoint x="220" y="490" />
            </Array>
          </mxGeometry>
        </mxCell>
      </root>
    </mxGraphModel>
  </diagram>
</mxfile>
